<?xml version="1.0" encoding="UTF-8" standalone="no"?><svg xmlns="http://www.w3.org/2000/svg" xmlns:xlink="http://www.w3.org/1999/xlink" contentScriptType="application/ecmascript" contentStyleType="text/css" height="936px" preserveAspectRatio="none" style="width:1733px;height:936px;background:#FFFFFF;" version="1.1" viewBox="0 0 1733 936" width="1733px" zoomAndPan="magnify"><defs><filter height="300%" id="fgavhneyynned" width="300%" x="-1" y="-1"><feGaussianBlur result="blurOut" stdDeviation="2.0"/><feColorMatrix in="blurOut" result="blurOut2" type="matrix" values="0 0 0 0 0 0 0 0 0 0 0 0 0 0 0 0 0 0 .4 0"/><feOffset dx="4.0" dy="4.0" in="blurOut2" result="blurOut3"/><feBlend in="SourceGraphic" in2="blurOut3" mode="normal"/></filter></defs><g><!--MD5=[bcd645a24a7aa549381c6f2be29e5165]
class SimpleLogger--><rect codeLine="2" fill="#FEFECE" filter="url(#fgavhneyynned)" height="99.8203" id="SimpleLogger" style="stroke:#A80036;stroke-width:1.5;" width="241" x="888" y="823"/><ellipse cx="965.75" cy="839" fill="#ADD1B2" rx="11" ry="11" style="stroke:#A80036;stroke-width:1.0;"/><path d="M968.2231,845.1431 Q967.6421,845.4419 967.0029,845.5913 Q966.3638,845.7407 965.6582,845.7407 Q963.1514,845.7407 961.8315,844.0889 Q960.5117,842.437 960.5117,839.3159 Q960.5117,836.1865 961.8315,834.5347 Q963.1514,832.8828 965.6582,832.8828 Q966.3638,832.8828 967.0112,833.0322 Q967.6587,833.1816 968.2231,833.4805 L968.2231,836.2031 Q967.5923,835.6221 966.9988,835.3523 Q966.4053,835.0825 965.7744,835.0825 Q964.4297,835.0825 963.7449,836.1492 Q963.0601,837.2158 963.0601,839.3159 Q963.0601,841.4077 963.7449,842.4744 Q964.4297,843.541 965.7744,843.541 Q966.4053,843.541 966.9988,843.2712 Q967.5923,843.0015 968.2231,842.4204 Z " fill="#000000"/><text fill="#000000" font-family="sans-serif" font-size="12" lengthAdjust="spacing" textLength="77" x="986.25" y="843.5352">SimpleLogger</text><line style="stroke:#A80036;stroke-width:1.5;" x1="889" x2="1128" y1="855" y2="855"/><line style="stroke:#A80036;stroke-width:1.5;" x1="889" x2="1128" y1="863" y2="863"/><ellipse cx="899" cy="874" fill="#84BE84" rx="3" ry="3" style="stroke:#038048;stroke-width:1.0;"/><text fill="#000000" font-family="sans-serif" font-size="11" lengthAdjust="spacing" textLength="215" x="908" y="877.6348">SimpleLogger(printStream: PrintStream);</text><ellipse cx="899" cy="886.9551" fill="#84BE84" rx="3" ry="3" style="stroke:#038048;stroke-width:1.0;"/><text fill="#000000" font-family="sans-serif" font-size="11" lengthAdjust="spacing" textLength="152" x="908" y="890.5898">imprimirLinha(texto: String);</text><ellipse cx="899" cy="899.9102" fill="#84BE84" rx="3" ry="3" style="stroke:#038048;stroke-width:1.0;"/><text fill="#000000" font-family="sans-serif" font-size="11" lengthAdjust="spacing" textLength="116" x="908" y="903.5449">imprimir(text: String);</text><ellipse cx="899" cy="912.8652" fill="#84BE84" rx="3" ry="3" style="stroke:#038048;stroke-width:1.0;"/><text fill="#000000" font-family="sans-serif" font-size="11" lengthAdjust="spacing" textLength="83" x="908" y="916.5">quebrarLinha();</text><!--MD5=[b80c6f0a6b96ead0571de96351b47769]
class SimpleInput--><rect codeLine="9" fill="#FEFECE" filter="url(#fgavhneyynned)" height="86.8652" id="SimpleInput" style="stroke:#A80036;stroke-width:1.5;" width="192" x="924.5" y="483.5"/><ellipse cx="982.75" cy="499.5" fill="#ADD1B2" rx="11" ry="11" style="stroke:#A80036;stroke-width:1.0;"/><path d="M985.2231,505.6431 Q984.6421,505.9419 984.0029,506.0913 Q983.3638,506.2407 982.6582,506.2407 Q980.1514,506.2407 978.8315,504.5889 Q977.5117,502.937 977.5117,499.8159 Q977.5117,496.6865 978.8315,495.0347 Q980.1514,493.3828 982.6582,493.3828 Q983.3638,493.3828 984.0112,493.5322 Q984.6587,493.6816 985.2231,493.9805 L985.2231,496.7031 Q984.5923,496.1221 983.9988,495.8523 Q983.4053,495.5825 982.7744,495.5825 Q981.4297,495.5825 980.7449,496.6492 Q980.0601,497.7158 980.0601,499.8159 Q980.0601,501.9077 980.7449,502.9744 Q981.4297,504.041 982.7744,504.041 Q983.4053,504.041 983.9988,503.7712 Q984.5923,503.5015 985.2231,502.9204 Z " fill="#000000"/><text fill="#000000" font-family="sans-serif" font-size="12" lengthAdjust="spacing" textLength="67" x="1003.25" y="504.0352">SimpleInput</text><line style="stroke:#A80036;stroke-width:1.5;" x1="925.5" x2="1115.5" y1="515.5" y2="515.5"/><line style="stroke:#A80036;stroke-width:1.5;" x1="925.5" x2="1115.5" y1="523.5" y2="523.5"/><ellipse cx="935.5" cy="534.5" fill="#84BE84" rx="3" ry="3" style="stroke:#038048;stroke-width:1.0;"/><text fill="#000000" font-family="sans-serif" font-size="11" lengthAdjust="spacing" textLength="166" x="944.5" y="538.1348">SimpleInput(scanner: Scanner);</text><ellipse cx="935.5" cy="547.4551" fill="#84BE84" rx="3" ry="3" style="stroke:#038048;stroke-width:1.0;"/><text fill="#000000" font-family="sans-serif" font-size="11" lengthAdjust="spacing" textLength="89" x="944.5" y="551.0898">lerLinha(): String</text><ellipse cx="935.5" cy="560.4102" fill="#84BE84" rx="3" ry="3" style="stroke:#038048;stroke-width:1.0;"/><text fill="#000000" font-family="sans-serif" font-size="11" lengthAdjust="spacing" textLength="77" x="944.5" y="564.0449">lerInteiro(): int</text><!--MD5=[0488aa3398b5703461cfc079dcf04ca8]
class ExtratorDeCoordenadas--><rect codeLine="15" fill="#FEFECE" filter="url(#fgavhneyynned)" height="60.9551" id="ExtratorDeCoordenadas" style="stroke:#A80036;stroke-width:1.5;" width="178" x="525.5" y="496.5"/><ellipse cx="543.65" cy="512.5" fill="#ADD1B2" rx="11" ry="11" style="stroke:#A80036;stroke-width:1.0;"/><path d="M546.1231,518.6431 Q545.5421,518.9419 544.9029,519.0913 Q544.2638,519.2407 543.5582,519.2407 Q541.0514,519.2407 539.7315,517.5889 Q538.4117,515.937 538.4117,512.8159 Q538.4117,509.6865 539.7315,508.0347 Q541.0514,506.3828 543.5582,506.3828 Q544.2638,506.3828 544.9112,506.5322 Q545.5587,506.6816 546.1231,506.9805 L546.1231,509.7031 Q545.4923,509.1221 544.8988,508.8523 Q544.3053,508.5825 543.6744,508.5825 Q542.3297,508.5825 541.6449,509.6492 Q540.9601,510.7158 540.9601,512.8159 Q540.9601,514.9077 541.6449,515.9744 Q542.3297,517.041 543.6744,517.041 Q544.3053,517.041 544.8988,516.7712 Q545.4923,516.5015 546.1231,515.9204 Z " fill="#000000"/><text fill="#000000" font-family="sans-serif" font-size="12" lengthAdjust="spacing" textLength="139" x="558.35" y="517.0352">ExtratorDeCoordenadas</text><line style="stroke:#A80036;stroke-width:1.5;" x1="526.5" x2="702.5" y1="528.5" y2="528.5"/><line style="stroke:#A80036;stroke-width:1.5;" x1="526.5" x2="702.5" y1="536.5" y2="536.5"/><ellipse cx="536.5" cy="547.5" fill="#84BE84" rx="3" ry="3" style="stroke:#038048;stroke-width:1.0;"/><text fill="#000000" font-family="sans-serif" font-size="11" lengthAdjust="spacing" textLength="152" x="545.5" y="551.1348">extrair(posicao: String): int[]</text><!--MD5=[8631405d5f661f13d977140b075d082f]
class AcaoCancelar--><rect codeLine="19" fill="#FEFECE" filter="url(#fgavhneyynned)" height="73.9102" id="AcaoCancelar" style="stroke:#A80036;stroke-width:1.5;" width="511" x="7" y="297.5"/><ellipse cx="219.25" cy="313.5" fill="#ADD1B2" rx="11" ry="11" style="stroke:#A80036;stroke-width:1.0;"/><path d="M221.7231,319.6431 Q221.1421,319.9419 220.5029,320.0913 Q219.8638,320.2407 219.1582,320.2407 Q216.6514,320.2407 215.3315,318.5889 Q214.0117,316.937 214.0117,313.8159 Q214.0117,310.6865 215.3315,309.0347 Q216.6514,307.3828 219.1582,307.3828 Q219.8638,307.3828 220.5112,307.5322 Q221.1587,307.6816 221.7231,307.9805 L221.7231,310.7031 Q221.0923,310.1221 220.4988,309.8523 Q219.9053,309.5825 219.2744,309.5825 Q217.9297,309.5825 217.2449,310.6492 Q216.5601,311.7158 216.5601,313.8159 Q216.5601,315.9077 217.2449,316.9744 Q217.9297,318.041 219.2744,318.041 Q219.9053,318.041 220.4988,317.7712 Q221.0923,317.5015 221.7231,316.9204 Z " fill="#000000"/><text fill="#000000" font-family="sans-serif" font-size="12" lengthAdjust="spacing" textLength="78" x="239.75" y="318.0352">AcaoCancelar</text><line style="stroke:#A80036;stroke-width:1.5;" x1="8" x2="517" y1="329.5" y2="329.5"/><line style="stroke:#A80036;stroke-width:1.5;" x1="8" x2="517" y1="337.5" y2="337.5"/><ellipse cx="18" cy="348.5" fill="#84BE84" rx="3" ry="3" style="stroke:#038048;stroke-width:1.0;"/><text fill="#000000" font-family="sans-serif" font-size="11" lengthAdjust="spacing" textLength="485" x="27" y="352.1348">AcaoCancelar(input: SimpleInput, logger: SimpleLogger, extrator: ExtratorDeCoordenadas)</text><ellipse cx="18" cy="361.4551" fill="#84BE84" rx="3" ry="3" style="stroke:#038048;stroke-width:1.0;"/><text fill="#000000" font-family="sans-serif" font-size="11" lengthAdjust="spacing" textLength="106" x="27" y="365.0898">accept(mapa: Mapa)</text><!--MD5=[67ea9f8eb7ab97465d83c225b092f5fe]
class Consumer--><rect codeLine="79" fill="#FEFECE" filter="url(#fgavhneyynned)" height="60.9551" id="Consumer" style="stroke:#A80036;stroke-width:1.5;" width="112" x="1151.5" y="10"/><ellipse cx="1171" cy="26" fill="#B4A7E5" rx="11" ry="11" style="stroke:#A80036;stroke-width:1.0;"/><path d="M1167.4277,22.2651 L1167.4277,20.1069 L1174.8071,20.1069 L1174.8071,22.2651 L1172.3418,22.2651 L1172.3418,30.3418 L1174.8071,30.3418 L1174.8071,32.5 L1167.4277,32.5 L1167.4277,30.3418 L1169.8931,30.3418 L1169.8931,22.2651 Z " fill="#000000"/><text fill="#000000" font-family="sans-serif" font-size="12" font-style="italic" lengthAdjust="spacing" textLength="58" x="1186" y="30.5352">Consumer</text><rect fill="#FFFFFF" height="16.1328" style="stroke:#000000;stroke-width:1.0;stroke-dasharray:2.0,2.0;" width="10" x="1256.5" y="7"/><text fill="#000000" font-family="sans-serif" font-size="12" font-style="italic" lengthAdjust="spacing" textLength="8" x="1257.5" y="19.6016">T</text><line style="stroke:#A80036;stroke-width:1.5;" x1="1152.5" x2="1262.5" y1="42" y2="42"/><line style="stroke:#A80036;stroke-width:1.5;" x1="1152.5" x2="1262.5" y1="50" y2="50"/><ellipse cx="1162.5" cy="61" fill="#84BE84" rx="3" ry="3" style="stroke:#038048;stroke-width:1.0;"/><text fill="#000000" font-family="sans-serif" font-size="11" lengthAdjust="spacing" textLength="86" x="1171.5" y="64.6348">accept(object T)</text><!--MD5=[861837f3e7e30cb1c84f0575248d5c34]
class AcaoMostrar--><rect codeLine="24" fill="#FEFECE" filter="url(#fgavhneyynned)" height="73.9102" id="AcaoMostrar" style="stroke:#A80036;stroke-width:1.5;" width="217" x="1099" y="297.5"/><ellipse cx="1167.25" cy="313.5" fill="#ADD1B2" rx="11" ry="11" style="stroke:#A80036;stroke-width:1.0;"/><path d="M1169.7231,319.6431 Q1169.1421,319.9419 1168.5029,320.0913 Q1167.8638,320.2407 1167.1582,320.2407 Q1164.6514,320.2407 1163.3315,318.5889 Q1162.0117,316.937 1162.0117,313.8159 Q1162.0117,310.6865 1163.3315,309.0347 Q1164.6514,307.3828 1167.1582,307.3828 Q1167.8638,307.3828 1168.5112,307.5322 Q1169.1587,307.6816 1169.7231,307.9805 L1169.7231,310.7031 Q1169.0923,310.1221 1168.4988,309.8523 Q1167.9053,309.5825 1167.2744,309.5825 Q1165.9297,309.5825 1165.2449,310.6492 Q1164.5601,311.7158 1164.5601,313.8159 Q1164.5601,315.9077 1165.2449,316.9744 Q1165.9297,318.041 1167.2744,318.041 Q1167.9053,318.041 1168.4988,317.7712 Q1169.0923,317.5015 1169.7231,316.9204 Z " fill="#000000"/><text fill="#000000" font-family="sans-serif" font-size="12" lengthAdjust="spacing" textLength="72" x="1187.75" y="318.0352">AcaoMostrar</text><line style="stroke:#A80036;stroke-width:1.5;" x1="1100" x2="1315" y1="329.5" y2="329.5"/><line style="stroke:#A80036;stroke-width:1.5;" x1="1100" x2="1315" y1="337.5" y2="337.5"/><ellipse cx="1110" cy="348.5" fill="#84BE84" rx="3" ry="3" style="stroke:#038048;stroke-width:1.0;"/><text fill="#000000" font-family="sans-serif" font-size="11" lengthAdjust="spacing" textLength="191" x="1119" y="352.1348">AcaoMostrar(logger: SimpleLogger)</text><ellipse cx="1110" cy="361.4551" fill="#84BE84" rx="3" ry="3" style="stroke:#038048;stroke-width:1.0;"/><text fill="#000000" font-family="sans-serif" font-size="11" lengthAdjust="spacing" textLength="106" x="1119" y="365.0898">accept(mapa: Mapa)</text><!--MD5=[e67e26deb67007e1f2f83b0e8ca5c1b3]
class AcaoReservar--><rect codeLine="29" fill="#FEFECE" filter="url(#fgavhneyynned)" height="73.9102" id="AcaoReservar" style="stroke:#A80036;stroke-width:1.5;" width="511" x="553" y="297.5"/><ellipse cx="764.75" cy="313.5" fill="#ADD1B2" rx="11" ry="11" style="stroke:#A80036;stroke-width:1.0;"/><path d="M767.2231,319.6431 Q766.6421,319.9419 766.0029,320.0913 Q765.3638,320.2407 764.6582,320.2407 Q762.1514,320.2407 760.8315,318.5889 Q759.5117,316.937 759.5117,313.8159 Q759.5117,310.6865 760.8315,309.0347 Q762.1514,307.3828 764.6582,307.3828 Q765.3638,307.3828 766.0112,307.5322 Q766.6587,307.6816 767.2231,307.9805 L767.2231,310.7031 Q766.5923,310.1221 765.9988,309.8523 Q765.4053,309.5825 764.7744,309.5825 Q763.4297,309.5825 762.7449,310.6492 Q762.0601,311.7158 762.0601,313.8159 Q762.0601,315.9077 762.7449,316.9744 Q763.4297,318.041 764.7744,318.041 Q765.4053,318.041 765.9988,317.7712 Q766.5923,317.5015 767.2231,316.9204 Z " fill="#000000"/><text fill="#000000" font-family="sans-serif" font-size="12" lengthAdjust="spacing" textLength="79" x="785.25" y="318.0352">AcaoReservar</text><line style="stroke:#A80036;stroke-width:1.5;" x1="554" x2="1063" y1="329.5" y2="329.5"/><line style="stroke:#A80036;stroke-width:1.5;" x1="554" x2="1063" y1="337.5" y2="337.5"/><ellipse cx="564" cy="348.5" fill="#84BE84" rx="3" ry="3" style="stroke:#038048;stroke-width:1.0;"/><text fill="#000000" font-family="sans-serif" font-size="11" lengthAdjust="spacing" textLength="485" x="573" y="352.1348">AcaoReservar(input: SimpleInput, logger: SimpleLogger, extrator: ExtratorDeCoordenadas)</text><ellipse cx="564" cy="361.4551" fill="#84BE84" rx="3" ry="3" style="stroke:#038048;stroke-width:1.0;"/><text fill="#000000" font-family="sans-serif" font-size="11" lengthAdjust="spacing" textLength="106" x="573" y="365.0898">accept(mapa: Mapa)</text><!--MD5=[f8dba98ebebd38ea159b108a2b13058b]
class AcaoSair--><rect codeLine="34" fill="#FEFECE" filter="url(#fgavhneyynned)" height="73.9102" id="AcaoSair" style="stroke:#A80036;stroke-width:1.5;" width="137" x="1280" y="131"/><ellipse cx="1320.2" cy="147" fill="#ADD1B2" rx="11" ry="11" style="stroke:#A80036;stroke-width:1.0;"/><path d="M1322.6731,153.1431 Q1322.0921,153.4419 1321.4529,153.5913 Q1320.8138,153.7407 1320.1082,153.7407 Q1317.6014,153.7407 1316.2815,152.0889 Q1314.9617,150.437 1314.9617,147.3159 Q1314.9617,144.1865 1316.2815,142.5347 Q1317.6014,140.8828 1320.1082,140.8828 Q1320.8138,140.8828 1321.4612,141.0322 Q1322.1087,141.1816 1322.6731,141.4805 L1322.6731,144.2031 Q1322.0423,143.6221 1321.4488,143.3523 Q1320.8553,143.0825 1320.2244,143.0825 Q1318.8797,143.0825 1318.1949,144.1492 Q1317.5101,145.2158 1317.5101,147.3159 Q1317.5101,149.4077 1318.1949,150.4744 Q1318.8797,151.541 1320.2244,151.541 Q1320.8553,151.541 1321.4488,151.2712 Q1322.0423,151.0015 1322.6731,150.4204 Z " fill="#000000"/><text fill="#000000" font-family="sans-serif" font-size="12" lengthAdjust="spacing" textLength="49" x="1339.8" y="151.5352">AcaoSair</text><line style="stroke:#A80036;stroke-width:1.5;" x1="1281" x2="1416" y1="163" y2="163"/><line style="stroke:#A80036;stroke-width:1.5;" x1="1281" x2="1416" y1="171" y2="171"/><ellipse cx="1291" cy="182" fill="#84BE84" rx="3" ry="3" style="stroke:#038048;stroke-width:1.0;"/><text fill="#000000" font-family="sans-serif" font-size="11" lengthAdjust="spacing" textLength="111" x="1300" y="185.6348">AcaoSair(ui: MenuUi)</text><ellipse cx="1291" cy="194.9551" fill="#84BE84" rx="3" ry="3" style="stroke:#038048;stroke-width:1.0;"/><text fill="#000000" font-family="sans-serif" font-size="11" lengthAdjust="spacing" textLength="106" x="1300" y="198.5898">accept(mapa: Mapa)</text><!--MD5=[3858b4c47ad31b7fe669860596063bee]
class Mapa--><rect codeLine="39" fill="#FEFECE" filter="url(#fgavhneyynned)" height="112.7754" id="Mapa" style="stroke:#A80036;stroke-width:1.5;" width="415" x="1284" y="650"/><ellipse cx="1471.25" cy="666" fill="#ADD1B2" rx="11" ry="11" style="stroke:#A80036;stroke-width:1.0;"/><path d="M1473.7231,672.1431 Q1473.1421,672.4419 1472.5029,672.5913 Q1471.8638,672.7407 1471.1582,672.7407 Q1468.6514,672.7407 1467.3315,671.0889 Q1466.0117,669.437 1466.0117,666.3159 Q1466.0117,663.1865 1467.3315,661.5347 Q1468.6514,659.8828 1471.1582,659.8828 Q1471.8638,659.8828 1472.5112,660.0322 Q1473.1587,660.1816 1473.7231,660.4805 L1473.7231,663.2031 Q1473.0923,662.6221 1472.4988,662.3523 Q1471.9053,662.0825 1471.2744,662.0825 Q1469.9297,662.0825 1469.2449,663.1492 Q1468.5601,664.2158 1468.5601,666.3159 Q1468.5601,668.4077 1469.2449,669.4744 Q1469.9297,670.541 1471.2744,670.541 Q1471.9053,670.541 1472.4988,670.2712 Q1473.0923,670.0015 1473.7231,669.4204 Z " fill="#000000"/><text fill="#000000" font-family="sans-serif" font-size="12" lengthAdjust="spacing" textLength="32" x="1491.75" y="670.5352">Mapa</text><line style="stroke:#A80036;stroke-width:1.5;" x1="1285" x2="1698" y1="682" y2="682"/><rect fill="none" height="6" style="stroke:#C82930;stroke-width:1.0;" width="6" x="1292" y="690"/><text fill="#000000" font-family="sans-serif" font-size="11" lengthAdjust="spacing" textLength="114" x="1304" y="696.6348">assentos: Assento[][]</text><line style="stroke:#A80036;stroke-width:1.5;" x1="1285" x2="1698" y1="702.9551" y2="702.9551"/><ellipse cx="1295" cy="713.9551" fill="#84BE84" rx="3" ry="3" style="stroke:#038048;stroke-width:1.0;"/><text fill="#000000" font-family="sans-serif" font-size="11" lengthAdjust="spacing" textLength="389" x="1304" y="717.5898">Mapa(logger: SimpleLogger, tamanhoVertical: int, tamanhoHorizontal int)</text><ellipse cx="1295" cy="726.9102" fill="#84BE84" rx="3" ry="3" style="stroke:#038048;stroke-width:1.0;"/><text fill="#000000" font-family="sans-serif" font-size="11" lengthAdjust="spacing" textLength="239" x="1304" y="730.5449">reservar(nome: String, fileira: int, coluna: int)</text><ellipse cx="1295" cy="739.8652" fill="#84BE84" rx="3" ry="3" style="stroke:#038048;stroke-width:1.0;"/><text fill="#000000" font-family="sans-serif" font-size="11" lengthAdjust="spacing" textLength="165" x="1304" y="743.5">cancelar(fileira: int, coluna: int)</text><ellipse cx="1295" cy="752.8203" fill="#84BE84" rx="3" ry="3" style="stroke:#038048;stroke-width:1.0;"/><text fill="#000000" font-family="sans-serif" font-size="11" lengthAdjust="spacing" textLength="51" x="1304" y="756.4551">mostrar()</text><!--MD5=[a4138113a6253bbecb434f76d3ecb3ea]
class Assento--><rect codeLine="47" fill="#FEFECE" filter="url(#fgavhneyynned)" height="99.8203" id="Assento" style="stroke:#A80036;stroke-width:1.5;" width="154" x="1414.5" y="823"/><ellipse cx="1464.75" cy="839" fill="#ADD1B2" rx="11" ry="11" style="stroke:#A80036;stroke-width:1.0;"/><path d="M1467.2231,845.1431 Q1466.6421,845.4419 1466.0029,845.5913 Q1465.3638,845.7407 1464.6582,845.7407 Q1462.1514,845.7407 1460.8315,844.0889 Q1459.5117,842.437 1459.5117,839.3159 Q1459.5117,836.1865 1460.8315,834.5347 Q1462.1514,832.8828 1464.6582,832.8828 Q1465.3638,832.8828 1466.0112,833.0322 Q1466.6587,833.1816 1467.2231,833.4805 L1467.2231,836.2031 Q1466.5923,835.6221 1465.9988,835.3523 Q1465.4053,835.0825 1464.7744,835.0825 Q1463.4297,835.0825 1462.7449,836.1492 Q1462.0601,837.2158 1462.0601,839.3159 Q1462.0601,841.4077 1462.7449,842.4744 Q1463.4297,843.541 1464.7744,843.541 Q1465.4053,843.541 1465.9988,843.2712 Q1466.5923,843.0015 1467.2231,842.4204 Z " fill="#000000"/><text fill="#000000" font-family="sans-serif" font-size="12" lengthAdjust="spacing" textLength="45" x="1485.25" y="843.5352">Assento</text><line style="stroke:#A80036;stroke-width:1.5;" x1="1415.5" x2="1567.5" y1="855" y2="855"/><rect fill="none" height="6" style="stroke:#C82930;stroke-width:1.0;" width="6" x="1422.5" y="863"/><text fill="#000000" font-family="sans-serif" font-size="11" lengthAdjust="spacing" textLength="68" x="1434.5" y="869.6348">nome: String</text><line style="stroke:#A80036;stroke-width:1.5;" x1="1415.5" x2="1567.5" y1="875.9551" y2="875.9551"/><ellipse cx="1425.5" cy="886.9551" fill="#84BE84" rx="3" ry="3" style="stroke:#038048;stroke-width:1.0;"/><text fill="#000000" font-family="sans-serif" font-size="11" lengthAdjust="spacing" textLength="128" x="1434.5" y="890.5898">estaOcupado(): boolean</text><ellipse cx="1425.5" cy="899.9102" fill="#84BE84" rx="3" ry="3" style="stroke:#038048;stroke-width:1.0;"/><text fill="#000000" font-family="sans-serif" font-size="11" lengthAdjust="spacing" textLength="97" x="1434.5" y="903.5449">getNome() : String</text><ellipse cx="1425.5" cy="912.8652" fill="#84BE84" rx="3" ry="3" style="stroke:#038048;stroke-width:1.0;"/><text fill="#000000" font-family="sans-serif" font-size="11" lengthAdjust="spacing" textLength="121" x="1434.5" y="916.5">reservar(nome: String)</text><!--MD5=[18826ddc68954886090dcda6a3a893a2]
class Bootstrap--><rect codeLine="54" fill="#FEFECE" filter="url(#fgavhneyynned)" height="60.9551" id="Bootstrap" style="stroke:#A80036;stroke-width:1.5;" width="89" x="1471" y="137.5"/><ellipse cx="1486.9" cy="153.5" fill="#ADD1B2" rx="11" ry="11" style="stroke:#A80036;stroke-width:1.0;"/><path d="M1489.3731,159.6431 Q1488.7921,159.9419 1488.1529,160.0913 Q1487.5138,160.2407 1486.8082,160.2407 Q1484.3014,160.2407 1482.9815,158.5889 Q1481.6617,156.937 1481.6617,153.8159 Q1481.6617,150.6865 1482.9815,149.0347 Q1484.3014,147.3828 1486.8082,147.3828 Q1487.5138,147.3828 1488.1612,147.5322 Q1488.8087,147.6816 1489.3731,147.9805 L1489.3731,150.7031 Q1488.7423,150.1221 1488.1488,149.8523 Q1487.5553,149.5825 1486.9244,149.5825 Q1485.5797,149.5825 1484.8949,150.6492 Q1484.2101,151.7158 1484.2101,153.8159 Q1484.2101,155.9077 1484.8949,156.9744 Q1485.5797,158.041 1486.9244,158.041 Q1487.5553,158.041 1488.1488,157.7712 Q1488.7423,157.5015 1489.3731,156.9204 Z " fill="#000000"/><text fill="#000000" font-family="sans-serif" font-size="12" lengthAdjust="spacing" textLength="55" x="1501.1" y="158.0352">Bootstrap</text><line style="stroke:#A80036;stroke-width:1.5;" x1="1472" x2="1559" y1="169.5" y2="169.5"/><line style="stroke:#A80036;stroke-width:1.5;" x1="1472" x2="1559" y1="177.5" y2="177.5"/><ellipse cx="1482" cy="188.5" fill="#84BE84" rx="3" ry="3" style="stroke:#038048;stroke-width:1.0;"/><text fill="#000000" font-family="sans-serif" font-size="11" lengthAdjust="spacing" textLength="63" x="1491" y="192.1348">main(): void</text><!--MD5=[0ebb1e4172d95877344b1d122ba82f65]
class MenuUi--><rect codeLine="58" fill="#FEFECE" filter="url(#fgavhneyynned)" height="138.6855" id="MenuUi" style="stroke:#A80036;stroke-width:1.5;" width="328" x="1351.5" y="265"/><ellipse cx="1490.25" cy="281" fill="#ADD1B2" rx="11" ry="11" style="stroke:#A80036;stroke-width:1.0;"/><path d="M1492.7231,287.1431 Q1492.1421,287.4419 1491.5029,287.5913 Q1490.8638,287.7407 1490.1582,287.7407 Q1487.6514,287.7407 1486.3315,286.0889 Q1485.0117,284.437 1485.0117,281.3159 Q1485.0117,278.1865 1486.3315,276.5347 Q1487.6514,274.8828 1490.1582,274.8828 Q1490.8638,274.8828 1491.5112,275.0322 Q1492.1587,275.1816 1492.7231,275.4805 L1492.7231,278.2031 Q1492.0923,277.6221 1491.4988,277.3523 Q1490.9053,277.0825 1490.2744,277.0825 Q1488.9297,277.0825 1488.2449,278.1492 Q1487.5601,279.2158 1487.5601,281.3159 Q1487.5601,283.4077 1488.2449,284.4744 Q1488.9297,285.541 1490.2744,285.541 Q1490.9053,285.541 1491.4988,285.2712 Q1492.0923,285.0015 1492.7231,284.4204 Z " fill="#000000"/><text fill="#000000" font-family="sans-serif" font-size="12" lengthAdjust="spacing" textLength="42" x="1510.75" y="285.5352">MenuUi</text><line style="stroke:#A80036;stroke-width:1.5;" x1="1352.5" x2="1678.5" y1="297" y2="297"/><rect fill="none" height="6" style="stroke:#C82930;stroke-width:1.0;" width="6" x="1359.5" y="305"/><text fill="#000000" font-family="sans-serif" font-size="11" lengthAdjust="spacing" textLength="121" x="1371.5" y="311.6348">itensMenu: ItemMenu[]</text><rect fill="none" height="6" style="stroke:#C82930;stroke-width:1.0;" width="6" x="1359.5" y="317.9551"/><text fill="#000000" font-family="sans-serif" font-size="11" lengthAdjust="spacing" textLength="69" x="1371.5" y="324.5898">sair: boolean</text><line style="stroke:#A80036;stroke-width:1.5;" x1="1352.5" x2="1678.5" y1="330.9102" y2="330.9102"/><ellipse cx="1362.5" cy="341.9102" fill="#84BE84" rx="3" ry="3" style="stroke:#038048;stroke-width:1.0;"/><text fill="#000000" font-family="sans-serif" font-size="11" lengthAdjust="spacing" textLength="302" x="1371.5" y="345.5449">MenuUi(opcoes: List&lt;ItemMenu&gt;, logger: SimpleLogger)</text><ellipse cx="1362.5" cy="354.8652" fill="#84BE84" rx="3" ry="3" style="stroke:#038048;stroke-width:1.0;"/><text fill="#000000" font-family="sans-serif" font-size="11" lengthAdjust="spacing" textLength="118" x="1371.5" y="358.5">mostrarOpcoes():void</text><ellipse cx="1362.5" cy="367.8203" fill="#84BE84" rx="3" ry="3" style="stroke:#038048;stroke-width:1.0;"/><text fill="#000000" font-family="sans-serif" font-size="11" lengthAdjust="spacing" textLength="89" x="1371.5" y="371.4551">selecionar():void</text><ellipse cx="1362.5" cy="380.7754" fill="#84BE84" rx="3" ry="3" style="stroke:#038048;stroke-width:1.0;"/><text fill="#000000" font-family="sans-serif" font-size="11" lengthAdjust="spacing" textLength="149" x="1371.5" y="384.4102">setSaida(deveSair: boolean);</text><ellipse cx="1362.5" cy="393.7305" fill="#84BE84" rx="3" ry="3" style="stroke:#038048;stroke-width:1.0;"/><text fill="#000000" font-family="sans-serif" font-size="11" lengthAdjust="spacing" textLength="102" x="1371.5" y="397.3652">getSaida(): boolean</text><!--MD5=[bdb0d5264d5285ca88e3d943d61c91d0]
class ItemMenu--><rect codeLine="69" fill="#FEFECE" filter="url(#fgavhneyynned)" height="125.7305" id="ItemMenu" style="stroke:#A80036;stroke-width:1.5;" width="384" x="1323.5" y="464"/><ellipse cx="1483.25" cy="480" fill="#ADD1B2" rx="11" ry="11" style="stroke:#A80036;stroke-width:1.0;"/><path d="M1485.7231,486.1431 Q1485.1421,486.4419 1484.5029,486.5913 Q1483.8638,486.7407 1483.1582,486.7407 Q1480.6514,486.7407 1479.3315,485.0889 Q1478.0117,483.437 1478.0117,480.3159 Q1478.0117,477.1865 1479.3315,475.5347 Q1480.6514,473.8828 1483.1582,473.8828 Q1483.8638,473.8828 1484.5112,474.0322 Q1485.1587,474.1816 1485.7231,474.4805 L1485.7231,477.2031 Q1485.0923,476.6221 1484.4988,476.3523 Q1483.9053,476.0825 1483.2744,476.0825 Q1481.9297,476.0825 1481.2449,477.1492 Q1480.5601,478.2158 1480.5601,480.3159 Q1480.5601,482.4077 1481.2449,483.4744 Q1481.9297,484.541 1483.2744,484.541 Q1483.9053,484.541 1484.4988,484.2712 Q1485.0923,484.0015 1485.7231,483.4204 Z " fill="#000000"/><text fill="#000000" font-family="sans-serif" font-size="12" lengthAdjust="spacing" textLength="56" x="1503.75" y="484.5352">ItemMenu</text><line style="stroke:#A80036;stroke-width:1.5;" x1="1324.5" x2="1706.5" y1="496" y2="496"/><rect fill="none" height="6" style="stroke:#C82930;stroke-width:1.0;" width="6" x="1331.5" y="504"/><text fill="#000000" font-family="sans-serif" font-size="11" lengthAdjust="spacing" textLength="90" x="1343.5" y="510.6348">descricao: String</text><rect fill="none" height="6" style="stroke:#C82930;stroke-width:1.0;" width="6" x="1331.5" y="516.9551"/><text fill="#000000" font-family="sans-serif" font-size="11" lengthAdjust="spacing" textLength="133" x="1343.5" y="523.5898">acao: Consumer&lt;Mapa&gt;</text><rect fill="none" height="6" style="stroke:#C82930;stroke-width:1.0;" width="6" x="1331.5" y="529.9102"/><text fill="#000000" font-family="sans-serif" font-size="11" lengthAdjust="spacing" textLength="63" x="1343.5" y="536.5449">mapa: Mapa</text><line style="stroke:#A80036;stroke-width:1.5;" x1="1324.5" x2="1706.5" y1="542.8652" y2="542.8652"/><ellipse cx="1334.5" cy="553.8652" fill="#84BE84" rx="3" ry="3" style="stroke:#038048;stroke-width:1.0;"/><text fill="#000000" font-family="sans-serif" font-size="11" lengthAdjust="spacing" textLength="358" x="1343.5" y="557.5">ItemMenu(descricao: String, mapa: Mapa, acao: Consumer&lt;Mapa&gt;)</text><ellipse cx="1334.5" cy="566.8203" fill="#84BE84" rx="3" ry="3" style="stroke:#038048;stroke-width:1.0;"/><text fill="#000000" font-family="sans-serif" font-size="11" lengthAdjust="spacing" textLength="55" x="1343.5" y="570.4551">executar()</text><ellipse cx="1334.5" cy="579.7754" fill="#84BE84" rx="3" ry="3" style="stroke:#038048;stroke-width:1.0;"/><text fill="#000000" font-family="sans-serif" font-size="11" lengthAdjust="spacing" textLength="116" x="1343.5" y="583.4102">getDescricao(): String</text><!--MD5=[0603ae878f71ab82772709d3913968d3]
reverse link Consumer to AcaoCancelar--><path d="M1132.08,64.8 C967.62,115.62 575.72,236.72 379.15,297.46 " fill="none" id="Consumer-backto-AcaoCancelar" style="stroke:#A80036;stroke-width:1.0;stroke-dasharray:7.0,7.0;"/><polygon fill="none" points="1130.04,58.11,1151.22,58.89,1134.17,71.48,1130.04,58.11" style="stroke:#A80036;stroke-width:1.0;"/><!--MD5=[feb28793003ee223401dbfcfeabc94f3]
reverse link Consumer to AcaoMostrar--><path d="M1207.5,91.2 C1207.5,149.75 1207.5,245.61 1207.5,297.47 " fill="none" id="Consumer-backto-AcaoMostrar" style="stroke:#A80036;stroke-width:1.0;stroke-dasharray:7.0,7.0;"/><polygon fill="none" points="1200.5,91.11,1207.5,71.11,1214.5,91.11,1200.5,91.11" style="stroke:#A80036;stroke-width:1.0;"/><!--MD5=[160a50239fe8e495143a8a5b9954a2ae]
reverse link Consumer to AcaoReservar--><path d="M1150.83,82.97 C1072.39,140.38 932.02,243.11 857.73,297.47 " fill="none" id="Consumer-backto-AcaoReservar" style="stroke:#A80036;stroke-width:1.0;stroke-dasharray:7.0,7.0;"/><polygon fill="none" points="1146.77,77.27,1167.05,71.11,1155.04,88.57,1146.77,77.27" style="stroke:#A80036;stroke-width:1.0;"/><!--MD5=[eaa2a5b12aa398adbd6bea8e56e06d92]
reverse link Consumer to AcaoSair--><path d="M1255.86,84.54 C1272.85,99.67 1291.76,116.5 1308.04,130.99 " fill="none" id="Consumer-backto-AcaoSair" style="stroke:#A80036;stroke-width:1.0;stroke-dasharray:7.0,7.0;"/><polygon fill="none" points="1251.2,89.77,1240.92,71.24,1260.51,79.31,1251.2,89.77" style="stroke:#A80036;stroke-width:1.0;"/><!--MD5=[c82825c07ef3fef35148e074bebf0522]
link Bootstrap to MenuUi--><path codeLine="85" d="M1515.5,198.79 C1515.5,215.85 1515.5,238.07 1515.5,259.53 " fill="none" id="Bootstrap-to-MenuUi" style="stroke:#A80036;stroke-width:1.0;stroke-dasharray:7.0,7.0;"/><polygon fill="#A80036" points="1515.5,264.68,1519.5,255.68,1515.5,259.68,1511.5,255.68,1515.5,264.68" style="stroke:#A80036;stroke-width:1.0;"/><!--MD5=[4347be571c1fccafbc0c94a3c83e434e]
link ItemMenu to Consumer--><path codeLine="86" d="M1643.81,463.93 C1665.4,447.54 1684.88,427.66 1697.5,404 C1726.58,349.5 1719.56,322.7 1697.5,265 C1668.95,190.33 1646.12,172.03 1577.5,131 C1479.67,72.51 1345.73,52.21 1268.73,45.19 " fill="none" id="ItemMenu-to-Consumer" style="stroke:#A80036;stroke-width:1.0;"/><polygon fill="#A80036" points="1263.74,44.74,1272.3508,49.5206,1268.7204,45.1824,1273.0586,41.552,1263.74,44.74" style="stroke:#A80036;stroke-width:1.0;"/><!--MD5=[752e92c7b61caf591817678ab2f572f9]
link AcaoCancelar to ExtratorDeCoordenadas--><path codeLine="87" d="M329.12,371.56 C394.42,406.9 493.01,460.25 555.54,494.09 " fill="none" id="AcaoCancelar-to-ExtratorDeCoordenadas" style="stroke:#A80036;stroke-width:1.0;stroke-dasharray:7.0,7.0;"/><polygon fill="#A80036" points="559.98,496.49,553.9854,488.6756,555.5878,494.1008,550.1626,495.7031,559.98,496.49" style="stroke:#A80036;stroke-width:1.0;"/><!--MD5=[ca7efdaa26145169a2468123746bea48]
link AcaoReservar to ExtratorDeCoordenadas--><path codeLine="88" d="M771.55,371.78 C736.02,406.67 682.76,458.97 648.32,492.79 " fill="none" id="AcaoReservar-to-ExtratorDeCoordenadas" style="stroke:#A80036;stroke-width:1.0;stroke-dasharray:7.0,7.0;"/><polygon fill="#A80036" points="644.63,496.42,653.8576,492.9775,648.2011,492.9204,648.2582,487.2638,644.63,496.42" style="stroke:#A80036;stroke-width:1.0;"/><!--MD5=[1a80ee487b37177f0e9d3f8ae1ed54a9]
link AcaoMostrar to SimpleLogger--><path codeLine="90" d="M1198.58,371.82 C1185.98,421.64 1161.36,513.71 1133.5,590 C1103.84,671.22 1061.87,762.17 1034.92,818.26 " fill="none" id="AcaoMostrar-to-SimpleLogger" style="stroke:#A80036;stroke-width:1.0;stroke-dasharray:7.0,7.0;"/><polygon fill="#A80036" points="1032.68,822.91,1040.1859,816.5334,1034.8474,818.4042,1032.9766,813.0656,1032.68,822.91" style="stroke:#A80036;stroke-width:1.0;"/><!--MD5=[70082e214a97a5575e4b5978bddf0d24]
link AcaoCancelar to SimpleLogger--><path codeLine="91" d="M291.37,371.61 C334.54,424.07 420.19,522.44 507.5,590 C630.98,685.55 790.61,769.62 896.12,820.56 " fill="none" id="AcaoCancelar-to-SimpleLogger" style="stroke:#A80036;stroke-width:1.0;stroke-dasharray:7.0,7.0;"/><polygon fill="#A80036" points="900.78,822.81,894.4034,815.3041,896.2742,820.6426,890.9356,822.5134,900.78,822.81" style="stroke:#A80036;stroke-width:1.0;"/><!--MD5=[70548ea6db3ddb3ebbd14bf9ad9fa67a]
link AcaoReservar to SimpleLogger--><path codeLine="92" d="M821.93,371.53 C856.32,463.79 947.7,708.9 988.42,818.14 " fill="none" id="AcaoReservar-to-SimpleLogger" style="stroke:#A80036;stroke-width:1.0;stroke-dasharray:7.0,7.0;"/><polygon fill="#A80036" points="990.21,822.93,990.8215,813.1001,988.4669,818.2437,983.3234,815.8891,990.21,822.93" style="stroke:#A80036;stroke-width:1.0;"/><!--MD5=[1d73efc0100556b0673e9adbabb5feca]
link AcaoSair to MenuUi--><path codeLine="94" d="M1385.15,205.1 C1401.8,221.5 1422.13,241.53 1441.73,260.84 " fill="none" id="AcaoSair-to-MenuUi" style="stroke:#A80036;stroke-width:1.0;stroke-dasharray:7.0,7.0;"/><polygon fill="#A80036" points="1445.64,264.69,1442.0305,255.5264,1442.0761,261.1831,1436.4194,261.2287,1445.64,264.69" style="stroke:#A80036;stroke-width:1.0;"/><!--MD5=[dfe55d0a29ee025e436a11a08b10be6d]
link AcaoMostrar to SimpleInput--><path codeLine="96" d="M1171.89,371.78 C1141.83,402.4 1098.61,446.43 1066.04,479.61 " fill="none" id="AcaoMostrar-to-SimpleInput" style="stroke:#A80036;stroke-width:1.0;stroke-dasharray:7.0,7.0;"/><polygon fill="#A80036" points="1062.52,483.19,1071.6762,479.5618,1066.0196,479.6189,1065.9625,473.9624,1062.52,483.19" style="stroke:#A80036;stroke-width:1.0;"/><!--MD5=[54c3eeba5d4732243504bf456ef6e97c]
link AcaoCancelar to SimpleInput--><path codeLine="97" d="M405.97,371.56 C555.97,409.26 787.54,467.45 919.42,500.6 " fill="none" id="AcaoCancelar-to-SimpleInput" style="stroke:#A80036;stroke-width:1.0;stroke-dasharray:7.0,7.0;"/><polygon fill="#A80036" points="924.46,501.86,916.7199,495.7697,919.6135,500.6305,914.7527,503.5241,924.46,501.86" style="stroke:#A80036;stroke-width:1.0;"/><!--MD5=[142aca98fee5109bc5d6eb9799b34ffb]
link AcaoReservar to SimpleInput--><path codeLine="98" d="M848.87,371.78 C882.95,402.4 931.95,446.43 968.88,479.61 " fill="none" id="AcaoReservar-to-SimpleInput" style="stroke:#A80036;stroke-width:1.0;stroke-dasharray:7.0,7.0;"/><polygon fill="#A80036" points="972.86,483.19,968.8462,474.1961,969.1435,479.8452,963.4945,480.1425,972.86,483.19" style="stroke:#A80036;stroke-width:1.0;"/><!--MD5=[2d7d7d0c0aab191cdfba1409514b5b58]
reverse link Mapa to Assento--><path codeLine="102" d="M1491.5,776.65 C1491.5,792.22 1491.5,808.43 1491.5,822.98 " fill="none" id="Mapa-backto-Assento" style="stroke:#A80036;stroke-width:1.0;"/><polygon fill="#A80036" points="1491.5,763.19,1487.5,769.19,1491.5,775.19,1495.5,769.19,1491.5,763.19" style="stroke:#A80036;stroke-width:1.0;"/><!--MD5=[6f01cae042a16ba3466b5536e20c5a10]
link MenuUi to SimpleInput--><path codeLine="103" d="M1351.36,398.67 C1275.37,427.91 1187.51,461.73 1121.43,487.16 " fill="none" id="MenuUi-to-SimpleInput" style="stroke:#A80036;stroke-width:1.0;stroke-dasharray:7.0,7.0;"/><polygon fill="#A80036" points="1116.71,488.97,1126.5463,489.4665,1121.3756,487.1722,1123.6699,482.0015,1116.71,488.97" style="stroke:#A80036;stroke-width:1.0;"/><!--MD5=[5c4528e3dc62434a9f91309bee24bee4]
link Mapa to SimpleLogger--><path codeLine="104" d="M1328.31,763.08 C1264.94,784.66 1193.49,808.99 1134.23,829.18 " fill="none" id="Mapa-to-SimpleLogger" style="stroke:#A80036;stroke-width:1.0;stroke-dasharray:7.0,7.0;"/><polygon fill="#A80036" points="1129.26,830.87,1139.0689,831.7568,1133.9933,829.259,1136.4912,824.1834,1129.26,830.87" style="stroke:#A80036;stroke-width:1.0;"/><!--MD5=[95dae0b34a32b4d90c899a34aab2c92e]
link MenuUi to ItemMenu--><path codeLine="105" d="M1515.5,404.01 C1515.5,421.7 1515.5,440.73 1515.5,458.37 " fill="none" id="MenuUi-to-ItemMenu" style="stroke:#A80036;stroke-width:1.0;"/><polygon fill="#A80036" points="1515.5,463.8,1519.5,454.8,1515.5,458.8,1511.5,454.8,1515.5,463.8" style="stroke:#A80036;stroke-width:1.0;"/><!--MD5=[278f06b8f5481057589d1ad33c4268e4]
link ItemMenu to Mapa--><path codeLine="106" d="M1507.11,590.08 C1504.72,607.75 1502.12,626.97 1499.74,644.57 " fill="none" id="ItemMenu-to-Mapa" style="stroke:#A80036;stroke-width:1.0;"/><polygon fill="#A80036" points="1499.01,649.97,1504.1818,641.5883,1499.6811,645.0152,1496.2542,640.5146,1499.01,649.97" style="stroke:#A80036;stroke-width:1.0;"/><!--MD5=[d86f23c0c8fcb728101eee12e022308a]
@startuml cinema

class SimpleLogger {
  + SimpleLogger(printStream: PrintStream);
  + imprimirLinha(texto: String);
  + imprimir(text: String);
  + quebrarLinha();
}

class SimpleInput {
  + SimpleInput(scanner: Scanner);
  + lerLinha(): String
  + lerInteiro(): int
}

class ExtratorDeCoordenadas {
  + extrair(posicao: String): int[]
}

class AcaoCancelar implements Consumer {
  + AcaoCancelar(input: SimpleInput, logger: SimpleLogger, extrator: ExtratorDeCoordenadas)
  + accept(mapa: Mapa)
}

class AcaoMostrar implements Consumer {
  + AcaoMostrar(logger: SimpleLogger)
  + accept(mapa: Mapa)
}

class AcaoReservar implements Consumer {
  + AcaoReservar(input: SimpleInput, logger: SimpleLogger, extrator: ExtratorDeCoordenadas)
  + accept(mapa: Mapa)
}

class AcaoSair implements Consumer {
  + AcaoSair(ui: MenuUi)
  + accept(mapa: Mapa)
}

class Mapa {
  - assentos: Assento[][]
  + Mapa(logger: SimpleLogger, tamanhoVertical: int, tamanhoHorizontal int)
  + reservar(nome: String, fileira: int, coluna: int)
  + cancelar(fileira: int, coluna: int)
  + mostrar()
}

class Assento {
  - nome: String
  + estaOcupado(): boolean
  + getNome() : String
  + reservar(nome: String)
}

class Bootstrap {
  + main(): void
}

class MenuUi {
  - itensMenu: ItemMenu[]
  - sair: boolean

  + MenuUi(opcoes: List<ItemMenu>, logger: SimpleLogger)
  + mostrarOpcoes():void 
  + selecionar():void
  + setSaida(deveSair: boolean);
  + getSaida(): boolean
}

class ItemMenu {
  - descricao: String
  - acao: Consumer<Mapa>
  - mapa: Mapa

  + ItemMenu(descricao: String, mapa: Mapa, acao: Consumer<Mapa>)
  + executar()
  + getDescricao(): String
}

interface Consumer<T> {

  + accept(object T)
}


Bootstrap ..> MenuUi
ItemMenu - -> Consumer
AcaoCancelar ..> ExtratorDeCoordenadas
AcaoReservar ..> ExtratorDeCoordenadas

AcaoMostrar ..> SimpleLogger
AcaoCancelar ..> SimpleLogger
AcaoReservar ..> SimpleLogger

AcaoSair ..> MenuUi

AcaoMostrar ..> SimpleInput
AcaoCancelar ..> SimpleInput
AcaoReservar ..> SimpleInput



Mapa *- - Assento
MenuUi ..> SimpleInput
Mapa ..> SimpleLogger
MenuUi - -> ItemMenu
ItemMenu - -> Mapa



@enduml

PlantUML version 1.2022.0(Tue Jan 11 13:16:42 BRT 2022)
(GPL source distribution)
Java Runtime: OpenJDK Runtime Environment
JVM: OpenJDK 64-Bit Server VM
Default Encoding: UTF-8
Language: en
Country: BR
--></g></svg>