<?xml version="1.0" encoding="UTF-8" standalone="no"?><svg xmlns="http://www.w3.org/2000/svg" xmlns:xlink="http://www.w3.org/1999/xlink" contentScriptType="application/ecmascript" contentStyleType="text/css" height="695px" preserveAspectRatio="none" style="width:405px;height:695px;background:#FFFFFF;" version="1.1" viewBox="0 0 405 695" width="405px" zoomAndPan="magnify"><defs><filter height="300%" id="fm8gc7fqx1wve" width="300%" x="-1" y="-1"><feGaussianBlur result="blurOut" stdDeviation="2.0"/><feColorMatrix in="blurOut" result="blurOut2" type="matrix" values="0 0 0 0 0 0 0 0 0 0 0 0 0 0 0 0 0 0 .4 0"/><feOffset dx="4.0" dy="4.0" in="blurOut2" result="blurOut3"/><feBlend in="SourceGraphic" in2="blurOut3" mode="normal"/></filter></defs><g><!--MD5=[3858b4c47ad31b7fe669860596063bee]
class Mapa--><rect codeLine="2" fill="#FEFECE" filter="url(#fm8gc7fqx1wve)" height="86.8652" id="Mapa" style="stroke:#A80036;stroke-width:1.5;" width="265" x="66.5" y="435"/><ellipse cx="178.75" cy="451" fill="#ADD1B2" rx="11" ry="11" style="stroke:#A80036;stroke-width:1.0;"/><path d="M181.2231,457.1431 Q180.6421,457.4419 180.0029,457.5913 Q179.3638,457.7407 178.6582,457.7407 Q176.1514,457.7407 174.8315,456.0889 Q173.5117,454.437 173.5117,451.3159 Q173.5117,448.1865 174.8315,446.5347 Q176.1514,444.8828 178.6582,444.8828 Q179.3638,444.8828 180.0112,445.0322 Q180.6587,445.1816 181.2231,445.4805 L181.2231,448.2031 Q180.5923,447.6221 179.9988,447.3523 Q179.4053,447.0825 178.7744,447.0825 Q177.4297,447.0825 176.7449,448.1492 Q176.0601,449.2158 176.0601,451.3159 Q176.0601,453.4077 176.7449,454.4744 Q177.4297,455.541 178.7744,455.541 Q179.4053,455.541 179.9988,455.2712 Q180.5923,455.0015 181.2231,454.4204 Z " fill="#000000"/><text fill="#000000" font-family="sans-serif" font-size="12" lengthAdjust="spacing" textLength="32" x="199.25" y="455.5352">Mapa</text><line style="stroke:#A80036;stroke-width:1.5;" x1="67.5" x2="330.5" y1="467" y2="467"/><rect fill="none" height="6" style="stroke:#C82930;stroke-width:1.0;" width="6" x="74.5" y="475"/><text fill="#000000" font-family="sans-serif" font-size="11" lengthAdjust="spacing" textLength="114" x="86.5" y="481.6348">assentos: Assento[][]</text><line style="stroke:#A80036;stroke-width:1.5;" x1="67.5" x2="330.5" y1="487.9551" y2="487.9551"/><ellipse cx="77.5" cy="498.9551" fill="#84BE84" rx="3" ry="3" style="stroke:#038048;stroke-width:1.0;"/><text fill="#000000" font-family="sans-serif" font-size="11" lengthAdjust="spacing" textLength="103" x="86.5" y="502.5898">Mapa(tamanho: int)</text><ellipse cx="77.5" cy="511.9102" fill="#84BE84" rx="3" ry="3" style="stroke:#038048;stroke-width:1.0;"/><text fill="#000000" font-family="sans-serif" font-size="11" lengthAdjust="spacing" textLength="239" x="86.5" y="515.5449">reservar(nome: String, fileira: int, coluna: int)</text><!--MD5=[a4138113a6253bbecb434f76d3ecb3ea]
class Assento--><rect codeLine="8" fill="#FEFECE" filter="url(#fm8gc7fqx1wve)" height="99.8203" id="Assento" style="stroke:#A80036;stroke-width:1.5;" width="154" x="122" y="582"/><ellipse cx="172.25" cy="598" fill="#ADD1B2" rx="11" ry="11" style="stroke:#A80036;stroke-width:1.0;"/><path d="M174.7231,604.1431 Q174.1421,604.4419 173.5029,604.5913 Q172.8638,604.7407 172.1582,604.7407 Q169.6514,604.7407 168.3315,603.0889 Q167.0117,601.437 167.0117,598.3159 Q167.0117,595.1865 168.3315,593.5347 Q169.6514,591.8828 172.1582,591.8828 Q172.8638,591.8828 173.5112,592.0322 Q174.1587,592.1816 174.7231,592.4805 L174.7231,595.2031 Q174.0923,594.6221 173.4988,594.3523 Q172.9053,594.0825 172.2744,594.0825 Q170.9297,594.0825 170.2449,595.1492 Q169.5601,596.2158 169.5601,598.3159 Q169.5601,600.4077 170.2449,601.4744 Q170.9297,602.541 172.2744,602.541 Q172.9053,602.541 173.4988,602.2712 Q174.0923,602.0015 174.7231,601.4204 Z " fill="#000000"/><text fill="#000000" font-family="sans-serif" font-size="12" lengthAdjust="spacing" textLength="45" x="192.75" y="602.5352">Assento</text><line style="stroke:#A80036;stroke-width:1.5;" x1="123" x2="275" y1="614" y2="614"/><rect fill="none" height="6" style="stroke:#C82930;stroke-width:1.0;" width="6" x="130" y="622"/><text fill="#000000" font-family="sans-serif" font-size="11" lengthAdjust="spacing" textLength="68" x="142" y="628.6348">nome: String</text><line style="stroke:#A80036;stroke-width:1.5;" x1="123" x2="275" y1="634.9551" y2="634.9551"/><ellipse cx="133" cy="645.9551" fill="#84BE84" rx="3" ry="3" style="stroke:#038048;stroke-width:1.0;"/><text fill="#000000" font-family="sans-serif" font-size="11" lengthAdjust="spacing" textLength="52" x="142" y="649.5898">Assento()</text><ellipse cx="133" cy="658.9102" fill="#84BE84" rx="3" ry="3" style="stroke:#038048;stroke-width:1.0;"/><text fill="#000000" font-family="sans-serif" font-size="11" lengthAdjust="spacing" textLength="128" x="142" y="662.5449">estaOcupado(): boolean</text><ellipse cx="133" cy="671.8652" fill="#84BE84" rx="3" ry="3" style="stroke:#038048;stroke-width:1.0;"/><text fill="#000000" font-family="sans-serif" font-size="11" lengthAdjust="spacing" textLength="121" x="142" y="675.5">reservar(nome: String)</text><!--MD5=[18826ddc68954886090dcda6a3a893a2]
class Bootstrap--><rect codeLine="15" fill="#FEFECE" filter="url(#fm8gc7fqx1wve)" height="60.9551" id="Bootstrap" style="stroke:#A80036;stroke-width:1.5;" width="89" x="154.5" y="7"/><ellipse cx="170.4" cy="23" fill="#ADD1B2" rx="11" ry="11" style="stroke:#A80036;stroke-width:1.0;"/><path d="M172.8731,29.1431 Q172.2921,29.4419 171.6529,29.5913 Q171.0138,29.7407 170.3082,29.7407 Q167.8014,29.7407 166.4815,28.0889 Q165.1617,26.437 165.1617,23.3159 Q165.1617,20.1865 166.4815,18.5347 Q167.8014,16.8828 170.3082,16.8828 Q171.0138,16.8828 171.6612,17.0322 Q172.3087,17.1816 172.8731,17.4805 L172.8731,20.2031 Q172.2423,19.6221 171.6488,19.3523 Q171.0553,19.0825 170.4244,19.0825 Q169.0797,19.0825 168.3949,20.1492 Q167.7101,21.2158 167.7101,23.3159 Q167.7101,25.4077 168.3949,26.4744 Q169.0797,27.541 170.4244,27.541 Q171.0553,27.541 171.6488,27.2712 Q172.2423,27.0015 172.8731,26.4204 Z " fill="#000000"/><text fill="#000000" font-family="sans-serif" font-size="12" lengthAdjust="spacing" textLength="55" x="184.6" y="27.5352">Bootstrap</text><line style="stroke:#A80036;stroke-width:1.5;" x1="155.5" x2="242.5" y1="39" y2="39"/><line style="stroke:#A80036;stroke-width:1.5;" x1="155.5" x2="242.5" y1="47" y2="47"/><ellipse cx="165.5" cy="58" fill="#84BE84" rx="3" ry="3" style="stroke:#038048;stroke-width:1.0;"/><text fill="#000000" font-family="sans-serif" font-size="11" lengthAdjust="spacing" textLength="63" x="174.5" y="61.6348">main(): void</text><!--MD5=[0ebb1e4172d95877344b1d122ba82f65]
class MenuUi--><rect codeLine="19" fill="#FEFECE" filter="url(#fm8gc7fqx1wve)" height="86.8652" id="MenuUi" style="stroke:#A80036;stroke-width:1.5;" width="150" x="124" y="128"/><ellipse cx="173.75" cy="144" fill="#ADD1B2" rx="11" ry="11" style="stroke:#A80036;stroke-width:1.0;"/><path d="M176.2231,150.1431 Q175.6421,150.4419 175.0029,150.5913 Q174.3638,150.7407 173.6582,150.7407 Q171.1514,150.7407 169.8315,149.0889 Q168.5117,147.437 168.5117,144.3159 Q168.5117,141.1865 169.8315,139.5347 Q171.1514,137.8828 173.6582,137.8828 Q174.3638,137.8828 175.0112,138.0322 Q175.6587,138.1816 176.2231,138.4805 L176.2231,141.2031 Q175.5923,140.6221 174.9988,140.3523 Q174.4053,140.0825 173.7744,140.0825 Q172.4297,140.0825 171.7449,141.1492 Q171.0601,142.2158 171.0601,144.3159 Q171.0601,146.4077 171.7449,147.4744 Q172.4297,148.541 173.7744,148.541 Q174.4053,148.541 174.9988,148.2712 Q175.5923,148.0015 176.2231,147.4204 Z " fill="#000000"/><text fill="#000000" font-family="sans-serif" font-size="12" lengthAdjust="spacing" textLength="42" x="194.25" y="148.5352">MenuUi</text><line style="stroke:#A80036;stroke-width:1.5;" x1="125" x2="273" y1="160" y2="160"/><rect fill="none" height="6" style="stroke:#C82930;stroke-width:1.0;" width="6" x="132" y="168"/><text fill="#000000" font-family="sans-serif" font-size="11" lengthAdjust="spacing" textLength="121" x="144" y="174.6348">itensMenu: ItemMenu[]</text><line style="stroke:#A80036;stroke-width:1.5;" x1="125" x2="273" y1="180.9551" y2="180.9551"/><ellipse cx="135" cy="191.9551" fill="#84BE84" rx="3" ry="3" style="stroke:#038048;stroke-width:1.0;"/><text fill="#000000" font-family="sans-serif" font-size="11" lengthAdjust="spacing" textLength="118" x="144" y="195.5898">mostrarOpcoes():void</text><ellipse cx="135" cy="204.9102" fill="#84BE84" rx="3" ry="3" style="stroke:#038048;stroke-width:1.0;"/><text fill="#000000" font-family="sans-serif" font-size="11" lengthAdjust="spacing" textLength="124" x="144" y="208.5449">selecionarOpcao():void</text><!--MD5=[bdb0d5264d5285ca88e3d943d61c91d0]
class ItemMenu--><rect codeLine="25" fill="#FEFECE" filter="url(#fm8gc7fqx1wve)" height="99.8203" id="ItemMenu" style="stroke:#A80036;stroke-width:1.5;" width="384" x="7" y="275"/><ellipse cx="166.75" cy="291" fill="#ADD1B2" rx="11" ry="11" style="stroke:#A80036;stroke-width:1.0;"/><path d="M169.2231,297.1431 Q168.6421,297.4419 168.0029,297.5913 Q167.3638,297.7407 166.6582,297.7407 Q164.1514,297.7407 162.8315,296.0889 Q161.5117,294.437 161.5117,291.3159 Q161.5117,288.1865 162.8315,286.5347 Q164.1514,284.8828 166.6582,284.8828 Q167.3638,284.8828 168.0112,285.0322 Q168.6587,285.1816 169.2231,285.4805 L169.2231,288.2031 Q168.5923,287.6221 167.9988,287.3523 Q167.4053,287.0825 166.7744,287.0825 Q165.4297,287.0825 164.7449,288.1492 Q164.0601,289.2158 164.0601,291.3159 Q164.0601,293.4077 164.7449,294.4744 Q165.4297,295.541 166.7744,295.541 Q167.4053,295.541 167.9988,295.2712 Q168.5923,295.0015 169.2231,294.4204 Z " fill="#000000"/><text fill="#000000" font-family="sans-serif" font-size="12" lengthAdjust="spacing" textLength="56" x="187.25" y="295.5352">ItemMenu</text><line style="stroke:#A80036;stroke-width:1.5;" x1="8" x2="390" y1="307" y2="307"/><rect fill="none" height="6" style="stroke:#C82930;stroke-width:1.0;" width="6" x="15" y="315"/><text fill="#000000" font-family="sans-serif" font-size="11" lengthAdjust="spacing" textLength="90" x="27" y="321.6348">descricao: String</text><rect fill="none" height="6" style="stroke:#C82930;stroke-width:1.0;" width="6" x="15" y="327.9551"/><text fill="#000000" font-family="sans-serif" font-size="11" lengthAdjust="spacing" textLength="133" x="27" y="334.5898">acao: Consumer&lt;Mapa&gt;</text><rect fill="none" height="6" style="stroke:#C82930;stroke-width:1.0;" width="6" x="15" y="340.9102"/><text fill="#000000" font-family="sans-serif" font-size="11" lengthAdjust="spacing" textLength="63" x="27" y="347.5449">mapa: Mapa</text><line style="stroke:#A80036;stroke-width:1.5;" x1="8" x2="390" y1="353.8652" y2="353.8652"/><ellipse cx="18" cy="364.8652" fill="#84BE84" rx="3" ry="3" style="stroke:#038048;stroke-width:1.0;"/><text fill="#000000" font-family="sans-serif" font-size="11" lengthAdjust="spacing" textLength="358" x="27" y="368.5">ItemMenu(descricao: String, mapa: Mapa, acao: Consumer&lt;Mapa&gt;)</text><!--MD5=[c82825c07ef3fef35148e074bebf0522]
link Bootstrap to MenuUi--><path codeLine="34" d="M199,68.12 C199,84.24 199,104.57 199,122.86 " fill="none" id="Bootstrap-to-MenuUi" style="stroke:#A80036;stroke-width:1.0;stroke-dasharray:7.0,7.0;"/><polygon fill="#A80036" points="199,127.96,203,118.96,199,122.96,195,118.96,199,127.96" style="stroke:#A80036;stroke-width:1.0;"/><!--MD5=[2d7d7d0c0aab191cdfba1409514b5b58]
reverse link Mapa to Assento--><path codeLine="36" d="M199,535.16 C199,550.43 199,566.88 199,581.76 " fill="none" id="Mapa-backto-Assento" style="stroke:#A80036;stroke-width:1.0;"/><polygon fill="#A80036" points="199,522.1,195,528.1,199,534.1,203,528.1,199,522.1" style="stroke:#A80036;stroke-width:1.0;"/><!--MD5=[95dae0b34a32b4d90c899a34aab2c92e]
link MenuUi to ItemMenu--><path codeLine="37" d="M199,215.1 C199,232.06 199,251.78 199,269.75 " fill="none" id="MenuUi-to-ItemMenu" style="stroke:#A80036;stroke-width:1.0;"/><polygon fill="#A80036" points="199,274.76,203,265.76,199,269.76,195,265.76,199,274.76" style="stroke:#A80036;stroke-width:1.0;"/><!--MD5=[278f06b8f5481057589d1ad33c4268e4]
link ItemMenu to Mapa--><path codeLine="38" d="M199,375.19 C199,392.65 199,412.27 199,429.62 " fill="none" id="ItemMenu-to-Mapa" style="stroke:#A80036;stroke-width:1.0;"/><polygon fill="#A80036" points="199,434.92,203,425.92,199,429.92,195,425.92,199,434.92" style="stroke:#A80036;stroke-width:1.0;"/><!--MD5=[54a6e05d3b5182f396995eddbb738efe]
@startuml cinema

class Mapa {
  - assentos: Assento[][]
  + Mapa(tamanho: int)
  + reservar(nome: String, fileira: int, coluna: int)
}

class Assento {
  - nome: String
  + Assento()
  + estaOcupado(): boolean
  + reservar(nome: String)
}

class Bootstrap {
  + main(): void
}

class MenuUi {
  - itensMenu: ItemMenu[]
  + mostrarOpcoes():void 
  + selecionarOpcao():void
}

class ItemMenu {
  - descricao: String
  - acao: Consumer<Mapa>
  - mapa: Mapa

  + ItemMenu(descricao: String, mapa: Mapa, acao: Consumer<Mapa>)
}


Bootstrap ..> MenuUi
' Bootstrap ..> ConversorDeColuna
Mapa *- - Assento
MenuUi - -> ItemMenu
ItemMenu - -> Mapa



@enduml

@startuml cinema

class Mapa {
  - assentos: Assento[][]
  + Mapa(tamanho: int)
  + reservar(nome: String, fileira: int, coluna: int)
}

class Assento {
  - nome: String
  + Assento()
  + estaOcupado(): boolean
  + reservar(nome: String)
}

class Bootstrap {
  + main(): void
}

class MenuUi {
  - itensMenu: ItemMenu[]
  + mostrarOpcoes():void 
  + selecionarOpcao():void
}

class ItemMenu {
  - descricao: String
  - acao: Consumer<Mapa>
  - mapa: Mapa

  + ItemMenu(descricao: String, mapa: Mapa, acao: Consumer<Mapa>)
}


Bootstrap ..> MenuUi
Mapa *- - Assento
MenuUi - -> ItemMenu
ItemMenu - -> Mapa



@enduml

PlantUML version 1.2022.0(Tue Jan 11 13:16:42 BRT 2022)
(GPL source distribution)
Java Runtime: OpenJDK Runtime Environment
JVM: OpenJDK 64-Bit Server VM
Default Encoding: UTF-8
Language: en
Country: BR
--></g></svg>