<?xml version="1.0" encoding="UTF-8" standalone="no"?><svg xmlns="http://www.w3.org/2000/svg" xmlns:xlink="http://www.w3.org/1999/xlink" contentScriptType="application/ecmascript" contentStyleType="text/css" height="728px" preserveAspectRatio="none" style="width:1190px;height:728px;background:#FFFFFF;" version="1.1" viewBox="0 0 1190 728" width="1190px" zoomAndPan="magnify"><defs><filter height="300%" id="ff4q4hr2tzkog" width="300%" x="-1" y="-1"><feGaussianBlur result="blurOut" stdDeviation="2.0"/><feColorMatrix in="blurOut" result="blurOut2" type="matrix" values="0 0 0 0 0 0 0 0 0 0 0 0 0 0 0 0 0 0 .4 0"/><feOffset dx="4.0" dy="4.0" in="blurOut2" result="blurOut3"/><feBlend in="SourceGraphic" in2="blurOut3" mode="normal"/></filter></defs><g><!--MD5=[be48e98a4ad7f5f2a1ba2465e5010d2c]
cluster helper--><polygon fill="#FFFFFF" filter="url(#ff4q4hr2tzkog)" points="16,580,67,580,74,602.4883,438,602.4883,438,721,16,721,16,580" style="stroke:#000000;stroke-width:1.5;"/><line style="stroke:#000000;stroke-width:1.5;" x1="16" x2="74" y1="602.4883" y2="602.4883"/><text fill="#000000" font-family="sans-serif" font-size="14" font-weight="bold" lengthAdjust="spacing" textLength="45" x="20" y="595.5352">helper</text><!--MD5=[b461637e81ce7210cdb994ce8bfacdcf]
cluster acoes--><polygon fill="#FFFFFF" filter="url(#ff4q4hr2tzkog)" points="16,386,62,386,69,408.4883,1173,408.4883,1173,540,16,540,16,386" style="stroke:#000000;stroke-width:1.5;"/><line style="stroke:#000000;stroke-width:1.5;" x1="16" x2="69" y1="408.4883" y2="408.4883"/><text fill="#000000" font-family="sans-serif" font-size="14" font-weight="bold" lengthAdjust="spacing" textLength="40" x="20" y="401.5352">acoes</text><!--MD5=[bcd645a24a7aa549381c6f2be29e5165]
class SimpleLogger--><rect codeLine="24" fill="#FEFECE" filter="url(#ff4q4hr2tzkog)" height="73.9102" id="SimpleLogger" style="stroke:#A80036;stroke-width:1.5;" width="204" x="210" y="623"/><ellipse cx="269.25" cy="639" fill="#ADD1B2" rx="11" ry="11" style="stroke:#A80036;stroke-width:1.0;"/><path d="M271.7231,645.1431 Q271.1421,645.4419 270.5029,645.5913 Q269.8638,645.7407 269.1582,645.7407 Q266.6514,645.7407 265.3315,644.0889 Q264.0117,642.437 264.0117,639.3159 Q264.0117,636.1865 265.3315,634.5347 Q266.6514,632.8828 269.1582,632.8828 Q269.8638,632.8828 270.5112,633.0322 Q271.1587,633.1816 271.7231,633.4805 L271.7231,636.2031 Q271.0923,635.6221 270.4988,635.3523 Q269.9053,635.0825 269.2744,635.0825 Q267.9297,635.0825 267.2449,636.1492 Q266.5601,637.2158 266.5601,639.3159 Q266.5601,641.4077 267.2449,642.4744 Q267.9297,643.541 269.2744,643.541 Q269.9053,643.541 270.4988,643.2712 Q271.0923,643.0015 271.7231,642.4204 Z " fill="#000000"/><text fill="#000000" font-family="sans-serif" font-size="12" lengthAdjust="spacing" textLength="77" x="289.75" y="643.5352">SimpleLogger</text><line style="stroke:#A80036;stroke-width:1.5;" x1="211" x2="413" y1="655" y2="655"/><line style="stroke:#A80036;stroke-width:1.5;" x1="211" x2="413" y1="663" y2="663"/><ellipse cx="221" cy="674" fill="#84BE84" rx="3" ry="3" style="stroke:#038048;stroke-width:1.0;"/><text fill="#000000" font-family="sans-serif" font-size="11" lengthAdjust="spacing" textLength="178" x="230" y="677.6348">imprimirLinha(texto: String): void</text><ellipse cx="221" cy="686.9551" fill="#84BE84" rx="3" ry="3" style="stroke:#038048;stroke-width:1.0;"/><text fill="#000000" font-family="sans-serif" font-size="11" lengthAdjust="spacing" textLength="149" x="230" y="690.5898">imprimir(texto: String): void</text><!--MD5=[b80c6f0a6b96ead0571de96351b47769]
class SimpleInput--><rect codeLine="29" fill="#FEFECE" filter="url(#ff4q4hr2tzkog)" height="73.9102" id="SimpleInput" style="stroke:#A80036;stroke-width:1.5;" width="115" x="59.5" y="623"/><ellipse cx="81.7" cy="639" fill="#ADD1B2" rx="11" ry="11" style="stroke:#A80036;stroke-width:1.0;"/><path d="M84.1731,645.1431 Q83.5921,645.4419 82.9529,645.5913 Q82.3138,645.7407 81.6082,645.7407 Q79.1014,645.7407 77.7815,644.0889 Q76.4617,642.437 76.4617,639.3159 Q76.4617,636.1865 77.7815,634.5347 Q79.1014,632.8828 81.6082,632.8828 Q82.3138,632.8828 82.9612,633.0322 Q83.6087,633.1816 84.1731,633.4805 L84.1731,636.2031 Q83.5423,635.6221 82.9488,635.3523 Q82.3553,635.0825 81.7244,635.0825 Q80.3797,635.0825 79.6949,636.1492 Q79.0101,637.2158 79.0101,639.3159 Q79.0101,641.4077 79.6949,642.4744 Q80.3797,643.541 81.7244,643.541 Q82.3553,643.541 82.9488,643.2712 Q83.5423,643.0015 84.1731,642.4204 Z " fill="#000000"/><text fill="#000000" font-family="sans-serif" font-size="12" lengthAdjust="spacing" textLength="67" x="97.3" y="643.5352">SimpleInput</text><line style="stroke:#A80036;stroke-width:1.5;" x1="60.5" x2="173.5" y1="655" y2="655"/><line style="stroke:#A80036;stroke-width:1.5;" x1="60.5" x2="173.5" y1="663" y2="663"/><ellipse cx="70.5" cy="674" fill="#84BE84" rx="3" ry="3" style="stroke:#038048;stroke-width:1.0;"/><text fill="#000000" font-family="sans-serif" font-size="11" lengthAdjust="spacing" textLength="89" x="79.5" y="677.6348">lerLinha(): String</text><ellipse cx="70.5" cy="686.9551" fill="#84BE84" rx="3" ry="3" style="stroke:#038048;stroke-width:1.0;"/><text fill="#000000" font-family="sans-serif" font-size="11" lengthAdjust="spacing" textLength="77" x="79.5" y="690.5898">lerInteiro(): int</text><!--MD5=[cff6ef18e58ad8f957e2a6894e086de6]
class AdicionarProduto--><rect codeLine="37" fill="#FEFECE" filter="url(#ff4q4hr2tzkog)" height="86.8652" id="AdicionarProduto" style="stroke:#A80036;stroke-width:1.5;" width="190" x="734" y="429"/><ellipse cx="775.55" cy="445" fill="#ADD1B2" rx="11" ry="11" style="stroke:#A80036;stroke-width:1.0;"/><path d="M778.0231,451.1431 Q777.4421,451.4419 776.8029,451.5913 Q776.1638,451.7407 775.4582,451.7407 Q772.9514,451.7407 771.6315,450.0889 Q770.3117,448.437 770.3117,445.3159 Q770.3117,442.1865 771.6315,440.5347 Q772.9514,438.8828 775.4582,438.8828 Q776.1638,438.8828 776.8112,439.0322 Q777.4587,439.1816 778.0231,439.4805 L778.0231,442.2031 Q777.3923,441.6221 776.7988,441.3523 Q776.2053,441.0825 775.5744,441.0825 Q774.2297,441.0825 773.5449,442.1492 Q772.8601,443.2158 772.8601,445.3159 Q772.8601,447.4077 773.5449,448.4744 Q774.2297,449.541 775.5744,449.541 Q776.2053,449.541 776.7988,449.2712 Q777.3923,449.0015 778.0231,448.4204 Z " fill="#000000"/><text fill="#000000" font-family="sans-serif" font-size="12" lengthAdjust="spacing" textLength="99" x="795.45" y="449.5352">AdicionarProduto</text><line style="stroke:#A80036;stroke-width:1.5;" x1="735" x2="923" y1="461" y2="461"/><rect fill="none" height="6" style="stroke:#C82930;stroke-width:1.0;" width="6" x="742" y="469"/><text fill="#000000" font-family="sans-serif" font-size="11" lengthAdjust="spacing" textLength="114" x="754" y="475.6348">logger: SimpleLogger</text><rect fill="none" height="6" style="stroke:#C82930;stroke-width:1.0;" width="6" x="742" y="481.9551"/><text fill="#000000" font-family="sans-serif" font-size="11" lengthAdjust="spacing" textLength="97" x="754" y="488.5898">input: SimpleInput</text><line style="stroke:#A80036;stroke-width:1.5;" x1="735" x2="923" y1="494.9102" y2="494.9102"/><ellipse cx="745" cy="505.9102" fill="#84BE84" rx="3" ry="3" style="stroke:#038048;stroke-width:1.0;"/><text fill="#000000" font-family="sans-serif" font-size="11" lengthAdjust="spacing" textLength="164" x="754" y="509.5449">accept(estoque: Estoque): void</text><!--MD5=[8cae91255190f767c455af1e5b8138a2]
class AdicionarQuantidade--><rect codeLine="44" fill="#FEFECE" filter="url(#ff4q4hr2tzkog)" height="86.8652" id="AdicionarQuantidade" style="stroke:#A80036;stroke-width:1.5;" width="190" x="509" y="429"/><ellipse cx="540.65" cy="445" fill="#ADD1B2" rx="11" ry="11" style="stroke:#A80036;stroke-width:1.0;"/><path d="M543.1231,451.1431 Q542.5421,451.4419 541.9029,451.5913 Q541.2638,451.7407 540.5582,451.7407 Q538.0514,451.7407 536.7315,450.0889 Q535.4117,448.437 535.4117,445.3159 Q535.4117,442.1865 536.7315,440.5347 Q538.0514,438.8828 540.5582,438.8828 Q541.2638,438.8828 541.9112,439.0322 Q542.5587,439.1816 543.1231,439.4805 L543.1231,442.2031 Q542.4923,441.6221 541.8988,441.3523 Q541.3053,441.0825 540.6744,441.0825 Q539.3297,441.0825 538.6449,442.1492 Q537.9601,443.2158 537.9601,445.3159 Q537.9601,447.4077 538.6449,448.4744 Q539.3297,449.541 540.6744,449.541 Q541.3053,449.541 541.8988,449.2712 Q542.4923,449.0015 543.1231,448.4204 Z " fill="#000000"/><text fill="#000000" font-family="sans-serif" font-size="12" lengthAdjust="spacing" textLength="121" x="558.35" y="449.5352">AdicionarQuantidade</text><line style="stroke:#A80036;stroke-width:1.5;" x1="510" x2="698" y1="461" y2="461"/><rect fill="none" height="6" style="stroke:#C82930;stroke-width:1.0;" width="6" x="517" y="469"/><text fill="#000000" font-family="sans-serif" font-size="11" lengthAdjust="spacing" textLength="114" x="529" y="475.6348">logger: SimpleLogger</text><rect fill="none" height="6" style="stroke:#C82930;stroke-width:1.0;" width="6" x="517" y="481.9551"/><text fill="#000000" font-family="sans-serif" font-size="11" lengthAdjust="spacing" textLength="97" x="529" y="488.5898">input: SimpleInput</text><line style="stroke:#A80036;stroke-width:1.5;" x1="510" x2="698" y1="494.9102" y2="494.9102"/><ellipse cx="520" cy="505.9102" fill="#84BE84" rx="3" ry="3" style="stroke:#038048;stroke-width:1.0;"/><text fill="#000000" font-family="sans-serif" font-size="11" lengthAdjust="spacing" textLength="164" x="529" y="509.5449">accept(estoque: Estoque): void</text><!--MD5=[0c066ffefacf386133ad7b16e5ac2b2d]
class RemoverQuantidade--><rect codeLine="52" fill="#FEFECE" filter="url(#ff4q4hr2tzkog)" height="86.8652" id="RemoverQuantidade" style="stroke:#A80036;stroke-width:1.5;" width="190" x="284" y="429"/><ellipse cx="317" cy="445" fill="#ADD1B2" rx="11" ry="11" style="stroke:#A80036;stroke-width:1.0;"/><path d="M319.4731,451.1431 Q318.8921,451.4419 318.2529,451.5913 Q317.6138,451.7407 316.9082,451.7407 Q314.4014,451.7407 313.0815,450.0889 Q311.7617,448.437 311.7617,445.3159 Q311.7617,442.1865 313.0815,440.5347 Q314.4014,438.8828 316.9082,438.8828 Q317.6138,438.8828 318.2612,439.0322 Q318.9087,439.1816 319.4731,439.4805 L319.4731,442.2031 Q318.8423,441.6221 318.2488,441.3523 Q317.6553,441.0825 317.0244,441.0825 Q315.6797,441.0825 314.9949,442.1492 Q314.3101,443.2158 314.3101,445.3159 Q314.3101,447.4077 314.9949,448.4744 Q315.6797,449.541 317.0244,449.541 Q317.6553,449.541 318.2488,449.2712 Q318.8423,449.0015 319.4731,448.4204 Z " fill="#000000"/><text fill="#000000" font-family="sans-serif" font-size="12" lengthAdjust="spacing" textLength="118" x="335" y="449.5352">RemoverQuantidade</text><line style="stroke:#A80036;stroke-width:1.5;" x1="285" x2="473" y1="461" y2="461"/><rect fill="none" height="6" style="stroke:#C82930;stroke-width:1.0;" width="6" x="292" y="469"/><text fill="#000000" font-family="sans-serif" font-size="11" lengthAdjust="spacing" textLength="114" x="304" y="475.6348">logger: SimpleLogger</text><rect fill="none" height="6" style="stroke:#C82930;stroke-width:1.0;" width="6" x="292" y="481.9551"/><text fill="#000000" font-family="sans-serif" font-size="11" lengthAdjust="spacing" textLength="97" x="304" y="488.5898">input: SimpleInput</text><line style="stroke:#A80036;stroke-width:1.5;" x1="285" x2="473" y1="494.9102" y2="494.9102"/><ellipse cx="295" cy="505.9102" fill="#84BE84" rx="3" ry="3" style="stroke:#038048;stroke-width:1.0;"/><text fill="#000000" font-family="sans-serif" font-size="11" lengthAdjust="spacing" textLength="164" x="304" y="509.5449">accept(estoque: Estoque): void</text><!--MD5=[b134ad91523b690fa3ad0d9a3c75c474]
class ListarProdutos--><rect codeLine="59" fill="#FEFECE" filter="url(#ff4q4hr2tzkog)" height="73.9102" id="ListarProdutos" style="stroke:#A80036;stroke-width:1.5;" width="190" x="59" y="435.5"/><ellipse cx="108.75" cy="451.5" fill="#ADD1B2" rx="11" ry="11" style="stroke:#A80036;stroke-width:1.0;"/><path d="M111.2231,457.6431 Q110.6421,457.9419 110.0029,458.0913 Q109.3638,458.2407 108.6582,458.2407 Q106.1514,458.2407 104.8315,456.5889 Q103.5117,454.937 103.5117,451.8159 Q103.5117,448.6865 104.8315,447.0347 Q106.1514,445.3828 108.6582,445.3828 Q109.3638,445.3828 110.0112,445.5322 Q110.6587,445.6816 111.2231,445.9805 L111.2231,448.7031 Q110.5923,448.1221 109.9988,447.8523 Q109.4053,447.5825 108.7744,447.5825 Q107.4297,447.5825 106.7449,448.6492 Q106.0601,449.7158 106.0601,451.8159 Q106.0601,453.9077 106.7449,454.9744 Q107.4297,456.041 108.7744,456.041 Q109.4053,456.041 109.9988,455.7712 Q110.5923,455.5015 111.2231,454.9204 Z " fill="#000000"/><text fill="#000000" font-family="sans-serif" font-size="12" lengthAdjust="spacing" textLength="82" x="129.25" y="456.0352">ListarProdutos</text><line style="stroke:#A80036;stroke-width:1.5;" x1="60" x2="248" y1="467.5" y2="467.5"/><rect fill="none" height="6" style="stroke:#C82930;stroke-width:1.0;" width="6" x="67" y="475.5"/><text fill="#000000" font-family="sans-serif" font-size="11" lengthAdjust="spacing" textLength="114" x="79" y="482.1348">logger: SimpleLogger</text><line style="stroke:#A80036;stroke-width:1.5;" x1="60" x2="248" y1="488.4551" y2="488.4551"/><ellipse cx="70" cy="499.4551" fill="#84BE84" rx="3" ry="3" style="stroke:#038048;stroke-width:1.0;"/><text fill="#000000" font-family="sans-serif" font-size="11" lengthAdjust="spacing" textLength="164" x="79" y="503.0898">accept(estoque: Estoque): void</text><!--MD5=[df457111095510ce13215b59182cab45]
class Sair--><rect codeLine="65" fill="#FEFECE" filter="url(#ff4q4hr2tzkog)" height="73.9102" id="Sair" style="stroke:#A80036;stroke-width:1.5;" width="190" x="959" y="435.5"/><ellipse cx="1039.25" cy="451.5" fill="#ADD1B2" rx="11" ry="11" style="stroke:#A80036;stroke-width:1.0;"/><path d="M1041.7231,457.6431 Q1041.1421,457.9419 1040.5029,458.0913 Q1039.8638,458.2407 1039.1582,458.2407 Q1036.6514,458.2407 1035.3315,456.5889 Q1034.0117,454.937 1034.0117,451.8159 Q1034.0117,448.6865 1035.3315,447.0347 Q1036.6514,445.3828 1039.1582,445.3828 Q1039.8638,445.3828 1040.5112,445.5322 Q1041.1587,445.6816 1041.7231,445.9805 L1041.7231,448.7031 Q1041.0923,448.1221 1040.4988,447.8523 Q1039.9053,447.5825 1039.2744,447.5825 Q1037.9297,447.5825 1037.2449,448.6492 Q1036.5601,449.7158 1036.5601,451.8159 Q1036.5601,453.9077 1037.2449,454.9744 Q1037.9297,456.041 1039.2744,456.041 Q1039.9053,456.041 1040.4988,455.7712 Q1041.0923,455.5015 1041.7231,454.9204 Z " fill="#000000"/><text fill="#000000" font-family="sans-serif" font-size="12" lengthAdjust="spacing" textLength="21" x="1059.75" y="456.0352">Sair</text><line style="stroke:#A80036;stroke-width:1.5;" x1="960" x2="1148" y1="467.5" y2="467.5"/><rect fill="none" height="6" style="stroke:#C82930;stroke-width:1.0;" width="6" x="967" y="475.5"/><text fill="#000000" font-family="sans-serif" font-size="11" lengthAdjust="spacing" textLength="27" x="979" y="482.1348">ui: Ui</text><line style="stroke:#A80036;stroke-width:1.5;" x1="960" x2="1148" y1="488.4551" y2="488.4551"/><ellipse cx="970" cy="499.4551" fill="#84BE84" rx="3" ry="3" style="stroke:#038048;stroke-width:1.0;"/><text fill="#000000" font-family="sans-serif" font-size="11" lengthAdjust="spacing" textLength="164" x="979" y="503.0898">accept(estoque: Estoque): void</text><!--MD5=[d4dacc50d49878ba7c621dfc80a2e1ce]
class Produto--><rect codeLine="2" fill="#FEFECE" filter="url(#ff4q4hr2tzkog)" height="112.7754" id="Produto" style="stroke:#A80036;stroke-width:1.5;" width="239" x="186.5" y="128"/><ellipse cx="279.25" cy="144" fill="#ADD1B2" rx="11" ry="11" style="stroke:#A80036;stroke-width:1.0;"/><path d="M281.7231,150.1431 Q281.1421,150.4419 280.5029,150.5913 Q279.8638,150.7407 279.1582,150.7407 Q276.6514,150.7407 275.3315,149.0889 Q274.0117,147.437 274.0117,144.3159 Q274.0117,141.1865 275.3315,139.5347 Q276.6514,137.8828 279.1582,137.8828 Q279.8638,137.8828 280.5112,138.0322 Q281.1587,138.1816 281.7231,138.4805 L281.7231,141.2031 Q281.0923,140.6221 280.4988,140.3523 Q279.9053,140.0825 279.2744,140.0825 Q277.9297,140.0825 277.2449,141.1492 Q276.5601,142.2158 276.5601,144.3159 Q276.5601,146.4077 277.2449,147.4744 Q277.9297,148.541 279.2744,148.541 Q279.9053,148.541 280.4988,148.2712 Q281.0923,148.0015 281.7231,147.4204 Z " fill="#000000"/><text fill="#000000" font-family="sans-serif" font-size="12" lengthAdjust="spacing" textLength="45" x="299.75" y="148.5352">Produto</text><line style="stroke:#A80036;stroke-width:1.5;" x1="187.5" x2="424.5" y1="160" y2="160"/><rect fill="none" height="6" style="stroke:#C82930;stroke-width:1.0;" width="6" x="194.5" y="168"/><text fill="#000000" font-family="sans-serif" font-size="11" lengthAdjust="spacing" textLength="75" x="206.5" y="174.6348">codigo: String</text><rect fill="none" height="6" style="stroke:#C82930;stroke-width:1.0;" width="6" x="194.5" y="180.9551"/><text fill="#000000" font-family="sans-serif" font-size="11" lengthAdjust="spacing" textLength="68" x="206.5" y="187.5898">nome: String</text><rect fill="none" height="6" style="stroke:#C82930;stroke-width:1.0;" width="6" x="194.5" y="193.9102"/><text fill="#000000" font-family="sans-serif" font-size="11" lengthAdjust="spacing" textLength="80" x="206.5" y="200.5449">quantidade: int</text><rect fill="none" height="6" style="stroke:#C82930;stroke-width:1.0;" width="6" x="194.5" y="206.8652"/><text fill="#000000" font-family="sans-serif" font-size="11" lengthAdjust="spacing" textLength="118" x="206.5" y="213.5">quantidadeMinima: int</text><line style="stroke:#A80036;stroke-width:1.5;" x1="187.5" x2="424.5" y1="219.8203" y2="219.8203"/><ellipse cx="197.5" cy="230.8203" fill="#84BE84" rx="3" ry="3" style="stroke:#038048;stroke-width:1.0;"/><text fill="#000000" font-family="sans-serif" font-size="11" lengthAdjust="spacing" textLength="213" x="206.5" y="234.4551">alterarQuantidade(novaQuantidade: int)</text><!--MD5=[d1377ef569372d0878800e24aaeebcac]
class Estoque--><rect codeLine="11" fill="#FEFECE" filter="url(#ff4q4hr2tzkog)" height="112.7754" id="Estoque" style="stroke:#A80036;stroke-width:1.5;" width="406" x="461" y="128"/><ellipse cx="636.75" cy="144" fill="#ADD1B2" rx="11" ry="11" style="stroke:#A80036;stroke-width:1.0;"/><path d="M639.2231,150.1431 Q638.6421,150.4419 638.0029,150.5913 Q637.3638,150.7407 636.6582,150.7407 Q634.1514,150.7407 632.8315,149.0889 Q631.5117,147.437 631.5117,144.3159 Q631.5117,141.1865 632.8315,139.5347 Q634.1514,137.8828 636.6582,137.8828 Q637.3638,137.8828 638.0112,138.0322 Q638.6587,138.1816 639.2231,138.4805 L639.2231,141.2031 Q638.5923,140.6221 637.9988,140.3523 Q637.4053,140.0825 636.7744,140.0825 Q635.4297,140.0825 634.7449,141.1492 Q634.0601,142.2158 634.0601,144.3159 Q634.0601,146.4077 634.7449,147.4744 Q635.4297,148.541 636.7744,148.541 Q637.4053,148.541 637.9988,148.2712 Q638.5923,148.0015 639.2231,147.4204 Z " fill="#000000"/><text fill="#000000" font-family="sans-serif" font-size="12" lengthAdjust="spacing" textLength="46" x="657.25" y="148.5352">Estoque</text><line style="stroke:#A80036;stroke-width:1.5;" x1="462" x2="866" y1="160" y2="160"/><rect fill="none" height="6" style="stroke:#C82930;stroke-width:1.0;" width="6" x="469" y="168"/><text fill="#000000" font-family="sans-serif" font-size="11" lengthAdjust="spacing" textLength="136" x="481" y="174.6348">produtos: List&lt;Produto&gt;</text><line style="stroke:#A80036;stroke-width:1.5;" x1="462" x2="866" y1="180.9551" y2="180.9551"/><ellipse cx="472" cy="191.9551" fill="#84BE84" rx="3" ry="3" style="stroke:#038048;stroke-width:1.0;"/><text fill="#000000" font-family="sans-serif" font-size="11" lengthAdjust="spacing" textLength="223" x="481" y="195.5898">adicionarProduto(produto: Produto): void</text><ellipse cx="472" cy="204.9102" fill="#84BE84" rx="3" ry="3" style="stroke:#038048;stroke-width:1.0;"/><text fill="#000000" font-family="sans-serif" font-size="11" lengthAdjust="spacing" textLength="380" x="481" y="208.5449">alterarQuantidadeDeProduto(codigo: String, novaQuantidade: int): void</text><ellipse cx="472" cy="217.8652" fill="#84BE84" rx="3" ry="3" style="stroke:#038048;stroke-width:1.0;"/><text fill="#000000" font-family="sans-serif" font-size="11" lengthAdjust="spacing" textLength="170" x="481" y="221.5">listarProdutos(): List&lt;Produto&gt;</text><ellipse cx="472" cy="230.8203" fill="#84BE84" rx="3" ry="3" style="stroke:#038048;stroke-width:1.0;"/><text fill="#000000" font-family="sans-serif" font-size="11" lengthAdjust="spacing" textLength="247" x="481" y="234.4551">listarProdutosAbaixoMinimo(): List&lt;Produto&gt;</text><!--MD5=[67ea9f8eb7ab97465d83c225b092f5fe]
class Consumer--><rect codeLine="19" fill="#FEFECE" filter="url(#ff4q4hr2tzkog)" height="60.9551" id="Consumer" style="stroke:#A80036;stroke-width:1.5;" width="202" x="563" y="301"/><ellipse cx="605.9" cy="317" fill="#B4A7E5" rx="11" ry="11" style="stroke:#A80036;stroke-width:1.0;"/><path d="M602.3277,313.2651 L602.3277,311.1069 L609.7071,311.1069 L609.7071,313.2651 L607.2418,313.2651 L607.2418,321.3418 L609.7071,321.3418 L609.7071,323.5 L602.3277,323.5 L602.3277,321.3418 L604.7931,321.3418 L604.7931,313.2651 Z " fill="#000000"/><text fill="#000000" font-family="sans-serif" font-size="12" font-style="italic" lengthAdjust="spacing" textLength="58" x="626.1" y="321.5352">Consumer</text><rect fill="#FFFFFF" height="16.1328" style="stroke:#000000;stroke-width:1.0;stroke-dasharray:2.0,2.0;" width="48" x="720" y="298"/><text fill="#000000" font-family="sans-serif" font-size="12" font-style="italic" lengthAdjust="spacing" textLength="46" x="721" y="310.6016">Estoque</text><line style="stroke:#A80036;stroke-width:1.5;" x1="564" x2="764" y1="333" y2="333"/><line style="stroke:#A80036;stroke-width:1.5;" x1="564" x2="764" y1="341" y2="341"/><ellipse cx="574" cy="352" fill="#84BE84" rx="3" ry="3" style="stroke:#038048;stroke-width:1.0;"/><text fill="#000000" font-family="sans-serif" font-size="11" lengthAdjust="spacing" textLength="176" x="583" y="355.6348">+ accept(estoque: Estoque): void</text><!--MD5=[56c17820b5ec61b985b118caeb6340b1]
class Ui--><rect codeLine="72" fill="#FEFECE" filter="url(#ff4q4hr2tzkog)" height="86.8652" id="Ui" style="stroke:#A80036;stroke-width:1.5;" width="183" x="932.5" y="141"/><ellipse cx="1014.25" cy="157" fill="#ADD1B2" rx="11" ry="11" style="stroke:#A80036;stroke-width:1.0;"/><path d="M1016.7231,163.1431 Q1016.1421,163.4419 1015.5029,163.5913 Q1014.8638,163.7407 1014.1582,163.7407 Q1011.6514,163.7407 1010.3315,162.0889 Q1009.0117,160.437 1009.0117,157.3159 Q1009.0117,154.1865 1010.3315,152.5347 Q1011.6514,150.8828 1014.1582,150.8828 Q1014.8638,150.8828 1015.5112,151.0322 Q1016.1587,151.1816 1016.7231,151.4805 L1016.7231,154.2031 Q1016.0923,153.6221 1015.4988,153.3523 Q1014.9053,153.0825 1014.2744,153.0825 Q1012.9297,153.0825 1012.2449,154.1492 Q1011.5601,155.2158 1011.5601,157.3159 Q1011.5601,159.4077 1012.2449,160.4744 Q1012.9297,161.541 1014.2744,161.541 Q1014.9053,161.541 1015.4988,161.2712 Q1016.0923,161.0015 1016.7231,160.4204 Z " fill="#000000"/><text fill="#000000" font-family="sans-serif" font-size="12" lengthAdjust="spacing" textLength="11" x="1034.75" y="161.5352">Ui</text><line style="stroke:#A80036;stroke-width:1.5;" x1="933.5" x2="1114.5" y1="173" y2="173"/><rect fill="none" height="6" style="stroke:#C82930;stroke-width:1.0;" width="6" x="940.5" y="181"/><text fill="#000000" font-family="sans-serif" font-size="11" lengthAdjust="spacing" textLength="157" x="952.5" y="187.6348">acoes : Consumer&lt;Estoque&gt;</text><line style="stroke:#A80036;stroke-width:1.5;" x1="933.5" x2="1114.5" y1="193.9551" y2="193.9551"/><ellipse cx="943.5" cy="204.9551" fill="#84BE84" rx="3" ry="3" style="stroke:#038048;stroke-width:1.0;"/><text fill="#000000" font-family="sans-serif" font-size="11" lengthAdjust="spacing" textLength="87" x="952.5" y="208.5898">executar() : void</text><ellipse cx="943.5" cy="217.9102" fill="#84BE84" rx="3" ry="3" style="stroke:#038048;stroke-width:1.0;"/><text fill="#000000" font-family="sans-serif" font-size="11" lengthAdjust="spacing" textLength="57" x="952.5" y="221.5449">sair(): void</text><!--MD5=[18826ddc68954886090dcda6a3a893a2]
class Bootstrap--><rect codeLine="79" fill="#FEFECE" filter="url(#ff4q4hr2tzkog)" height="60.9551" id="Bootstrap" style="stroke:#A80036;stroke-width:1.5;" width="87" x="980.5" y="7"/><ellipse cx="995.5" cy="23" fill="#ADD1B2" rx="11" ry="11" style="stroke:#A80036;stroke-width:1.0;"/><path d="M997.9731,29.1431 Q997.3921,29.4419 996.7529,29.5913 Q996.1138,29.7407 995.4082,29.7407 Q992.9014,29.7407 991.5815,28.0889 Q990.2617,26.437 990.2617,23.3159 Q990.2617,20.1865 991.5815,18.5347 Q992.9014,16.8828 995.4082,16.8828 Q996.1138,16.8828 996.7612,17.0322 Q997.4087,17.1816 997.9731,17.4805 L997.9731,20.2031 Q997.3423,19.6221 996.7488,19.3523 Q996.1553,19.0825 995.5244,19.0825 Q994.1797,19.0825 993.4949,20.1492 Q992.8101,21.2158 992.8101,23.3159 Q992.8101,25.4077 993.4949,26.4744 Q994.1797,27.541 995.5244,27.541 Q996.1553,27.541 996.7488,27.2712 Q997.3423,27.0015 997.9731,26.4204 Z " fill="#000000"/><text fill="#000000" font-family="sans-serif" font-size="12" lengthAdjust="spacing" textLength="55" x="1009.5" y="27.5352">Bootstrap</text><line style="stroke:#A80036;stroke-width:1.5;" x1="981.5" x2="1066.5" y1="39" y2="39"/><line style="stroke:#A80036;stroke-width:1.5;" x1="981.5" x2="1066.5" y1="47" y2="47"/><ellipse cx="991.5" cy="58" fill="#84BE84" rx="3" ry="3" style="stroke:#038048;stroke-width:1.0;"/><text fill="#000000" font-family="sans-serif" font-size="11" lengthAdjust="spacing" text-decoration="underline" textLength="60" x="1000.5" y="61.6348">main():void</text><!--MD5=[f15ed7ae6daea01b7b54974df55ce9a1]
reverse link Consumer to AdicionarProduto--><path d="M722.5,374.75 C747.93,395.55 767.75,413.37 784.59,428.99 " fill="none" id="Consumer-backto-AdicionarProduto" style="stroke:#A80036;stroke-width:1.0;stroke-dasharray:7.0,7.0;"/><polygon fill="none" points="718.04,380.15,706.86,362.15,726.82,369.24,718.04,380.15" style="stroke:#A80036;stroke-width:1.0;"/><!--MD5=[85b0b34d370209d1ad082bd434184e71]
reverse link Consumer to AdicionarQuantidade--><path d="M643.2,380.69 C636.44,396.34 629,413.59 622.43,428.81 " fill="none" id="Consumer-backto-AdicionarQuantidade" style="stroke:#A80036;stroke-width:1.0;stroke-dasharray:7.0,7.0;"/><polygon fill="none" points="636.78,377.91,651.13,362.32,649.63,383.46,636.78,377.91" style="stroke:#A80036;stroke-width:1.0;"/><!--MD5=[b92d4b5eaa6791796f9ff31de71f9db1]
reverse link Consumer to RemoverQuantidade--><path d="M543.2,350.49 C525.5,355.48 507.9,361.86 492,370 C463.48,384.6 436.58,408.21 416.18,428.98 " fill="none" id="Consumer-backto-RemoverQuantidade" style="stroke:#A80036;stroke-width:1.0;stroke-dasharray:7.0,7.0;"/><polygon fill="none" points="541.64,343.66,562.75,345.5,545.1,357.22,541.64,343.66" style="stroke:#A80036;stroke-width:1.0;"/><!--MD5=[4b096e6a7f04e8611769c9721b50e00f]
reverse link Consumer to ListarProdutos--><path d="M542.58,335.57 C444.09,339.6 314,348.84 266,370 C233.1,384.5 203.34,412.55 182.78,435.49 " fill="none" id="Consumer-backto-ListarProdutos" style="stroke:#A80036;stroke-width:1.0;stroke-dasharray:7.0,7.0;"/><polygon fill="none" points="542.52,328.57,562.77,334.8,543.05,342.56,542.52,328.57" style="stroke:#A80036;stroke-width:1.0;"/><!--MD5=[ca1699313add1b23e8a2b57f4b4d0bd5]
reverse link Consumer to Sair--><path d="M785.31,341.74 C846.82,347.84 914.27,357.11 942,370 C974.36,385.04 1003.95,412.75 1024.58,435.42 " fill="none" id="Consumer-backto-Sair" style="stroke:#A80036;stroke-width:1.0;stroke-dasharray:7.0,7.0;"/><polygon fill="none" points="784.43,348.69,765.18,339.83,785.75,334.75,784.43,348.69" style="stroke:#A80036;stroke-width:1.0;"/><!--MD5=[a4d4b9a9cb4d843dfa5e6140e79ce883]
link Bootstrap to Ui--><path codeLine="84" d="M1024,68.19 C1024,89.16 1024,117.56 1024,140.93 " fill="none" id="Bootstrap-Ui" style="stroke:#A80036;stroke-width:1.0;stroke-dasharray:7.0,7.0;"/><!--MD5=[54a8046b924f2d34587c2e0e8b866a30]
link Ui to Consumer--><path codeLine="85" d="M932.23,222.46 C873.46,246.13 798.04,276.51 742.15,299.02 " fill="none" id="Ui-to-Consumer" style="stroke:#A80036;stroke-width:1.0;"/><polygon fill="#A80036" points="737.48,300.9,747.3228,301.2453,742.1174,299.0308,744.332,293.8254,737.48,300.9" style="stroke:#A80036;stroke-width:1.0;"/><!--MD5=[764c25a24799d60fe777a4331bea6597]
link Sair to Ui--><path codeLine="86" d="M1050.18,435.11 C1044.79,383.74 1034.95,289.89 1028.99,233.05 " fill="none" id="Sair-to-Ui" style="stroke:#A80036;stroke-width:1.0;"/><polygon fill="#A80036" points="1028.46,228.01,1025.4073,237.3738,1028.9745,232.9835,1033.3649,236.5506,1028.46,228.01" style="stroke:#A80036;stroke-width:1.0;"/><!--MD5=[003028bef78b5236effd17f9ca57284a]
link Estoque to Consumer--><path codeLine="87" d="M664,241.15 C664,261.43 664,283.58 664,300.75 " fill="none" id="Estoque-Consumer" style="stroke:#A80036;stroke-width:1.0;stroke-dasharray:7.0,7.0;"/><!--MD5=[45b38803421477f482b93907cbeba594]
link acoes to helper--><path d="M24,540.2656 C24,540.6041 24,540.9431 24,541.2827 C24,543.9989 24,546.746 24,549.5136 C24,555.0489 24,560.6664 24,566.2838 C24,569.0924 24,571.901 24,574.6993 C24,576.0985 24,577.495 24,578.8877 C24,579.2359 24,579.5838 24,579.9315 " fill="none" id="acoes-helper" style="stroke:#A80036;stroke-width:1.0;stroke-dasharray:7.0,7.0;"/><!--MD5=[e67fc4a309e0568a280508c3ef2cadcc]
reverse link Produto to Estoque--><path codeLine="89" d="M430.82,184.5 C440.87,184.5 450.91,184.5 460.96,184.5 " fill="none" id="Produto-backto-Estoque" style="stroke:#A80036;stroke-width:1.0;"/><polygon fill="#A80036" points="425.57,184.5,434.57,188.5,430.57,184.5,434.57,180.5,425.57,184.5" style="stroke:#A80036;stroke-width:1.0;"/><!--MD5=[30e2827f47a0f2d18affb1ced6120055]
@startuml controle-de-estoque

class Produto {
  - codigo: String
  - nome: String
  - quantidade: int
  - quantidadeMinima: int

  + alterarQuantidade(novaQuantidade: int)
}

class Estoque {
  - produtos: List<Produto>
  + adicionarProduto(produto: Produto): void
  + alterarQuantidadeDeProduto(codigo: String, novaQuantidade: int): void
  + listarProdutos(): List<Produto>
  + listarProdutosAbaixoMinimo(): List<Produto>
}

interface Consumer<Estoque> {
  + + accept(estoque: Estoque): void
}

package helper {
  class SimpleLogger {
    + imprimirLinha(texto: String): void
    + imprimir(texto: String): void
  }

  class SimpleInput {
    + lerLinha(): String
    + lerInteiro(): int
  }
}

package acoes {

  class AdicionarProduto implements Consumer {
    - logger: SimpleLogger
    - input: SimpleInput

    + accept(estoque: Estoque): void
  }

  class AdicionarQuantidade implements Consumer {
    - logger: SimpleLogger
    - input: SimpleInput

    + accept(estoque: Estoque): void
  }


  class RemoverQuantidade implements Consumer {
    - logger: SimpleLogger
    - input: SimpleInput

    + accept(estoque: Estoque): void
  }

  class ListarProdutos implements Consumer {
    - logger: SimpleLogger

    + accept(estoque: Estoque): void
  }

  class Sair implements Consumer {
    - ui: Ui
    + accept(estoque: Estoque): void
  }

}

class Ui {
  - acoes : Consumer<Estoque>

  + executar() : void
  + sair(): void
}

class Bootstrap {
  + {static} main():void
}


Bootstrap .. Ui
Ui - -> Consumer
Sair - -> Ui
Consumer .up. Estoque
acoes .up. helper
Estoque -left-> Produto

@enduml

PlantUML version 1.2022.0(Tue Jan 11 13:16:42 BRT 2022)
(GPL source distribution)
Java Runtime: OpenJDK Runtime Environment
JVM: OpenJDK 64-Bit Server VM
Default Encoding: UTF-8
Language: en
Country: BR
--></g></svg>