<?xml version="1.0" encoding="UTF-8" standalone="no"?><svg xmlns="http://www.w3.org/2000/svg" xmlns:xlink="http://www.w3.org/1999/xlink" contentScriptType="application/ecmascript" contentStyleType="text/css" height="754px" preserveAspectRatio="none" style="width:1196px;height:754px;background:#FFFFFF;" version="1.1" viewBox="0 0 1196 754" width="1196px" zoomAndPan="magnify"><defs><filter height="300%" id="fpucakd441s0r" width="300%" x="-1" y="-1"><feGaussianBlur result="blurOut" stdDeviation="2.0"/><feColorMatrix in="blurOut" result="blurOut2" type="matrix" values="0 0 0 0 0 0 0 0 0 0 0 0 0 0 0 0 0 0 .4 0"/><feOffset dx="4.0" dy="4.0" in="blurOut2" result="blurOut3"/><feBlend in="SourceGraphic" in2="blurOut3" mode="normal"/></filter></defs><g><!--MD5=[be48e98a4ad7f5f2a1ba2465e5010d2c]
cluster helper--><polygon fill="#FFFFFF" filter="url(#fpucakd441s0r)" points="16,606,67,606,74,628.4883,438,628.4883,438,747,16,747,16,606" style="stroke:#000000;stroke-width:1.5;"/><line style="stroke:#000000;stroke-width:1.5;" x1="16" x2="74" y1="628.4883" y2="628.4883"/><text fill="#000000" font-family="sans-serif" font-size="14" font-weight="bold" lengthAdjust="spacing" textLength="45" x="20" y="621.5352">helper</text><!--MD5=[b461637e81ce7210cdb994ce8bfacdcf]
cluster acoes--><polygon fill="#FFFFFF" filter="url(#fpucakd441s0r)" points="16,412,62,412,69,434.4883,1179,434.4883,1179,566,16,566,16,412" style="stroke:#000000;stroke-width:1.5;"/><line style="stroke:#000000;stroke-width:1.5;" x1="16" x2="69" y1="434.4883" y2="434.4883"/><text fill="#000000" font-family="sans-serif" font-size="14" font-weight="bold" lengthAdjust="spacing" textLength="40" x="20" y="427.5352">acoes</text><!--MD5=[bcd645a24a7aa549381c6f2be29e5165]
class SimpleLogger--><rect codeLine="28" fill="#FEFECE" filter="url(#fpucakd441s0r)" height="73.9102" id="SimpleLogger" style="stroke:#A80036;stroke-width:1.5;" width="204" x="210" y="649"/><ellipse cx="269.25" cy="665" fill="#ADD1B2" rx="11" ry="11" style="stroke:#A80036;stroke-width:1.0;"/><path d="M271.7231,671.1431 Q271.1421,671.4419 270.5029,671.5913 Q269.8638,671.7407 269.1582,671.7407 Q266.6514,671.7407 265.3315,670.0889 Q264.0117,668.437 264.0117,665.3159 Q264.0117,662.1865 265.3315,660.5347 Q266.6514,658.8828 269.1582,658.8828 Q269.8638,658.8828 270.5112,659.0322 Q271.1587,659.1816 271.7231,659.4805 L271.7231,662.2031 Q271.0923,661.6221 270.4988,661.3523 Q269.9053,661.0825 269.2744,661.0825 Q267.9297,661.0825 267.2449,662.1492 Q266.5601,663.2158 266.5601,665.3159 Q266.5601,667.4077 267.2449,668.4744 Q267.9297,669.541 269.2744,669.541 Q269.9053,669.541 270.4988,669.2712 Q271.0923,669.0015 271.7231,668.4204 Z " fill="#000000"/><text fill="#000000" font-family="sans-serif" font-size="12" lengthAdjust="spacing" textLength="77" x="289.75" y="669.5352">SimpleLogger</text><line style="stroke:#A80036;stroke-width:1.5;" x1="211" x2="413" y1="681" y2="681"/><line style="stroke:#A80036;stroke-width:1.5;" x1="211" x2="413" y1="689" y2="689"/><ellipse cx="221" cy="700" fill="#84BE84" rx="3" ry="3" style="stroke:#038048;stroke-width:1.0;"/><text fill="#000000" font-family="sans-serif" font-size="11" lengthAdjust="spacing" textLength="178" x="230" y="703.6348">imprimirLinha(texto: String): void</text><ellipse cx="221" cy="712.9551" fill="#84BE84" rx="3" ry="3" style="stroke:#038048;stroke-width:1.0;"/><text fill="#000000" font-family="sans-serif" font-size="11" lengthAdjust="spacing" textLength="149" x="230" y="716.5898">imprimir(texto: String): void</text><!--MD5=[b80c6f0a6b96ead0571de96351b47769]
class SimpleInput--><rect codeLine="33" fill="#FEFECE" filter="url(#fpucakd441s0r)" height="73.9102" id="SimpleInput" style="stroke:#A80036;stroke-width:1.5;" width="115" x="59.5" y="649"/><ellipse cx="81.7" cy="665" fill="#ADD1B2" rx="11" ry="11" style="stroke:#A80036;stroke-width:1.0;"/><path d="M84.1731,671.1431 Q83.5921,671.4419 82.9529,671.5913 Q82.3138,671.7407 81.6082,671.7407 Q79.1014,671.7407 77.7815,670.0889 Q76.4617,668.437 76.4617,665.3159 Q76.4617,662.1865 77.7815,660.5347 Q79.1014,658.8828 81.6082,658.8828 Q82.3138,658.8828 82.9612,659.0322 Q83.6087,659.1816 84.1731,659.4805 L84.1731,662.2031 Q83.5423,661.6221 82.9488,661.3523 Q82.3553,661.0825 81.7244,661.0825 Q80.3797,661.0825 79.6949,662.1492 Q79.0101,663.2158 79.0101,665.3159 Q79.0101,667.4077 79.6949,668.4744 Q80.3797,669.541 81.7244,669.541 Q82.3553,669.541 82.9488,669.2712 Q83.5423,669.0015 84.1731,668.4204 Z " fill="#000000"/><text fill="#000000" font-family="sans-serif" font-size="12" lengthAdjust="spacing" textLength="67" x="97.3" y="669.5352">SimpleInput</text><line style="stroke:#A80036;stroke-width:1.5;" x1="60.5" x2="173.5" y1="681" y2="681"/><line style="stroke:#A80036;stroke-width:1.5;" x1="60.5" x2="173.5" y1="689" y2="689"/><ellipse cx="70.5" cy="700" fill="#84BE84" rx="3" ry="3" style="stroke:#038048;stroke-width:1.0;"/><text fill="#000000" font-family="sans-serif" font-size="11" lengthAdjust="spacing" textLength="89" x="79.5" y="703.6348">lerLinha(): String</text><ellipse cx="70.5" cy="712.9551" fill="#84BE84" rx="3" ry="3" style="stroke:#038048;stroke-width:1.0;"/><text fill="#000000" font-family="sans-serif" font-size="11" lengthAdjust="spacing" textLength="77" x="79.5" y="716.5898">lerInteiro(): int</text><!--MD5=[cff6ef18e58ad8f957e2a6894e086de6]
class AdicionarProduto--><rect codeLine="41" fill="#FEFECE" filter="url(#fpucakd441s0r)" height="86.8652" id="AdicionarProduto" style="stroke:#A80036;stroke-width:1.5;" width="190" x="740" y="455"/><ellipse cx="781.55" cy="471" fill="#ADD1B2" rx="11" ry="11" style="stroke:#A80036;stroke-width:1.0;"/><path d="M784.0231,477.1431 Q783.4421,477.4419 782.8029,477.5913 Q782.1638,477.7407 781.4582,477.7407 Q778.9514,477.7407 777.6315,476.0889 Q776.3117,474.437 776.3117,471.3159 Q776.3117,468.1865 777.6315,466.5347 Q778.9514,464.8828 781.4582,464.8828 Q782.1638,464.8828 782.8112,465.0322 Q783.4587,465.1816 784.0231,465.4805 L784.0231,468.2031 Q783.3923,467.6221 782.7988,467.3523 Q782.2053,467.0825 781.5744,467.0825 Q780.2297,467.0825 779.5449,468.1492 Q778.8601,469.2158 778.8601,471.3159 Q778.8601,473.4077 779.5449,474.4744 Q780.2297,475.541 781.5744,475.541 Q782.2053,475.541 782.7988,475.2712 Q783.3923,475.0015 784.0231,474.4204 Z " fill="#000000"/><text fill="#000000" font-family="sans-serif" font-size="12" lengthAdjust="spacing" textLength="99" x="801.45" y="475.5352">AdicionarProduto</text><line style="stroke:#A80036;stroke-width:1.5;" x1="741" x2="929" y1="487" y2="487"/><rect fill="none" height="6" style="stroke:#C82930;stroke-width:1.0;" width="6" x="748" y="495"/><text fill="#000000" font-family="sans-serif" font-size="11" lengthAdjust="spacing" textLength="114" x="760" y="501.6348">logger: SimpleLogger</text><rect fill="none" height="6" style="stroke:#C82930;stroke-width:1.0;" width="6" x="748" y="507.9551"/><text fill="#000000" font-family="sans-serif" font-size="11" lengthAdjust="spacing" textLength="97" x="760" y="514.5898">input: SimpleInput</text><line style="stroke:#A80036;stroke-width:1.5;" x1="741" x2="929" y1="520.9102" y2="520.9102"/><ellipse cx="751" cy="531.9102" fill="#84BE84" rx="3" ry="3" style="stroke:#038048;stroke-width:1.0;"/><text fill="#000000" font-family="sans-serif" font-size="11" lengthAdjust="spacing" textLength="164" x="760" y="535.5449">accept(estoque: Estoque): void</text><!--MD5=[050c0d5ae01c18707c5bc104a3913b28]
class AlterarQuantidade--><rect codeLine="48" fill="#FEFECE" filter="url(#fpucakd441s0r)" height="86.8652" id="AlterarQuantidade" style="stroke:#A80036;stroke-width:1.5;" width="190" x="515" y="455"/><ellipse cx="553.4" cy="471" fill="#ADD1B2" rx="11" ry="11" style="stroke:#A80036;stroke-width:1.0;"/><path d="M555.8731,477.1431 Q555.2921,477.4419 554.6529,477.5913 Q554.0138,477.7407 553.3082,477.7407 Q550.8014,477.7407 549.4815,476.0889 Q548.1617,474.437 548.1617,471.3159 Q548.1617,468.1865 549.4815,466.5347 Q550.8014,464.8828 553.3082,464.8828 Q554.0138,464.8828 554.6612,465.0322 Q555.3087,465.1816 555.8731,465.4805 L555.8731,468.2031 Q555.2423,467.6221 554.6488,467.3523 Q554.0553,467.0825 553.4244,467.0825 Q552.0797,467.0825 551.3949,468.1492 Q550.7101,469.2158 550.7101,471.3159 Q550.7101,473.4077 551.3949,474.4744 Q552.0797,475.541 553.4244,475.541 Q554.0553,475.541 554.6488,475.2712 Q555.2423,475.0015 555.8731,474.4204 Z " fill="#000000"/><text fill="#000000" font-family="sans-serif" font-size="12" lengthAdjust="spacing" textLength="106" x="572.6" y="475.5352">AlterarQuantidade</text><line style="stroke:#A80036;stroke-width:1.5;" x1="516" x2="704" y1="487" y2="487"/><rect fill="none" height="6" style="stroke:#C82930;stroke-width:1.0;" width="6" x="523" y="495"/><text fill="#000000" font-family="sans-serif" font-size="11" lengthAdjust="spacing" textLength="114" x="535" y="501.6348">logger: SimpleLogger</text><rect fill="none" height="6" style="stroke:#C82930;stroke-width:1.0;" width="6" x="523" y="507.9551"/><text fill="#000000" font-family="sans-serif" font-size="11" lengthAdjust="spacing" textLength="97" x="535" y="514.5898">input: SimpleInput</text><line style="stroke:#A80036;stroke-width:1.5;" x1="516" x2="704" y1="520.9102" y2="520.9102"/><ellipse cx="526" cy="531.9102" fill="#84BE84" rx="3" ry="3" style="stroke:#038048;stroke-width:1.0;"/><text fill="#000000" font-family="sans-serif" font-size="11" lengthAdjust="spacing" textLength="164" x="535" y="535.5449">accept(estoque: Estoque): void</text><!--MD5=[b134ad91523b690fa3ad0d9a3c75c474]
class ListarProdutos--><rect codeLine="55" fill="#FEFECE" filter="url(#fpucakd441s0r)" height="73.9102" id="ListarProdutos" style="stroke:#A80036;stroke-width:1.5;" width="190" x="290" y="461.5"/><ellipse cx="339.75" cy="477.5" fill="#ADD1B2" rx="11" ry="11" style="stroke:#A80036;stroke-width:1.0;"/><path d="M342.2231,483.6431 Q341.6421,483.9419 341.0029,484.0913 Q340.3638,484.2407 339.6582,484.2407 Q337.1514,484.2407 335.8315,482.5889 Q334.5117,480.937 334.5117,477.8159 Q334.5117,474.6865 335.8315,473.0347 Q337.1514,471.3828 339.6582,471.3828 Q340.3638,471.3828 341.0112,471.5322 Q341.6587,471.6816 342.2231,471.9805 L342.2231,474.7031 Q341.5923,474.1221 340.9988,473.8523 Q340.4053,473.5825 339.7744,473.5825 Q338.4297,473.5825 337.7449,474.6492 Q337.0601,475.7158 337.0601,477.8159 Q337.0601,479.9077 337.7449,480.9744 Q338.4297,482.041 339.7744,482.041 Q340.4053,482.041 340.9988,481.7712 Q341.5923,481.5015 342.2231,480.9204 Z " fill="#000000"/><text fill="#000000" font-family="sans-serif" font-size="12" lengthAdjust="spacing" textLength="82" x="360.25" y="482.0352">ListarProdutos</text><line style="stroke:#A80036;stroke-width:1.5;" x1="291" x2="479" y1="493.5" y2="493.5"/><rect fill="none" height="6" style="stroke:#C82930;stroke-width:1.0;" width="6" x="298" y="501.5"/><text fill="#000000" font-family="sans-serif" font-size="11" lengthAdjust="spacing" textLength="114" x="310" y="508.1348">logger: SimpleLogger</text><line style="stroke:#A80036;stroke-width:1.5;" x1="291" x2="479" y1="514.4551" y2="514.4551"/><ellipse cx="301" cy="525.4551" fill="#84BE84" rx="3" ry="3" style="stroke:#038048;stroke-width:1.0;"/><text fill="#000000" font-family="sans-serif" font-size="11" lengthAdjust="spacing" textLength="164" x="310" y="529.0898">accept(estoque: Estoque): void</text><!--MD5=[b3496b8b4e1b549c1309102a74d43d75]
class ListarProdutosAbaixoMinimo--><rect codeLine="61" fill="#FEFECE" filter="url(#fpucakd441s0r)" height="73.9102" id="ListarProdutosAbaixoMinimo" style="stroke:#A80036;stroke-width:1.5;" width="195" x="59.5" y="461.5"/><ellipse cx="74.5" cy="477.5" fill="#ADD1B2" rx="11" ry="11" style="stroke:#A80036;stroke-width:1.0;"/><path d="M76.9731,483.6431 Q76.3921,483.9419 75.7529,484.0913 Q75.1138,484.2407 74.4082,484.2407 Q71.9014,484.2407 70.5815,482.5889 Q69.2617,480.937 69.2617,477.8159 Q69.2617,474.6865 70.5815,473.0347 Q71.9014,471.3828 74.4082,471.3828 Q75.1138,471.3828 75.7612,471.5322 Q76.4087,471.6816 76.9731,471.9805 L76.9731,474.7031 Q76.3423,474.1221 75.7488,473.8523 Q75.1553,473.5825 74.5244,473.5825 Q73.1797,473.5825 72.4949,474.6492 Q71.8101,475.7158 71.8101,477.8159 Q71.8101,479.9077 72.4949,480.9744 Q73.1797,482.041 74.5244,482.041 Q75.1553,482.041 75.7488,481.7712 Q76.3423,481.5015 76.9731,480.9204 Z " fill="#000000"/><text fill="#000000" font-family="sans-serif" font-size="12" lengthAdjust="spacing" textLength="163" x="88.5" y="482.0352">ListarProdutosAbaixoMinimo</text><line style="stroke:#A80036;stroke-width:1.5;" x1="60.5" x2="253.5" y1="493.5" y2="493.5"/><rect fill="none" height="6" style="stroke:#C82930;stroke-width:1.0;" width="6" x="67.5" y="501.5"/><text fill="#000000" font-family="sans-serif" font-size="11" lengthAdjust="spacing" textLength="114" x="79.5" y="508.1348">logger: SimpleLogger</text><line style="stroke:#A80036;stroke-width:1.5;" x1="60.5" x2="253.5" y1="514.4551" y2="514.4551"/><ellipse cx="70.5" cy="525.4551" fill="#84BE84" rx="3" ry="3" style="stroke:#038048;stroke-width:1.0;"/><text fill="#000000" font-family="sans-serif" font-size="11" lengthAdjust="spacing" textLength="164" x="79.5" y="529.0898">accept(estoque: Estoque): void</text><!--MD5=[df457111095510ce13215b59182cab45]
class Sair--><rect codeLine="67" fill="#FEFECE" filter="url(#fpucakd441s0r)" height="73.9102" id="Sair" style="stroke:#A80036;stroke-width:1.5;" width="190" x="965" y="461.5"/><ellipse cx="1045.25" cy="477.5" fill="#ADD1B2" rx="11" ry="11" style="stroke:#A80036;stroke-width:1.0;"/><path d="M1047.7231,483.6431 Q1047.1421,483.9419 1046.5029,484.0913 Q1045.8638,484.2407 1045.1582,484.2407 Q1042.6514,484.2407 1041.3315,482.5889 Q1040.0117,480.937 1040.0117,477.8159 Q1040.0117,474.6865 1041.3315,473.0347 Q1042.6514,471.3828 1045.1582,471.3828 Q1045.8638,471.3828 1046.5112,471.5322 Q1047.1587,471.6816 1047.7231,471.9805 L1047.7231,474.7031 Q1047.0923,474.1221 1046.4988,473.8523 Q1045.9053,473.5825 1045.2744,473.5825 Q1043.9297,473.5825 1043.2449,474.6492 Q1042.5601,475.7158 1042.5601,477.8159 Q1042.5601,479.9077 1043.2449,480.9744 Q1043.9297,482.041 1045.2744,482.041 Q1045.9053,482.041 1046.4988,481.7712 Q1047.0923,481.5015 1047.7231,480.9204 Z " fill="#000000"/><text fill="#000000" font-family="sans-serif" font-size="12" lengthAdjust="spacing" textLength="21" x="1065.75" y="482.0352">Sair</text><line style="stroke:#A80036;stroke-width:1.5;" x1="966" x2="1154" y1="493.5" y2="493.5"/><rect fill="none" height="6" style="stroke:#C82930;stroke-width:1.0;" width="6" x="973" y="501.5"/><text fill="#000000" font-family="sans-serif" font-size="11" lengthAdjust="spacing" textLength="27" x="985" y="508.1348">ui: Ui</text><line style="stroke:#A80036;stroke-width:1.5;" x1="966" x2="1154" y1="514.4551" y2="514.4551"/><ellipse cx="976" cy="525.4551" fill="#84BE84" rx="3" ry="3" style="stroke:#038048;stroke-width:1.0;"/><text fill="#000000" font-family="sans-serif" font-size="11" lengthAdjust="spacing" textLength="164" x="985" y="529.0898">accept(estoque: Estoque): void</text><!--MD5=[d4dacc50d49878ba7c621dfc80a2e1ce]
class Produto--><rect codeLine="2" fill="#FEFECE" filter="url(#fpucakd441s0r)" height="112.7754" id="Produto" style="stroke:#A80036;stroke-width:1.5;" width="239" x="216.5" y="7"/><ellipse cx="309.25" cy="23" fill="#ADD1B2" rx="11" ry="11" style="stroke:#A80036;stroke-width:1.0;"/><path d="M311.7231,29.1431 Q311.1421,29.4419 310.5029,29.5913 Q309.8638,29.7407 309.1582,29.7407 Q306.6514,29.7407 305.3315,28.0889 Q304.0117,26.437 304.0117,23.3159 Q304.0117,20.1865 305.3315,18.5347 Q306.6514,16.8828 309.1582,16.8828 Q309.8638,16.8828 310.5112,17.0322 Q311.1587,17.1816 311.7231,17.4805 L311.7231,20.2031 Q311.0923,19.6221 310.4988,19.3523 Q309.9053,19.0825 309.2744,19.0825 Q307.9297,19.0825 307.2449,20.1492 Q306.5601,21.2158 306.5601,23.3159 Q306.5601,25.4077 307.2449,26.4744 Q307.9297,27.541 309.2744,27.541 Q309.9053,27.541 310.4988,27.2712 Q311.0923,27.0015 311.7231,26.4204 Z " fill="#000000"/><text fill="#000000" font-family="sans-serif" font-size="12" lengthAdjust="spacing" textLength="45" x="329.75" y="27.5352">Produto</text><line style="stroke:#A80036;stroke-width:1.5;" x1="217.5" x2="454.5" y1="39" y2="39"/><rect fill="none" height="6" style="stroke:#C82930;stroke-width:1.0;" width="6" x="224.5" y="47"/><text fill="#000000" font-family="sans-serif" font-size="11" lengthAdjust="spacing" textLength="75" x="236.5" y="53.6348">codigo: String</text><rect fill="none" height="6" style="stroke:#C82930;stroke-width:1.0;" width="6" x="224.5" y="59.9551"/><text fill="#000000" font-family="sans-serif" font-size="11" lengthAdjust="spacing" textLength="68" x="236.5" y="66.5898">nome: String</text><rect fill="none" height="6" style="stroke:#C82930;stroke-width:1.0;" width="6" x="224.5" y="72.9102"/><text fill="#000000" font-family="sans-serif" font-size="11" lengthAdjust="spacing" textLength="80" x="236.5" y="79.5449">quantidade: int</text><rect fill="none" height="6" style="stroke:#C82930;stroke-width:1.0;" width="6" x="224.5" y="85.8652"/><text fill="#000000" font-family="sans-serif" font-size="11" lengthAdjust="spacing" textLength="118" x="236.5" y="92.5">quantidadeMinima: int</text><line style="stroke:#A80036;stroke-width:1.5;" x1="217.5" x2="454.5" y1="98.8203" y2="98.8203"/><ellipse cx="227.5" cy="109.8203" fill="#84BE84" rx="3" ry="3" style="stroke:#038048;stroke-width:1.0;"/><text fill="#000000" font-family="sans-serif" font-size="11" lengthAdjust="spacing" textLength="213" x="236.5" y="113.4551">alterarQuantidade(novaQuantidade: int)</text><!--MD5=[d1377ef569372d0878800e24aaeebcac]
class Estoque--><rect codeLine="11" fill="#FEFECE" filter="url(#fpucakd441s0r)" height="112.7754" id="Estoque" style="stroke:#A80036;stroke-width:1.5;" width="406" x="491" y="7"/><ellipse cx="666.75" cy="23" fill="#ADD1B2" rx="11" ry="11" style="stroke:#A80036;stroke-width:1.0;"/><path d="M669.2231,29.1431 Q668.6421,29.4419 668.0029,29.5913 Q667.3638,29.7407 666.6582,29.7407 Q664.1514,29.7407 662.8315,28.0889 Q661.5117,26.437 661.5117,23.3159 Q661.5117,20.1865 662.8315,18.5347 Q664.1514,16.8828 666.6582,16.8828 Q667.3638,16.8828 668.0112,17.0322 Q668.6587,17.1816 669.2231,17.4805 L669.2231,20.2031 Q668.5923,19.6221 667.9988,19.3523 Q667.4053,19.0825 666.7744,19.0825 Q665.4297,19.0825 664.7449,20.1492 Q664.0601,21.2158 664.0601,23.3159 Q664.0601,25.4077 664.7449,26.4744 Q665.4297,27.541 666.7744,27.541 Q667.4053,27.541 667.9988,27.2712 Q668.5923,27.0015 669.2231,26.4204 Z " fill="#000000"/><text fill="#000000" font-family="sans-serif" font-size="12" lengthAdjust="spacing" textLength="46" x="687.25" y="27.5352">Estoque</text><line style="stroke:#A80036;stroke-width:1.5;" x1="492" x2="896" y1="39" y2="39"/><rect fill="none" height="6" style="stroke:#C82930;stroke-width:1.0;" width="6" x="499" y="47"/><text fill="#000000" font-family="sans-serif" font-size="11" lengthAdjust="spacing" textLength="136" x="511" y="53.6348">produtos: List&lt;Produto&gt;</text><line style="stroke:#A80036;stroke-width:1.5;" x1="492" x2="896" y1="59.9551" y2="59.9551"/><ellipse cx="502" cy="70.9551" fill="#84BE84" rx="3" ry="3" style="stroke:#038048;stroke-width:1.0;"/><text fill="#000000" font-family="sans-serif" font-size="11" lengthAdjust="spacing" textLength="223" x="511" y="74.5898">adicionarProduto(produto: Produto): void</text><ellipse cx="502" cy="83.9102" fill="#84BE84" rx="3" ry="3" style="stroke:#038048;stroke-width:1.0;"/><text fill="#000000" font-family="sans-serif" font-size="11" lengthAdjust="spacing" textLength="380" x="511" y="87.5449">alterarQuantidadeDeProduto(codigo: String, novaQuantidade: int): void</text><ellipse cx="502" cy="96.8652" fill="#84BE84" rx="3" ry="3" style="stroke:#038048;stroke-width:1.0;"/><text fill="#000000" font-family="sans-serif" font-size="11" lengthAdjust="spacing" textLength="170" x="511" y="100.5">listarProdutos(): List&lt;Produto&gt;</text><ellipse cx="502" cy="109.8203" fill="#84BE84" rx="3" ry="3" style="stroke:#038048;stroke-width:1.0;"/><text fill="#000000" font-family="sans-serif" font-size="11" lengthAdjust="spacing" textLength="247" x="511" y="113.4551">listarProdutosAbaixoMinimo(): List&lt;Produto&gt;</text><!--MD5=[67ea9f8eb7ab97465d83c225b092f5fe]
class Consumer--><rect codeLine="19" fill="#FEFECE" filter="url(#fpucakd441s0r)" height="60.9551" id="Consumer" style="stroke:#A80036;stroke-width:1.5;" width="190" x="599" y="193"/><ellipse cx="654.75" cy="209" fill="#B4A7E5" rx="11" ry="11" style="stroke:#A80036;stroke-width:1.0;"/><path d="M651.1777,205.2651 L651.1777,203.1069 L658.5571,203.1069 L658.5571,205.2651 L656.0918,205.2651 L656.0918,213.3418 L658.5571,213.3418 L658.5571,215.5 L651.1777,215.5 L651.1777,213.3418 L653.6431,213.3418 L653.6431,205.2651 Z " fill="#000000"/><text fill="#000000" font-family="sans-serif" font-size="12" font-style="italic" lengthAdjust="spacing" textLength="58" x="675.25" y="213.5352">Consumer</text><rect fill="#FFFFFF" height="16.1328" style="stroke:#000000;stroke-width:1.0;stroke-dasharray:2.0,2.0;" width="10" x="782" y="190"/><text fill="#000000" font-family="sans-serif" font-size="12" font-style="italic" lengthAdjust="spacing" textLength="8" x="783" y="202.6016">T</text><line style="stroke:#A80036;stroke-width:1.5;" x1="600" x2="788" y1="225" y2="225"/><line style="stroke:#A80036;stroke-width:1.5;" x1="600" x2="788" y1="233" y2="233"/><ellipse cx="610" cy="244" fill="#84BE84" rx="3" ry="3" style="stroke:#038048;stroke-width:1.0;"/><text fill="#000000" font-family="sans-serif" font-size="11" lengthAdjust="spacing" textLength="164" x="619" y="247.6348">accept(estoque: Estoque): void</text><!--MD5=[2c16c8c5b6d001d95b2e9f7d64876974]
class ItemDeMenu--><rect codeLine="23" fill="#FEFECE" filter="url(#fpucakd441s0r)" height="60.9551" id="ItemDeMenu" style="stroke:#A80036;stroke-width:1.5;" width="120" x="634" y="327"/><ellipse cx="650.8" cy="343" fill="#B4A7E5" rx="11" ry="11" style="stroke:#A80036;stroke-width:1.0;"/><path d="M647.2277,339.2651 L647.2277,337.1069 L654.6071,337.1069 L654.6071,339.2651 L652.1418,339.2651 L652.1418,347.3418 L654.6071,347.3418 L654.6071,349.5 L647.2277,349.5 L647.2277,347.3418 L649.6931,347.3418 L649.6931,339.2651 Z " fill="#000000"/><text fill="#000000" font-family="sans-serif" font-size="12" font-style="italic" lengthAdjust="spacing" textLength="72" x="665.2" y="347.5352">ItemDeMenu</text><rect fill="#FFFFFF" height="16.1328" style="stroke:#000000;stroke-width:1.0;stroke-dasharray:2.0,2.0;" width="10" x="747" y="324"/><text fill="#000000" font-family="sans-serif" font-size="12" font-style="italic" lengthAdjust="spacing" textLength="8" x="748" y="336.6016">T</text><line style="stroke:#A80036;stroke-width:1.5;" x1="635" x2="753" y1="359" y2="359"/><line style="stroke:#A80036;stroke-width:1.5;" x1="635" x2="753" y1="367" y2="367"/><ellipse cx="645" cy="378" fill="#84BE84" rx="3" ry="3" style="stroke:#038048;stroke-width:1.0;"/><text fill="#000000" font-family="sans-serif" font-size="11" lengthAdjust="spacing" textLength="94" x="654" y="381.6348">getNome(): String</text><!--MD5=[56c17820b5ec61b985b118caeb6340b1]
class Ui--><rect codeLine="74" fill="#FEFECE" filter="url(#fpucakd441s0r)" height="86.8652" id="Ui" style="stroke:#A80036;stroke-width:1.5;" width="193" x="921.5" y="180"/><ellipse cx="1008.25" cy="196" fill="#ADD1B2" rx="11" ry="11" style="stroke:#A80036;stroke-width:1.0;"/><path d="M1010.7231,202.1431 Q1010.1421,202.4419 1009.5029,202.5913 Q1008.8638,202.7407 1008.1582,202.7407 Q1005.6514,202.7407 1004.3315,201.0889 Q1003.0117,199.437 1003.0117,196.3159 Q1003.0117,193.1865 1004.3315,191.5347 Q1005.6514,189.8828 1008.1582,189.8828 Q1008.8638,189.8828 1009.5112,190.0322 Q1010.1587,190.1816 1010.7231,190.4805 L1010.7231,193.2031 Q1010.0923,192.6221 1009.4988,192.3523 Q1008.9053,192.0825 1008.2744,192.0825 Q1006.9297,192.0825 1006.2449,193.1492 Q1005.5601,194.2158 1005.5601,196.3159 Q1005.5601,198.4077 1006.2449,199.4744 Q1006.9297,200.541 1008.2744,200.541 Q1008.9053,200.541 1009.4988,200.2712 Q1010.0923,200.0015 1010.7231,199.4204 Z " fill="#000000"/><text fill="#000000" font-family="sans-serif" font-size="12" lengthAdjust="spacing" textLength="11" x="1028.75" y="200.5352">Ui</text><line style="stroke:#A80036;stroke-width:1.5;" x1="922.5" x2="1113.5" y1="212" y2="212"/><rect fill="none" height="6" style="stroke:#C82930;stroke-width:1.0;" width="6" x="929.5" y="220"/><text fill="#000000" font-family="sans-serif" font-size="11" lengthAdjust="spacing" textLength="167" x="941.5" y="226.6348">acoes : ItemDeMenu&lt;Estoque&gt;</text><line style="stroke:#A80036;stroke-width:1.5;" x1="922.5" x2="1113.5" y1="232.9551" y2="232.9551"/><ellipse cx="932.5" cy="243.9551" fill="#84BE84" rx="3" ry="3" style="stroke:#038048;stroke-width:1.0;"/><text fill="#000000" font-family="sans-serif" font-size="11" lengthAdjust="spacing" textLength="87" x="941.5" y="247.5898">executar() : void</text><ellipse cx="932.5" cy="256.9102" fill="#84BE84" rx="3" ry="3" style="stroke:#038048;stroke-width:1.0;"/><text fill="#000000" font-family="sans-serif" font-size="11" lengthAdjust="spacing" textLength="57" x="941.5" y="260.5449">sair(): void</text><!--MD5=[18826ddc68954886090dcda6a3a893a2]
class Bootstrap--><rect codeLine="81" fill="#FEFECE" filter="url(#fpucakd441s0r)" height="60.9551" id="Bootstrap" style="stroke:#A80036;stroke-width:1.5;" width="87" x="974.5" y="33"/><ellipse cx="989.5" cy="49" fill="#ADD1B2" rx="11" ry="11" style="stroke:#A80036;stroke-width:1.0;"/><path d="M991.9731,55.1431 Q991.3921,55.4419 990.7529,55.5913 Q990.1138,55.7407 989.4082,55.7407 Q986.9014,55.7407 985.5815,54.0889 Q984.2617,52.437 984.2617,49.3159 Q984.2617,46.1865 985.5815,44.5347 Q986.9014,42.8828 989.4082,42.8828 Q990.1138,42.8828 990.7612,43.0322 Q991.4087,43.1816 991.9731,43.4805 L991.9731,46.2031 Q991.3423,45.6221 990.7488,45.3523 Q990.1553,45.0825 989.5244,45.0825 Q988.1797,45.0825 987.4949,46.1492 Q986.8101,47.2158 986.8101,49.3159 Q986.8101,51.4077 987.4949,52.4744 Q988.1797,53.541 989.5244,53.541 Q990.1553,53.541 990.7488,53.2712 Q991.3423,53.0015 991.9731,52.4204 Z " fill="#000000"/><text fill="#000000" font-family="sans-serif" font-size="12" lengthAdjust="spacing" textLength="55" x="1003.5" y="53.5352">Bootstrap</text><line style="stroke:#A80036;stroke-width:1.5;" x1="975.5" x2="1060.5" y1="65" y2="65"/><line style="stroke:#A80036;stroke-width:1.5;" x1="975.5" x2="1060.5" y1="73" y2="73"/><ellipse cx="985.5" cy="84" fill="#84BE84" rx="3" ry="3" style="stroke:#038048;stroke-width:1.0;"/><text fill="#000000" font-family="sans-serif" font-size="11" lengthAdjust="spacing" text-decoration="underline" textLength="60" x="994.5" y="87.6348">main():void</text><!--MD5=[51daa5e855023e74c558497e81ab7374]
reverse link Consumer to ItemDeMenu--><path d="M694,274.23 C694,292 694,311.45 694,326.98 " fill="none" id="Consumer-backto-ItemDeMenu" style="stroke:#A80036;stroke-width:1.0;"/><polygon fill="none" points="687,274.12,694,254.12,701,274.12,687,274.12" style="stroke:#A80036;stroke-width:1.0;"/><!--MD5=[99d5866db086671cef03bda79e35ec05]
reverse link ItemDeMenu to AdicionarProduto--><path d="M738.72,402.58 C755.65,419.28 774.89,438.24 791.69,454.81 " fill="none" id="ItemDeMenu-backto-AdicionarProduto" style="stroke:#A80036;stroke-width:1.0;stroke-dasharray:7.0,7.0;"/><polygon fill="none" points="733.58,407.34,724.25,388.32,743.41,397.37,733.58,407.34" style="stroke:#A80036;stroke-width:1.0;"/><!--MD5=[31bae6d838cd7d8f3e954ca103b2c4db]
reverse link ItemDeMenu to AlterarQuantidade--><path d="M665.5,405.66 C655.88,421.58 645.2,439.25 635.8,454.81 " fill="none" id="ItemDeMenu-backto-AlterarQuantidade" style="stroke:#A80036;stroke-width:1.0;stroke-dasharray:7.0,7.0;"/><polygon fill="none" points="659.64,401.82,675.98,388.32,671.63,409.06,659.64,401.82" style="stroke:#A80036;stroke-width:1.0;"/><!--MD5=[0bea12316a2f276bb7aa2159f503c1d6]
reverse link ItemDeMenu to ListarProdutos--><path d="M613.92,363.94 C577.11,368.88 533.79,378.25 498,396 C466.34,411.7 436.87,438.77 415.96,461.01 " fill="none" id="ItemDeMenu-backto-ListarProdutos" style="stroke:#A80036;stroke-width:1.0;stroke-dasharray:7.0,7.0;"/><polygon fill="none" points="613.2,356.98,633.88,361.6,614.83,370.88,613.2,356.98" style="stroke:#A80036;stroke-width:1.0;"/><!--MD5=[3c973b4e41d67ef0267c72e886781853]
reverse link ItemDeMenu to ListarProdutosAbaixoMinimo--><path d="M613.66,359.71 C508.76,362.3 331.49,370.43 272,396 C238.48,410.4 207.9,438.46 186.72,461.43 " fill="none" id="ItemDeMenu-backto-ListarProdutosAbaixoMinimo" style="stroke:#A80036;stroke-width:1.0;stroke-dasharray:7.0,7.0;"/><polygon fill="none" points="613.79,352.7,633.94,359.25,614.1,366.7,613.79,352.7" style="stroke:#A80036;stroke-width:1.0;"/><!--MD5=[d71709ff8da3f387c7e24b901ca6e7ac]
reverse link ItemDeMenu to Sair--><path d="M774.27,365.24 C836.84,371.43 917.97,381.81 948,396 C980.15,411.19 1009.64,438.74 1030.28,461.3 " fill="none" id="ItemDeMenu-backto-Sair" style="stroke:#A80036;stroke-width:1.0;stroke-dasharray:7.0,7.0;"/><polygon fill="none" points="773.53,372.2,754.28,363.34,774.86,358.26,773.53,372.2" style="stroke:#A80036;stroke-width:1.0;"/><!--MD5=[a4d4b9a9cb4d843dfa5e6140e79ce883]
link Bootstrap to Ui--><path codeLine="86" d="M1018,94.22 C1018,118.35 1018,152.71 1018,179.79 " fill="none" id="Bootstrap-Ui" style="stroke:#A80036;stroke-width:1.0;stroke-dasharray:7.0,7.0;"/><!--MD5=[7e0bb9c78f38907a8366362ce5f5ce46]
link Ui to ItemDeMenu--><path codeLine="87" d="M921.23,263.93 C868.77,285.3 805.35,311.13 758.86,330.08 " fill="none" id="Ui-to-ItemDeMenu" style="stroke:#A80036;stroke-width:1.0;"/><polygon fill="#A80036" points="754.13,332,763.974,332.3087,758.7605,330.1135,760.9556,324.9,754.13,332" style="stroke:#A80036;stroke-width:1.0;"/><!--MD5=[764c25a24799d60fe777a4331bea6597]
link Sair to Ui--><path codeLine="88" d="M1054.42,461.25 C1046.94,412.62 1033.64,326.16 1025.35,272.27 " fill="none" id="Sair-to-Ui" style="stroke:#A80036;stroke-width:1.0;"/><polygon fill="#A80036" points="1024.56,267.16,1021.9688,276.6619,1025.3171,272.1024,1029.8766,275.4506,1024.56,267.16" style="stroke:#A80036;stroke-width:1.0;"/><!--MD5=[003028bef78b5236effd17f9ca57284a]
link Estoque to Consumer--><path codeLine="89" d="M694,120.2 C694,144.73 694,172.54 694,192.96 " fill="none" id="Estoque-Consumer" style="stroke:#A80036;stroke-width:1.0;stroke-dasharray:7.0,7.0;"/><!--MD5=[45b38803421477f482b93907cbeba594]
link acoes to helper--><path d="M24,566.2656 C24,566.6041 24,566.9431 24,567.2827 C24,569.9989 24,572.746 24,575.5136 C24,581.0489 24,586.6664 24,592.2838 C24,595.0924 24,597.901 24,600.6993 C24,602.0985 24,603.495 24,604.8877 C24,605.2359 24,605.5838 24,605.9315 " fill="none" id="acoes-helper" style="stroke:#A80036;stroke-width:1.0;stroke-dasharray:7.0,7.0;"/><!--MD5=[e67fc4a309e0568a280508c3ef2cadcc]
reverse link Produto to Estoque--><path codeLine="91" d="M460.82,63.5 C470.87,63.5 480.91,63.5 490.96,63.5 " fill="none" id="Produto-backto-Estoque" style="stroke:#A80036;stroke-width:1.0;"/><polygon fill="#A80036" points="455.57,63.5,464.57,67.5,460.57,63.5,464.57,59.5,455.57,63.5" style="stroke:#A80036;stroke-width:1.0;"/><!--MD5=[1dcaeb5c29258c5d423319420f9e6bbc]
@startuml controle-de-estoque

class Produto {
  - codigo: String
  - nome: String
  - quantidade: int
  - quantidadeMinima: int

  + alterarQuantidade(novaQuantidade: int)
}

class Estoque {
  - produtos: List<Produto>
  + adicionarProduto(produto: Produto): void
  + alterarQuantidadeDeProduto(codigo: String, novaQuantidade: int): void
  + listarProdutos(): List<Produto>
  + listarProdutosAbaixoMinimo(): List<Produto>
}

interface Consumer<T> {
  + accept(estoque: Estoque): void
}

interface ItemDeMenu<T> extends Consumer {
  + getNome(): String
}

package helper {
  class SimpleLogger {
    + imprimirLinha(texto: String): void
    + imprimir(texto: String): void
  }

  class SimpleInput {
    + lerLinha(): String
    + lerInteiro(): int
  }
}

package acoes {

  class AdicionarProduto implements ItemDeMenu {
    - logger: SimpleLogger
    - input: SimpleInput

    + accept(estoque: Estoque): void
  }

  class AlterarQuantidade implements ItemDeMenu {
    - logger: SimpleLogger
    - input: SimpleInput

    + accept(estoque: Estoque): void
  }

  class ListarProdutos implements ItemDeMenu {
    - logger: SimpleLogger

    + accept(estoque: Estoque): void
  }
  
  class ListarProdutosAbaixoMinimo implements ItemDeMenu {
    - logger: SimpleLogger

    + accept(estoque: Estoque): void
  }

  class Sair implements ItemDeMenu {
    - ui: Ui
    + accept(estoque: Estoque): void
  }

}

class Ui {
  - acoes : ItemDeMenu<Estoque>

  + executar() : void
  + sair(): void
}

class Bootstrap {
  + {static} main():void
}


Bootstrap .. Ui
Ui - -> ItemDeMenu
Sair - -> Ui
Consumer .up. Estoque
acoes .up. helper
Estoque -left-> Produto

@enduml

PlantUML version 1.2022.0(Tue Jan 11 13:16:42 BRT 2022)
(GPL source distribution)
Java Runtime: OpenJDK Runtime Environment
JVM: OpenJDK 64-Bit Server VM
Default Encoding: UTF-8
Language: en
Country: BR
--></g></svg>