<?xml version="1.0" encoding="UTF-8" standalone="no"?><svg xmlns="http://www.w3.org/2000/svg" xmlns:xlink="http://www.w3.org/1999/xlink" contentScriptType="application/ecmascript" contentStyleType="text/css" height="754px" preserveAspectRatio="none" style="width:1190px;height:754px;background:#FFFFFF;" version="1.1" viewBox="0 0 1190 754" width="1190px" zoomAndPan="magnify"><defs><filter height="300%" id="f1tgtkc0ba4sf9" width="300%" x="-1" y="-1"><feGaussianBlur result="blurOut" stdDeviation="2.0"/><feColorMatrix in="blurOut" result="blurOut2" type="matrix" values="0 0 0 0 0 0 0 0 0 0 0 0 0 0 0 0 0 0 .4 0"/><feOffset dx="4.0" dy="4.0" in="blurOut2" result="blurOut3"/><feBlend in="SourceGraphic" in2="blurOut3" mode="normal"/></filter></defs><g><!--MD5=[be48e98a4ad7f5f2a1ba2465e5010d2c]
cluster helper--><polygon fill="#FFFFFF" filter="url(#f1tgtkc0ba4sf9)" points="16,606,67,606,74,628.4883,438,628.4883,438,747,16,747,16,606" style="stroke:#000000;stroke-width:1.5;"/><line style="stroke:#000000;stroke-width:1.5;" x1="16" x2="74" y1="628.4883" y2="628.4883"/><text fill="#000000" font-family="sans-serif" font-size="14" font-weight="bold" lengthAdjust="spacing" textLength="45" x="20" y="621.5352">helper</text><!--MD5=[b461637e81ce7210cdb994ce8bfacdcf]
cluster acoes--><polygon fill="#FFFFFF" filter="url(#f1tgtkc0ba4sf9)" points="16,412,62,412,69,434.4883,1173,434.4883,1173,566,16,566,16,412" style="stroke:#000000;stroke-width:1.5;"/><line style="stroke:#000000;stroke-width:1.5;" x1="16" x2="69" y1="434.4883" y2="434.4883"/><text fill="#000000" font-family="sans-serif" font-size="14" font-weight="bold" lengthAdjust="spacing" textLength="40" x="20" y="427.5352">acoes</text><!--MD5=[bcd645a24a7aa549381c6f2be29e5165]
class SimpleLogger--><rect codeLine="28" fill="#FEFECE" filter="url(#f1tgtkc0ba4sf9)" height="73.9102" id="SimpleLogger" style="stroke:#A80036;stroke-width:1.5;" width="204" x="210" y="649"/><ellipse cx="269.25" cy="665" fill="#ADD1B2" rx="11" ry="11" style="stroke:#A80036;stroke-width:1.0;"/><path d="M271.7231,671.1431 Q271.1421,671.4419 270.5029,671.5913 Q269.8638,671.7407 269.1582,671.7407 Q266.6514,671.7407 265.3315,670.0889 Q264.0117,668.437 264.0117,665.3159 Q264.0117,662.1865 265.3315,660.5347 Q266.6514,658.8828 269.1582,658.8828 Q269.8638,658.8828 270.5112,659.0322 Q271.1587,659.1816 271.7231,659.4805 L271.7231,662.2031 Q271.0923,661.6221 270.4988,661.3523 Q269.9053,661.0825 269.2744,661.0825 Q267.9297,661.0825 267.2449,662.1492 Q266.5601,663.2158 266.5601,665.3159 Q266.5601,667.4077 267.2449,668.4744 Q267.9297,669.541 269.2744,669.541 Q269.9053,669.541 270.4988,669.2712 Q271.0923,669.0015 271.7231,668.4204 Z " fill="#000000"/><text fill="#000000" font-family="sans-serif" font-size="12" lengthAdjust="spacing" textLength="77" x="289.75" y="669.5352">SimpleLogger</text><line style="stroke:#A80036;stroke-width:1.5;" x1="211" x2="413" y1="681" y2="681"/><line style="stroke:#A80036;stroke-width:1.5;" x1="211" x2="413" y1="689" y2="689"/><ellipse cx="221" cy="700" fill="#84BE84" rx="3" ry="3" style="stroke:#038048;stroke-width:1.0;"/><text fill="#000000" font-family="sans-serif" font-size="11" lengthAdjust="spacing" textLength="178" x="230" y="703.6348">imprimirLinha(texto: String): void</text><ellipse cx="221" cy="712.9551" fill="#84BE84" rx="3" ry="3" style="stroke:#038048;stroke-width:1.0;"/><text fill="#000000" font-family="sans-serif" font-size="11" lengthAdjust="spacing" textLength="149" x="230" y="716.5898">imprimir(texto: String): void</text><!--MD5=[b80c6f0a6b96ead0571de96351b47769]
class SimpleInput--><rect codeLine="33" fill="#FEFECE" filter="url(#f1tgtkc0ba4sf9)" height="73.9102" id="SimpleInput" style="stroke:#A80036;stroke-width:1.5;" width="115" x="59.5" y="649"/><ellipse cx="81.7" cy="665" fill="#ADD1B2" rx="11" ry="11" style="stroke:#A80036;stroke-width:1.0;"/><path d="M84.1731,671.1431 Q83.5921,671.4419 82.9529,671.5913 Q82.3138,671.7407 81.6082,671.7407 Q79.1014,671.7407 77.7815,670.0889 Q76.4617,668.437 76.4617,665.3159 Q76.4617,662.1865 77.7815,660.5347 Q79.1014,658.8828 81.6082,658.8828 Q82.3138,658.8828 82.9612,659.0322 Q83.6087,659.1816 84.1731,659.4805 L84.1731,662.2031 Q83.5423,661.6221 82.9488,661.3523 Q82.3553,661.0825 81.7244,661.0825 Q80.3797,661.0825 79.6949,662.1492 Q79.0101,663.2158 79.0101,665.3159 Q79.0101,667.4077 79.6949,668.4744 Q80.3797,669.541 81.7244,669.541 Q82.3553,669.541 82.9488,669.2712 Q83.5423,669.0015 84.1731,668.4204 Z " fill="#000000"/><text fill="#000000" font-family="sans-serif" font-size="12" lengthAdjust="spacing" textLength="67" x="97.3" y="669.5352">SimpleInput</text><line style="stroke:#A80036;stroke-width:1.5;" x1="60.5" x2="173.5" y1="681" y2="681"/><line style="stroke:#A80036;stroke-width:1.5;" x1="60.5" x2="173.5" y1="689" y2="689"/><ellipse cx="70.5" cy="700" fill="#84BE84" rx="3" ry="3" style="stroke:#038048;stroke-width:1.0;"/><text fill="#000000" font-family="sans-serif" font-size="11" lengthAdjust="spacing" textLength="89" x="79.5" y="703.6348">lerLinha(): String</text><ellipse cx="70.5" cy="712.9551" fill="#84BE84" rx="3" ry="3" style="stroke:#038048;stroke-width:1.0;"/><text fill="#000000" font-family="sans-serif" font-size="11" lengthAdjust="spacing" textLength="77" x="79.5" y="716.5898">lerInteiro(): int</text><!--MD5=[cff6ef18e58ad8f957e2a6894e086de6]
class AdicionarProduto--><rect codeLine="41" fill="#FEFECE" filter="url(#f1tgtkc0ba4sf9)" height="86.8652" id="AdicionarProduto" style="stroke:#A80036;stroke-width:1.5;" width="190" x="734" y="455"/><ellipse cx="775.55" cy="471" fill="#ADD1B2" rx="11" ry="11" style="stroke:#A80036;stroke-width:1.0;"/><path d="M778.0231,477.1431 Q777.4421,477.4419 776.8029,477.5913 Q776.1638,477.7407 775.4582,477.7407 Q772.9514,477.7407 771.6315,476.0889 Q770.3117,474.437 770.3117,471.3159 Q770.3117,468.1865 771.6315,466.5347 Q772.9514,464.8828 775.4582,464.8828 Q776.1638,464.8828 776.8112,465.0322 Q777.4587,465.1816 778.0231,465.4805 L778.0231,468.2031 Q777.3923,467.6221 776.7988,467.3523 Q776.2053,467.0825 775.5744,467.0825 Q774.2297,467.0825 773.5449,468.1492 Q772.8601,469.2158 772.8601,471.3159 Q772.8601,473.4077 773.5449,474.4744 Q774.2297,475.541 775.5744,475.541 Q776.2053,475.541 776.7988,475.2712 Q777.3923,475.0015 778.0231,474.4204 Z " fill="#000000"/><text fill="#000000" font-family="sans-serif" font-size="12" lengthAdjust="spacing" textLength="99" x="795.45" y="475.5352">AdicionarProduto</text><line style="stroke:#A80036;stroke-width:1.5;" x1="735" x2="923" y1="487" y2="487"/><rect fill="none" height="6" style="stroke:#C82930;stroke-width:1.0;" width="6" x="742" y="495"/><text fill="#000000" font-family="sans-serif" font-size="11" lengthAdjust="spacing" textLength="114" x="754" y="501.6348">logger: SimpleLogger</text><rect fill="none" height="6" style="stroke:#C82930;stroke-width:1.0;" width="6" x="742" y="507.9551"/><text fill="#000000" font-family="sans-serif" font-size="11" lengthAdjust="spacing" textLength="97" x="754" y="514.5898">input: SimpleInput</text><line style="stroke:#A80036;stroke-width:1.5;" x1="735" x2="923" y1="520.9102" y2="520.9102"/><ellipse cx="745" cy="531.9102" fill="#84BE84" rx="3" ry="3" style="stroke:#038048;stroke-width:1.0;"/><text fill="#000000" font-family="sans-serif" font-size="11" lengthAdjust="spacing" textLength="164" x="754" y="535.5449">accept(estoque: Estoque): void</text><!--MD5=[8cae91255190f767c455af1e5b8138a2]
class AdicionarQuantidade--><rect codeLine="48" fill="#FEFECE" filter="url(#f1tgtkc0ba4sf9)" height="86.8652" id="AdicionarQuantidade" style="stroke:#A80036;stroke-width:1.5;" width="190" x="509" y="455"/><ellipse cx="540.65" cy="471" fill="#ADD1B2" rx="11" ry="11" style="stroke:#A80036;stroke-width:1.0;"/><path d="M543.1231,477.1431 Q542.5421,477.4419 541.9029,477.5913 Q541.2638,477.7407 540.5582,477.7407 Q538.0514,477.7407 536.7315,476.0889 Q535.4117,474.437 535.4117,471.3159 Q535.4117,468.1865 536.7315,466.5347 Q538.0514,464.8828 540.5582,464.8828 Q541.2638,464.8828 541.9112,465.0322 Q542.5587,465.1816 543.1231,465.4805 L543.1231,468.2031 Q542.4923,467.6221 541.8988,467.3523 Q541.3053,467.0825 540.6744,467.0825 Q539.3297,467.0825 538.6449,468.1492 Q537.9601,469.2158 537.9601,471.3159 Q537.9601,473.4077 538.6449,474.4744 Q539.3297,475.541 540.6744,475.541 Q541.3053,475.541 541.8988,475.2712 Q542.4923,475.0015 543.1231,474.4204 Z " fill="#000000"/><text fill="#000000" font-family="sans-serif" font-size="12" lengthAdjust="spacing" textLength="121" x="558.35" y="475.5352">AdicionarQuantidade</text><line style="stroke:#A80036;stroke-width:1.5;" x1="510" x2="698" y1="487" y2="487"/><rect fill="none" height="6" style="stroke:#C82930;stroke-width:1.0;" width="6" x="517" y="495"/><text fill="#000000" font-family="sans-serif" font-size="11" lengthAdjust="spacing" textLength="114" x="529" y="501.6348">logger: SimpleLogger</text><rect fill="none" height="6" style="stroke:#C82930;stroke-width:1.0;" width="6" x="517" y="507.9551"/><text fill="#000000" font-family="sans-serif" font-size="11" lengthAdjust="spacing" textLength="97" x="529" y="514.5898">input: SimpleInput</text><line style="stroke:#A80036;stroke-width:1.5;" x1="510" x2="698" y1="520.9102" y2="520.9102"/><ellipse cx="520" cy="531.9102" fill="#84BE84" rx="3" ry="3" style="stroke:#038048;stroke-width:1.0;"/><text fill="#000000" font-family="sans-serif" font-size="11" lengthAdjust="spacing" textLength="164" x="529" y="535.5449">accept(estoque: Estoque): void</text><!--MD5=[0c066ffefacf386133ad7b16e5ac2b2d]
class RemoverQuantidade--><rect codeLine="56" fill="#FEFECE" filter="url(#f1tgtkc0ba4sf9)" height="86.8652" id="RemoverQuantidade" style="stroke:#A80036;stroke-width:1.5;" width="190" x="284" y="455"/><ellipse cx="317" cy="471" fill="#ADD1B2" rx="11" ry="11" style="stroke:#A80036;stroke-width:1.0;"/><path d="M319.4731,477.1431 Q318.8921,477.4419 318.2529,477.5913 Q317.6138,477.7407 316.9082,477.7407 Q314.4014,477.7407 313.0815,476.0889 Q311.7617,474.437 311.7617,471.3159 Q311.7617,468.1865 313.0815,466.5347 Q314.4014,464.8828 316.9082,464.8828 Q317.6138,464.8828 318.2612,465.0322 Q318.9087,465.1816 319.4731,465.4805 L319.4731,468.2031 Q318.8423,467.6221 318.2488,467.3523 Q317.6553,467.0825 317.0244,467.0825 Q315.6797,467.0825 314.9949,468.1492 Q314.3101,469.2158 314.3101,471.3159 Q314.3101,473.4077 314.9949,474.4744 Q315.6797,475.541 317.0244,475.541 Q317.6553,475.541 318.2488,475.2712 Q318.8423,475.0015 319.4731,474.4204 Z " fill="#000000"/><text fill="#000000" font-family="sans-serif" font-size="12" lengthAdjust="spacing" textLength="118" x="335" y="475.5352">RemoverQuantidade</text><line style="stroke:#A80036;stroke-width:1.5;" x1="285" x2="473" y1="487" y2="487"/><rect fill="none" height="6" style="stroke:#C82930;stroke-width:1.0;" width="6" x="292" y="495"/><text fill="#000000" font-family="sans-serif" font-size="11" lengthAdjust="spacing" textLength="114" x="304" y="501.6348">logger: SimpleLogger</text><rect fill="none" height="6" style="stroke:#C82930;stroke-width:1.0;" width="6" x="292" y="507.9551"/><text fill="#000000" font-family="sans-serif" font-size="11" lengthAdjust="spacing" textLength="97" x="304" y="514.5898">input: SimpleInput</text><line style="stroke:#A80036;stroke-width:1.5;" x1="285" x2="473" y1="520.9102" y2="520.9102"/><ellipse cx="295" cy="531.9102" fill="#84BE84" rx="3" ry="3" style="stroke:#038048;stroke-width:1.0;"/><text fill="#000000" font-family="sans-serif" font-size="11" lengthAdjust="spacing" textLength="164" x="304" y="535.5449">accept(estoque: Estoque): void</text><!--MD5=[b134ad91523b690fa3ad0d9a3c75c474]
class ListarProdutos--><rect codeLine="63" fill="#FEFECE" filter="url(#f1tgtkc0ba4sf9)" height="73.9102" id="ListarProdutos" style="stroke:#A80036;stroke-width:1.5;" width="190" x="59" y="461.5"/><ellipse cx="108.75" cy="477.5" fill="#ADD1B2" rx="11" ry="11" style="stroke:#A80036;stroke-width:1.0;"/><path d="M111.2231,483.6431 Q110.6421,483.9419 110.0029,484.0913 Q109.3638,484.2407 108.6582,484.2407 Q106.1514,484.2407 104.8315,482.5889 Q103.5117,480.937 103.5117,477.8159 Q103.5117,474.6865 104.8315,473.0347 Q106.1514,471.3828 108.6582,471.3828 Q109.3638,471.3828 110.0112,471.5322 Q110.6587,471.6816 111.2231,471.9805 L111.2231,474.7031 Q110.5923,474.1221 109.9988,473.8523 Q109.4053,473.5825 108.7744,473.5825 Q107.4297,473.5825 106.7449,474.6492 Q106.0601,475.7158 106.0601,477.8159 Q106.0601,479.9077 106.7449,480.9744 Q107.4297,482.041 108.7744,482.041 Q109.4053,482.041 109.9988,481.7712 Q110.5923,481.5015 111.2231,480.9204 Z " fill="#000000"/><text fill="#000000" font-family="sans-serif" font-size="12" lengthAdjust="spacing" textLength="82" x="129.25" y="482.0352">ListarProdutos</text><line style="stroke:#A80036;stroke-width:1.5;" x1="60" x2="248" y1="493.5" y2="493.5"/><rect fill="none" height="6" style="stroke:#C82930;stroke-width:1.0;" width="6" x="67" y="501.5"/><text fill="#000000" font-family="sans-serif" font-size="11" lengthAdjust="spacing" textLength="114" x="79" y="508.1348">logger: SimpleLogger</text><line style="stroke:#A80036;stroke-width:1.5;" x1="60" x2="248" y1="514.4551" y2="514.4551"/><ellipse cx="70" cy="525.4551" fill="#84BE84" rx="3" ry="3" style="stroke:#038048;stroke-width:1.0;"/><text fill="#000000" font-family="sans-serif" font-size="11" lengthAdjust="spacing" textLength="164" x="79" y="529.0898">accept(estoque: Estoque): void</text><!--MD5=[df457111095510ce13215b59182cab45]
class Sair--><rect codeLine="69" fill="#FEFECE" filter="url(#f1tgtkc0ba4sf9)" height="73.9102" id="Sair" style="stroke:#A80036;stroke-width:1.5;" width="190" x="959" y="461.5"/><ellipse cx="1039.25" cy="477.5" fill="#ADD1B2" rx="11" ry="11" style="stroke:#A80036;stroke-width:1.0;"/><path d="M1041.7231,483.6431 Q1041.1421,483.9419 1040.5029,484.0913 Q1039.8638,484.2407 1039.1582,484.2407 Q1036.6514,484.2407 1035.3315,482.5889 Q1034.0117,480.937 1034.0117,477.8159 Q1034.0117,474.6865 1035.3315,473.0347 Q1036.6514,471.3828 1039.1582,471.3828 Q1039.8638,471.3828 1040.5112,471.5322 Q1041.1587,471.6816 1041.7231,471.9805 L1041.7231,474.7031 Q1041.0923,474.1221 1040.4988,473.8523 Q1039.9053,473.5825 1039.2744,473.5825 Q1037.9297,473.5825 1037.2449,474.6492 Q1036.5601,475.7158 1036.5601,477.8159 Q1036.5601,479.9077 1037.2449,480.9744 Q1037.9297,482.041 1039.2744,482.041 Q1039.9053,482.041 1040.4988,481.7712 Q1041.0923,481.5015 1041.7231,480.9204 Z " fill="#000000"/><text fill="#000000" font-family="sans-serif" font-size="12" lengthAdjust="spacing" textLength="21" x="1059.75" y="482.0352">Sair</text><line style="stroke:#A80036;stroke-width:1.5;" x1="960" x2="1148" y1="493.5" y2="493.5"/><rect fill="none" height="6" style="stroke:#C82930;stroke-width:1.0;" width="6" x="967" y="501.5"/><text fill="#000000" font-family="sans-serif" font-size="11" lengthAdjust="spacing" textLength="27" x="979" y="508.1348">ui: Ui</text><line style="stroke:#A80036;stroke-width:1.5;" x1="960" x2="1148" y1="514.4551" y2="514.4551"/><ellipse cx="970" cy="525.4551" fill="#84BE84" rx="3" ry="3" style="stroke:#038048;stroke-width:1.0;"/><text fill="#000000" font-family="sans-serif" font-size="11" lengthAdjust="spacing" textLength="164" x="979" y="529.0898">accept(estoque: Estoque): void</text><!--MD5=[d4dacc50d49878ba7c621dfc80a2e1ce]
class Produto--><rect codeLine="2" fill="#FEFECE" filter="url(#f1tgtkc0ba4sf9)" height="112.7754" id="Produto" style="stroke:#A80036;stroke-width:1.5;" width="239" x="210.5" y="7"/><ellipse cx="303.25" cy="23" fill="#ADD1B2" rx="11" ry="11" style="stroke:#A80036;stroke-width:1.0;"/><path d="M305.7231,29.1431 Q305.1421,29.4419 304.5029,29.5913 Q303.8638,29.7407 303.1582,29.7407 Q300.6514,29.7407 299.3315,28.0889 Q298.0117,26.437 298.0117,23.3159 Q298.0117,20.1865 299.3315,18.5347 Q300.6514,16.8828 303.1582,16.8828 Q303.8638,16.8828 304.5112,17.0322 Q305.1587,17.1816 305.7231,17.4805 L305.7231,20.2031 Q305.0923,19.6221 304.4988,19.3523 Q303.9053,19.0825 303.2744,19.0825 Q301.9297,19.0825 301.2449,20.1492 Q300.5601,21.2158 300.5601,23.3159 Q300.5601,25.4077 301.2449,26.4744 Q301.9297,27.541 303.2744,27.541 Q303.9053,27.541 304.4988,27.2712 Q305.0923,27.0015 305.7231,26.4204 Z " fill="#000000"/><text fill="#000000" font-family="sans-serif" font-size="12" lengthAdjust="spacing" textLength="45" x="323.75" y="27.5352">Produto</text><line style="stroke:#A80036;stroke-width:1.5;" x1="211.5" x2="448.5" y1="39" y2="39"/><rect fill="none" height="6" style="stroke:#C82930;stroke-width:1.0;" width="6" x="218.5" y="47"/><text fill="#000000" font-family="sans-serif" font-size="11" lengthAdjust="spacing" textLength="75" x="230.5" y="53.6348">codigo: String</text><rect fill="none" height="6" style="stroke:#C82930;stroke-width:1.0;" width="6" x="218.5" y="59.9551"/><text fill="#000000" font-family="sans-serif" font-size="11" lengthAdjust="spacing" textLength="68" x="230.5" y="66.5898">nome: String</text><rect fill="none" height="6" style="stroke:#C82930;stroke-width:1.0;" width="6" x="218.5" y="72.9102"/><text fill="#000000" font-family="sans-serif" font-size="11" lengthAdjust="spacing" textLength="80" x="230.5" y="79.5449">quantidade: int</text><rect fill="none" height="6" style="stroke:#C82930;stroke-width:1.0;" width="6" x="218.5" y="85.8652"/><text fill="#000000" font-family="sans-serif" font-size="11" lengthAdjust="spacing" textLength="118" x="230.5" y="92.5">quantidadeMinima: int</text><line style="stroke:#A80036;stroke-width:1.5;" x1="211.5" x2="448.5" y1="98.8203" y2="98.8203"/><ellipse cx="221.5" cy="109.8203" fill="#84BE84" rx="3" ry="3" style="stroke:#038048;stroke-width:1.0;"/><text fill="#000000" font-family="sans-serif" font-size="11" lengthAdjust="spacing" textLength="213" x="230.5" y="113.4551">alterarQuantidade(novaQuantidade: int)</text><!--MD5=[d1377ef569372d0878800e24aaeebcac]
class Estoque--><rect codeLine="11" fill="#FEFECE" filter="url(#f1tgtkc0ba4sf9)" height="112.7754" id="Estoque" style="stroke:#A80036;stroke-width:1.5;" width="406" x="485" y="7"/><ellipse cx="660.75" cy="23" fill="#ADD1B2" rx="11" ry="11" style="stroke:#A80036;stroke-width:1.0;"/><path d="M663.2231,29.1431 Q662.6421,29.4419 662.0029,29.5913 Q661.3638,29.7407 660.6582,29.7407 Q658.1514,29.7407 656.8315,28.0889 Q655.5117,26.437 655.5117,23.3159 Q655.5117,20.1865 656.8315,18.5347 Q658.1514,16.8828 660.6582,16.8828 Q661.3638,16.8828 662.0112,17.0322 Q662.6587,17.1816 663.2231,17.4805 L663.2231,20.2031 Q662.5923,19.6221 661.9988,19.3523 Q661.4053,19.0825 660.7744,19.0825 Q659.4297,19.0825 658.7449,20.1492 Q658.0601,21.2158 658.0601,23.3159 Q658.0601,25.4077 658.7449,26.4744 Q659.4297,27.541 660.7744,27.541 Q661.4053,27.541 661.9988,27.2712 Q662.5923,27.0015 663.2231,26.4204 Z " fill="#000000"/><text fill="#000000" font-family="sans-serif" font-size="12" lengthAdjust="spacing" textLength="46" x="681.25" y="27.5352">Estoque</text><line style="stroke:#A80036;stroke-width:1.5;" x1="486" x2="890" y1="39" y2="39"/><rect fill="none" height="6" style="stroke:#C82930;stroke-width:1.0;" width="6" x="493" y="47"/><text fill="#000000" font-family="sans-serif" font-size="11" lengthAdjust="spacing" textLength="136" x="505" y="53.6348">produtos: List&lt;Produto&gt;</text><line style="stroke:#A80036;stroke-width:1.5;" x1="486" x2="890" y1="59.9551" y2="59.9551"/><ellipse cx="496" cy="70.9551" fill="#84BE84" rx="3" ry="3" style="stroke:#038048;stroke-width:1.0;"/><text fill="#000000" font-family="sans-serif" font-size="11" lengthAdjust="spacing" textLength="223" x="505" y="74.5898">adicionarProduto(produto: Produto): void</text><ellipse cx="496" cy="83.9102" fill="#84BE84" rx="3" ry="3" style="stroke:#038048;stroke-width:1.0;"/><text fill="#000000" font-family="sans-serif" font-size="11" lengthAdjust="spacing" textLength="380" x="505" y="87.5449">alterarQuantidadeDeProduto(codigo: String, novaQuantidade: int): void</text><ellipse cx="496" cy="96.8652" fill="#84BE84" rx="3" ry="3" style="stroke:#038048;stroke-width:1.0;"/><text fill="#000000" font-family="sans-serif" font-size="11" lengthAdjust="spacing" textLength="170" x="505" y="100.5">listarProdutos(): List&lt;Produto&gt;</text><ellipse cx="496" cy="109.8203" fill="#84BE84" rx="3" ry="3" style="stroke:#038048;stroke-width:1.0;"/><text fill="#000000" font-family="sans-serif" font-size="11" lengthAdjust="spacing" textLength="247" x="505" y="113.4551">listarProdutosAbaixoMinimo(): List&lt;Produto&gt;</text><!--MD5=[67ea9f8eb7ab97465d83c225b092f5fe]
class Consumer--><rect codeLine="19" fill="#FEFECE" filter="url(#f1tgtkc0ba4sf9)" height="60.9551" id="Consumer" style="stroke:#A80036;stroke-width:1.5;" width="190" x="593" y="193"/><ellipse cx="648.75" cy="209" fill="#B4A7E5" rx="11" ry="11" style="stroke:#A80036;stroke-width:1.0;"/><path d="M645.1777,205.2651 L645.1777,203.1069 L652.5571,203.1069 L652.5571,205.2651 L650.0918,205.2651 L650.0918,213.3418 L652.5571,213.3418 L652.5571,215.5 L645.1777,215.5 L645.1777,213.3418 L647.6431,213.3418 L647.6431,205.2651 Z " fill="#000000"/><text fill="#000000" font-family="sans-serif" font-size="12" font-style="italic" lengthAdjust="spacing" textLength="58" x="669.25" y="213.5352">Consumer</text><rect fill="#FFFFFF" height="16.1328" style="stroke:#000000;stroke-width:1.0;stroke-dasharray:2.0,2.0;" width="10" x="776" y="190"/><text fill="#000000" font-family="sans-serif" font-size="12" font-style="italic" lengthAdjust="spacing" textLength="8" x="777" y="202.6016">T</text><line style="stroke:#A80036;stroke-width:1.5;" x1="594" x2="782" y1="225" y2="225"/><line style="stroke:#A80036;stroke-width:1.5;" x1="594" x2="782" y1="233" y2="233"/><ellipse cx="604" cy="244" fill="#84BE84" rx="3" ry="3" style="stroke:#038048;stroke-width:1.0;"/><text fill="#000000" font-family="sans-serif" font-size="11" lengthAdjust="spacing" textLength="164" x="613" y="247.6348">accept(estoque: Estoque): void</text><!--MD5=[2c16c8c5b6d001d95b2e9f7d64876974]
class ItemDeMenu--><rect codeLine="23" fill="#FEFECE" filter="url(#f1tgtkc0ba4sf9)" height="60.9551" id="ItemDeMenu" style="stroke:#A80036;stroke-width:1.5;" width="120" x="628" y="327"/><ellipse cx="644.8" cy="343" fill="#B4A7E5" rx="11" ry="11" style="stroke:#A80036;stroke-width:1.0;"/><path d="M641.2277,339.2651 L641.2277,337.1069 L648.6071,337.1069 L648.6071,339.2651 L646.1418,339.2651 L646.1418,347.3418 L648.6071,347.3418 L648.6071,349.5 L641.2277,349.5 L641.2277,347.3418 L643.6931,347.3418 L643.6931,339.2651 Z " fill="#000000"/><text fill="#000000" font-family="sans-serif" font-size="12" font-style="italic" lengthAdjust="spacing" textLength="72" x="659.2" y="347.5352">ItemDeMenu</text><rect fill="#FFFFFF" height="16.1328" style="stroke:#000000;stroke-width:1.0;stroke-dasharray:2.0,2.0;" width="10" x="741" y="324"/><text fill="#000000" font-family="sans-serif" font-size="12" font-style="italic" lengthAdjust="spacing" textLength="8" x="742" y="336.6016">T</text><line style="stroke:#A80036;stroke-width:1.5;" x1="629" x2="747" y1="359" y2="359"/><line style="stroke:#A80036;stroke-width:1.5;" x1="629" x2="747" y1="367" y2="367"/><ellipse cx="639" cy="378" fill="#84BE84" rx="3" ry="3" style="stroke:#038048;stroke-width:1.0;"/><text fill="#000000" font-family="sans-serif" font-size="11" lengthAdjust="spacing" textLength="94" x="648" y="381.6348">getNome(): String</text><!--MD5=[56c17820b5ec61b985b118caeb6340b1]
class Ui--><rect codeLine="76" fill="#FEFECE" filter="url(#f1tgtkc0ba4sf9)" height="86.8652" id="Ui" style="stroke:#A80036;stroke-width:1.5;" width="193" x="915.5" y="180"/><ellipse cx="1002.25" cy="196" fill="#ADD1B2" rx="11" ry="11" style="stroke:#A80036;stroke-width:1.0;"/><path d="M1004.7231,202.1431 Q1004.1421,202.4419 1003.5029,202.5913 Q1002.8638,202.7407 1002.1582,202.7407 Q999.6514,202.7407 998.3315,201.0889 Q997.0117,199.437 997.0117,196.3159 Q997.0117,193.1865 998.3315,191.5347 Q999.6514,189.8828 1002.1582,189.8828 Q1002.8638,189.8828 1003.5112,190.0322 Q1004.1587,190.1816 1004.7231,190.4805 L1004.7231,193.2031 Q1004.0923,192.6221 1003.4988,192.3523 Q1002.9053,192.0825 1002.2744,192.0825 Q1000.9297,192.0825 1000.2449,193.1492 Q999.5601,194.2158 999.5601,196.3159 Q999.5601,198.4077 1000.2449,199.4744 Q1000.9297,200.541 1002.2744,200.541 Q1002.9053,200.541 1003.4988,200.2712 Q1004.0923,200.0015 1004.7231,199.4204 Z " fill="#000000"/><text fill="#000000" font-family="sans-serif" font-size="12" lengthAdjust="spacing" textLength="11" x="1022.75" y="200.5352">Ui</text><line style="stroke:#A80036;stroke-width:1.5;" x1="916.5" x2="1107.5" y1="212" y2="212"/><rect fill="none" height="6" style="stroke:#C82930;stroke-width:1.0;" width="6" x="923.5" y="220"/><text fill="#000000" font-family="sans-serif" font-size="11" lengthAdjust="spacing" textLength="167" x="935.5" y="226.6348">acoes : ItemDeMenu&lt;Estoque&gt;</text><line style="stroke:#A80036;stroke-width:1.5;" x1="916.5" x2="1107.5" y1="232.9551" y2="232.9551"/><ellipse cx="926.5" cy="243.9551" fill="#84BE84" rx="3" ry="3" style="stroke:#038048;stroke-width:1.0;"/><text fill="#000000" font-family="sans-serif" font-size="11" lengthAdjust="spacing" textLength="87" x="935.5" y="247.5898">executar() : void</text><ellipse cx="926.5" cy="256.9102" fill="#84BE84" rx="3" ry="3" style="stroke:#038048;stroke-width:1.0;"/><text fill="#000000" font-family="sans-serif" font-size="11" lengthAdjust="spacing" textLength="57" x="935.5" y="260.5449">sair(): void</text><!--MD5=[18826ddc68954886090dcda6a3a893a2]
class Bootstrap--><rect codeLine="83" fill="#FEFECE" filter="url(#f1tgtkc0ba4sf9)" height="60.9551" id="Bootstrap" style="stroke:#A80036;stroke-width:1.5;" width="87" x="968.5" y="33"/><ellipse cx="983.5" cy="49" fill="#ADD1B2" rx="11" ry="11" style="stroke:#A80036;stroke-width:1.0;"/><path d="M985.9731,55.1431 Q985.3921,55.4419 984.7529,55.5913 Q984.1138,55.7407 983.4082,55.7407 Q980.9014,55.7407 979.5815,54.0889 Q978.2617,52.437 978.2617,49.3159 Q978.2617,46.1865 979.5815,44.5347 Q980.9014,42.8828 983.4082,42.8828 Q984.1138,42.8828 984.7612,43.0322 Q985.4087,43.1816 985.9731,43.4805 L985.9731,46.2031 Q985.3423,45.6221 984.7488,45.3523 Q984.1553,45.0825 983.5244,45.0825 Q982.1797,45.0825 981.4949,46.1492 Q980.8101,47.2158 980.8101,49.3159 Q980.8101,51.4077 981.4949,52.4744 Q982.1797,53.541 983.5244,53.541 Q984.1553,53.541 984.7488,53.2712 Q985.3423,53.0015 985.9731,52.4204 Z " fill="#000000"/><text fill="#000000" font-family="sans-serif" font-size="12" lengthAdjust="spacing" textLength="55" x="997.5" y="53.5352">Bootstrap</text><line style="stroke:#A80036;stroke-width:1.5;" x1="969.5" x2="1054.5" y1="65" y2="65"/><line style="stroke:#A80036;stroke-width:1.5;" x1="969.5" x2="1054.5" y1="73" y2="73"/><ellipse cx="979.5" cy="84" fill="#84BE84" rx="3" ry="3" style="stroke:#038048;stroke-width:1.0;"/><text fill="#000000" font-family="sans-serif" font-size="11" lengthAdjust="spacing" text-decoration="underline" textLength="60" x="988.5" y="87.6348">main():void</text><!--MD5=[51daa5e855023e74c558497e81ab7374]
reverse link Consumer to ItemDeMenu--><path d="M688,274.23 C688,292 688,311.45 688,326.98 " fill="none" id="Consumer-backto-ItemDeMenu" style="stroke:#A80036;stroke-width:1.0;"/><polygon fill="none" points="681,274.12,688,254.12,695,274.12,681,274.12" style="stroke:#A80036;stroke-width:1.0;"/><!--MD5=[99d5866db086671cef03bda79e35ec05]
reverse link ItemDeMenu to AdicionarProduto--><path d="M732.72,402.58 C749.65,419.28 768.89,438.24 785.69,454.81 " fill="none" id="ItemDeMenu-backto-AdicionarProduto" style="stroke:#A80036;stroke-width:1.0;stroke-dasharray:7.0,7.0;"/><polygon fill="none" points="727.58,407.34,718.25,388.32,737.41,397.37,727.58,407.34" style="stroke:#A80036;stroke-width:1.0;"/><!--MD5=[5d4d61b663120f4ea932688eb739a427]
reverse link ItemDeMenu to AdicionarQuantidade--><path d="M659.5,405.66 C649.88,421.58 639.2,439.25 629.8,454.81 " fill="none" id="ItemDeMenu-backto-AdicionarQuantidade" style="stroke:#A80036;stroke-width:1.0;stroke-dasharray:7.0,7.0;"/><polygon fill="none" points="653.64,401.82,669.98,388.32,665.63,409.06,653.64,401.82" style="stroke:#A80036;stroke-width:1.0;"/><!--MD5=[3c9c1821cccaac8134bad3a6b555d253]
reverse link ItemDeMenu to RemoverQuantidade--><path d="M607.92,363.94 C571.11,368.88 527.79,378.25 492,396 C463.18,410.3 436.16,434.02 415.78,454.93 " fill="none" id="ItemDeMenu-backto-RemoverQuantidade" style="stroke:#A80036;stroke-width:1.0;stroke-dasharray:7.0,7.0;"/><polygon fill="none" points="607.2,356.98,627.88,361.6,608.83,370.88,607.2,356.98" style="stroke:#A80036;stroke-width:1.0;"/><!--MD5=[0bea12316a2f276bb7aa2159f503c1d6]
reverse link ItemDeMenu to ListarProdutos--><path d="M607.62,359.59 C502.66,362.05 325.32,370.04 266,396 C233.06,410.41 203.3,438.47 182.75,461.44 " fill="none" id="ItemDeMenu-backto-ListarProdutos" style="stroke:#A80036;stroke-width:1.0;stroke-dasharray:7.0,7.0;"/><polygon fill="none" points="607.76,352.59,627.9,359.17,608.05,366.59,607.76,352.59" style="stroke:#A80036;stroke-width:1.0;"/><!--MD5=[d71709ff8da3f387c7e24b901ca6e7ac]
reverse link ItemDeMenu to Sair--><path d="M768.27,365.24 C830.84,371.43 911.97,381.81 942,396 C974.15,411.19 1003.64,438.74 1024.28,461.3 " fill="none" id="ItemDeMenu-backto-Sair" style="stroke:#A80036;stroke-width:1.0;stroke-dasharray:7.0,7.0;"/><polygon fill="none" points="767.53,372.2,748.28,363.34,768.86,358.26,767.53,372.2" style="stroke:#A80036;stroke-width:1.0;"/><!--MD5=[a4d4b9a9cb4d843dfa5e6140e79ce883]
link Bootstrap to Ui--><path codeLine="88" d="M1012,94.22 C1012,118.35 1012,152.71 1012,179.79 " fill="none" id="Bootstrap-Ui" style="stroke:#A80036;stroke-width:1.0;stroke-dasharray:7.0,7.0;"/><!--MD5=[7e0bb9c78f38907a8366362ce5f5ce46]
link Ui to ItemDeMenu--><path codeLine="89" d="M915.23,263.93 C862.77,285.3 799.35,311.13 752.86,330.08 " fill="none" id="Ui-to-ItemDeMenu" style="stroke:#A80036;stroke-width:1.0;"/><polygon fill="#A80036" points="748.13,332,757.974,332.3087,752.7605,330.1135,754.9556,324.9,748.13,332" style="stroke:#A80036;stroke-width:1.0;"/><!--MD5=[764c25a24799d60fe777a4331bea6597]
link Sair to Ui--><path codeLine="90" d="M1048.42,461.25 C1040.94,412.62 1027.64,326.16 1019.35,272.27 " fill="none" id="Sair-to-Ui" style="stroke:#A80036;stroke-width:1.0;"/><polygon fill="#A80036" points="1018.56,267.16,1015.9688,276.6619,1019.3171,272.1024,1023.8766,275.4506,1018.56,267.16" style="stroke:#A80036;stroke-width:1.0;"/><!--MD5=[003028bef78b5236effd17f9ca57284a]
link Estoque to Consumer--><path codeLine="91" d="M688,120.2 C688,144.73 688,172.54 688,192.96 " fill="none" id="Estoque-Consumer" style="stroke:#A80036;stroke-width:1.0;stroke-dasharray:7.0,7.0;"/><!--MD5=[45b38803421477f482b93907cbeba594]
link acoes to helper--><path d="M24,566.2656 C24,566.6041 24,566.9431 24,567.2827 C24,569.9989 24,572.746 24,575.5136 C24,581.0489 24,586.6664 24,592.2838 C24,595.0924 24,597.901 24,600.6993 C24,602.0985 24,603.495 24,604.8877 C24,605.2359 24,605.5838 24,605.9315 " fill="none" id="acoes-helper" style="stroke:#A80036;stroke-width:1.0;stroke-dasharray:7.0,7.0;"/><!--MD5=[e67fc4a309e0568a280508c3ef2cadcc]
reverse link Produto to Estoque--><path codeLine="93" d="M454.82,63.5 C464.87,63.5 474.91,63.5 484.96,63.5 " fill="none" id="Produto-backto-Estoque" style="stroke:#A80036;stroke-width:1.0;"/><polygon fill="#A80036" points="449.57,63.5,458.57,67.5,454.57,63.5,458.57,59.5,449.57,63.5" style="stroke:#A80036;stroke-width:1.0;"/><!--MD5=[ae433a3db260c18bf09ce9d74e32946b]
@startuml controle-de-estoque

class Produto {
  - codigo: String
  - nome: String
  - quantidade: int
  - quantidadeMinima: int

  + alterarQuantidade(novaQuantidade: int)
}

class Estoque {
  - produtos: List<Produto>
  + adicionarProduto(produto: Produto): void
  + alterarQuantidadeDeProduto(codigo: String, novaQuantidade: int): void
  + listarProdutos(): List<Produto>
  + listarProdutosAbaixoMinimo(): List<Produto>
}

interface Consumer<T> {
  + accept(estoque: Estoque): void
}

interface ItemDeMenu<T> extends Consumer {
  + getNome(): String
}

package helper {
  class SimpleLogger {
    + imprimirLinha(texto: String): void
    + imprimir(texto: String): void
  }

  class SimpleInput {
    + lerLinha(): String
    + lerInteiro(): int
  }
}

package acoes {

  class AdicionarProduto implements ItemDeMenu {
    - logger: SimpleLogger
    - input: SimpleInput

    + accept(estoque: Estoque): void
  }

  class AdicionarQuantidade implements ItemDeMenu {
    - logger: SimpleLogger
    - input: SimpleInput

    + accept(estoque: Estoque): void
  }


  class RemoverQuantidade implements ItemDeMenu {
    - logger: SimpleLogger
    - input: SimpleInput

    + accept(estoque: Estoque): void
  }

  class ListarProdutos implements ItemDeMenu {
    - logger: SimpleLogger

    + accept(estoque: Estoque): void
  }

  class Sair implements ItemDeMenu {
    - ui: Ui
    + accept(estoque: Estoque): void
  }

}

class Ui {
  - acoes : ItemDeMenu<Estoque>

  + executar() : void
  + sair(): void
}

class Bootstrap {
  + {static} main():void
}


Bootstrap .. Ui
Ui - -> ItemDeMenu
Sair - -> Ui
Consumer .up. Estoque
acoes .up. helper
Estoque -left-> Produto

@enduml

PlantUML version 1.2022.0(Tue Jan 11 13:16:42 BRT 2022)
(GPL source distribution)
Java Runtime: OpenJDK Runtime Environment
JVM: OpenJDK 64-Bit Server VM
Default Encoding: UTF-8
Language: en
Country: BR
--></g></svg>