<?xml version="1.0" encoding="UTF-8" standalone="no"?><svg xmlns="http://www.w3.org/2000/svg" xmlns:xlink="http://www.w3.org/1999/xlink" contentScriptType="application/ecmascript" contentStyleType="text/css" height="754px" preserveAspectRatio="none" style="width:1421px;height:754px;background:#FFFFFF;" version="1.1" viewBox="0 0 1421 754" width="1421px" zoomAndPan="magnify"><defs><filter height="300%" id="fshez3fz7n0rr" width="300%" x="-1" y="-1"><feGaussianBlur result="blurOut" stdDeviation="2.0"/><feColorMatrix in="blurOut" result="blurOut2" type="matrix" values="0 0 0 0 0 0 0 0 0 0 0 0 0 0 0 0 0 0 .4 0"/><feOffset dx="4.0" dy="4.0" in="blurOut2" result="blurOut3"/><feBlend in="SourceGraphic" in2="blurOut3" mode="normal"/></filter></defs><g><!--MD5=[be48e98a4ad7f5f2a1ba2465e5010d2c]
cluster helper--><polygon fill="#FFFFFF" filter="url(#fshez3fz7n0rr)" points="16,606,67,606,74,628.4883,438,628.4883,438,747,16,747,16,606" style="stroke:#000000;stroke-width:1.5;"/><line style="stroke:#000000;stroke-width:1.5;" x1="16" x2="74" y1="628.4883" y2="628.4883"/><text fill="#000000" font-family="sans-serif" font-size="14" font-weight="bold" lengthAdjust="spacing" textLength="45" x="20" y="621.5352">helper</text><!--MD5=[b461637e81ce7210cdb994ce8bfacdcf]
cluster acoes--><polygon fill="#FFFFFF" filter="url(#fshez3fz7n0rr)" points="16,412,62,412,69,434.4883,1404,434.4883,1404,566,16,566,16,412" style="stroke:#000000;stroke-width:1.5;"/><line style="stroke:#000000;stroke-width:1.5;" x1="16" x2="69" y1="434.4883" y2="434.4883"/><text fill="#000000" font-family="sans-serif" font-size="14" font-weight="bold" lengthAdjust="spacing" textLength="40" x="20" y="427.5352">acoes</text><!--MD5=[bcd645a24a7aa549381c6f2be29e5165]
class SimpleLogger--><rect codeLine="28" fill="#FEFECE" filter="url(#fshez3fz7n0rr)" height="73.9102" id="SimpleLogger" style="stroke:#A80036;stroke-width:1.5;" width="204" x="210" y="649"/><ellipse cx="269.25" cy="665" fill="#ADD1B2" rx="11" ry="11" style="stroke:#A80036;stroke-width:1.0;"/><path d="M271.7231,671.1431 Q271.1421,671.4419 270.5029,671.5913 Q269.8638,671.7407 269.1582,671.7407 Q266.6514,671.7407 265.3315,670.0889 Q264.0117,668.437 264.0117,665.3159 Q264.0117,662.1865 265.3315,660.5347 Q266.6514,658.8828 269.1582,658.8828 Q269.8638,658.8828 270.5112,659.0322 Q271.1587,659.1816 271.7231,659.4805 L271.7231,662.2031 Q271.0923,661.6221 270.4988,661.3523 Q269.9053,661.0825 269.2744,661.0825 Q267.9297,661.0825 267.2449,662.1492 Q266.5601,663.2158 266.5601,665.3159 Q266.5601,667.4077 267.2449,668.4744 Q267.9297,669.541 269.2744,669.541 Q269.9053,669.541 270.4988,669.2712 Q271.0923,669.0015 271.7231,668.4204 Z " fill="#000000"/><text fill="#000000" font-family="sans-serif" font-size="12" lengthAdjust="spacing" textLength="77" x="289.75" y="669.5352">SimpleLogger</text><line style="stroke:#A80036;stroke-width:1.5;" x1="211" x2="413" y1="681" y2="681"/><line style="stroke:#A80036;stroke-width:1.5;" x1="211" x2="413" y1="689" y2="689"/><ellipse cx="221" cy="700" fill="#84BE84" rx="3" ry="3" style="stroke:#038048;stroke-width:1.0;"/><text fill="#000000" font-family="sans-serif" font-size="11" lengthAdjust="spacing" textLength="178" x="230" y="703.6348">imprimirLinha(texto: String): void</text><ellipse cx="221" cy="712.9551" fill="#84BE84" rx="3" ry="3" style="stroke:#038048;stroke-width:1.0;"/><text fill="#000000" font-family="sans-serif" font-size="11" lengthAdjust="spacing" textLength="149" x="230" y="716.5898">imprimir(texto: String): void</text><!--MD5=[b80c6f0a6b96ead0571de96351b47769]
class SimpleInput--><rect codeLine="33" fill="#FEFECE" filter="url(#fshez3fz7n0rr)" height="73.9102" id="SimpleInput" style="stroke:#A80036;stroke-width:1.5;" width="115" x="59.5" y="649"/><ellipse cx="81.7" cy="665" fill="#ADD1B2" rx="11" ry="11" style="stroke:#A80036;stroke-width:1.0;"/><path d="M84.1731,671.1431 Q83.5921,671.4419 82.9529,671.5913 Q82.3138,671.7407 81.6082,671.7407 Q79.1014,671.7407 77.7815,670.0889 Q76.4617,668.437 76.4617,665.3159 Q76.4617,662.1865 77.7815,660.5347 Q79.1014,658.8828 81.6082,658.8828 Q82.3138,658.8828 82.9612,659.0322 Q83.6087,659.1816 84.1731,659.4805 L84.1731,662.2031 Q83.5423,661.6221 82.9488,661.3523 Q82.3553,661.0825 81.7244,661.0825 Q80.3797,661.0825 79.6949,662.1492 Q79.0101,663.2158 79.0101,665.3159 Q79.0101,667.4077 79.6949,668.4744 Q80.3797,669.541 81.7244,669.541 Q82.3553,669.541 82.9488,669.2712 Q83.5423,669.0015 84.1731,668.4204 Z " fill="#000000"/><text fill="#000000" font-family="sans-serif" font-size="12" lengthAdjust="spacing" textLength="67" x="97.3" y="669.5352">SimpleInput</text><line style="stroke:#A80036;stroke-width:1.5;" x1="60.5" x2="173.5" y1="681" y2="681"/><line style="stroke:#A80036;stroke-width:1.5;" x1="60.5" x2="173.5" y1="689" y2="689"/><ellipse cx="70.5" cy="700" fill="#84BE84" rx="3" ry="3" style="stroke:#038048;stroke-width:1.0;"/><text fill="#000000" font-family="sans-serif" font-size="11" lengthAdjust="spacing" textLength="89" x="79.5" y="703.6348">lerLinha(): String</text><ellipse cx="70.5" cy="712.9551" fill="#84BE84" rx="3" ry="3" style="stroke:#038048;stroke-width:1.0;"/><text fill="#000000" font-family="sans-serif" font-size="11" lengthAdjust="spacing" textLength="77" x="79.5" y="716.5898">lerInteiro(): int</text><!--MD5=[cff6ef18e58ad8f957e2a6894e086de6]
class AdicionarProduto--><rect codeLine="41" fill="#FEFECE" filter="url(#fshez3fz7n0rr)" height="86.8652" id="AdicionarProduto" style="stroke:#A80036;stroke-width:1.5;" width="190" x="965" y="455"/><ellipse cx="1006.55" cy="471" fill="#ADD1B2" rx="11" ry="11" style="stroke:#A80036;stroke-width:1.0;"/><path d="M1009.0231,477.1431 Q1008.4421,477.4419 1007.8029,477.5913 Q1007.1638,477.7407 1006.4582,477.7407 Q1003.9514,477.7407 1002.6315,476.0889 Q1001.3117,474.437 1001.3117,471.3159 Q1001.3117,468.1865 1002.6315,466.5347 Q1003.9514,464.8828 1006.4582,464.8828 Q1007.1638,464.8828 1007.8112,465.0322 Q1008.4587,465.1816 1009.0231,465.4805 L1009.0231,468.2031 Q1008.3923,467.6221 1007.7988,467.3523 Q1007.2053,467.0825 1006.5744,467.0825 Q1005.2297,467.0825 1004.5449,468.1492 Q1003.8601,469.2158 1003.8601,471.3159 Q1003.8601,473.4077 1004.5449,474.4744 Q1005.2297,475.541 1006.5744,475.541 Q1007.2053,475.541 1007.7988,475.2712 Q1008.3923,475.0015 1009.0231,474.4204 Z " fill="#000000"/><text fill="#000000" font-family="sans-serif" font-size="12" lengthAdjust="spacing" textLength="99" x="1026.45" y="475.5352">AdicionarProduto</text><line style="stroke:#A80036;stroke-width:1.5;" x1="966" x2="1154" y1="487" y2="487"/><rect fill="none" height="6" style="stroke:#C82930;stroke-width:1.0;" width="6" x="973" y="495"/><text fill="#000000" font-family="sans-serif" font-size="11" lengthAdjust="spacing" textLength="114" x="985" y="501.6348">logger: SimpleLogger</text><rect fill="none" height="6" style="stroke:#C82930;stroke-width:1.0;" width="6" x="973" y="507.9551"/><text fill="#000000" font-family="sans-serif" font-size="11" lengthAdjust="spacing" textLength="97" x="985" y="514.5898">input: SimpleInput</text><line style="stroke:#A80036;stroke-width:1.5;" x1="966" x2="1154" y1="520.9102" y2="520.9102"/><ellipse cx="976" cy="531.9102" fill="#84BE84" rx="3" ry="3" style="stroke:#038048;stroke-width:1.0;"/><text fill="#000000" font-family="sans-serif" font-size="11" lengthAdjust="spacing" textLength="164" x="985" y="535.5449">accept(estoque: Estoque): void</text><!--MD5=[8cae91255190f767c455af1e5b8138a2]
class AdicionarQuantidade--><rect codeLine="48" fill="#FEFECE" filter="url(#fshez3fz7n0rr)" height="86.8652" id="AdicionarQuantidade" style="stroke:#A80036;stroke-width:1.5;" width="190" x="740" y="455"/><ellipse cx="771.65" cy="471" fill="#ADD1B2" rx="11" ry="11" style="stroke:#A80036;stroke-width:1.0;"/><path d="M774.1231,477.1431 Q773.5421,477.4419 772.9029,477.5913 Q772.2638,477.7407 771.5582,477.7407 Q769.0514,477.7407 767.7315,476.0889 Q766.4117,474.437 766.4117,471.3159 Q766.4117,468.1865 767.7315,466.5347 Q769.0514,464.8828 771.5582,464.8828 Q772.2638,464.8828 772.9112,465.0322 Q773.5587,465.1816 774.1231,465.4805 L774.1231,468.2031 Q773.4923,467.6221 772.8988,467.3523 Q772.3053,467.0825 771.6744,467.0825 Q770.3297,467.0825 769.6449,468.1492 Q768.9601,469.2158 768.9601,471.3159 Q768.9601,473.4077 769.6449,474.4744 Q770.3297,475.541 771.6744,475.541 Q772.3053,475.541 772.8988,475.2712 Q773.4923,475.0015 774.1231,474.4204 Z " fill="#000000"/><text fill="#000000" font-family="sans-serif" font-size="12" lengthAdjust="spacing" textLength="121" x="789.35" y="475.5352">AdicionarQuantidade</text><line style="stroke:#A80036;stroke-width:1.5;" x1="741" x2="929" y1="487" y2="487"/><rect fill="none" height="6" style="stroke:#C82930;stroke-width:1.0;" width="6" x="748" y="495"/><text fill="#000000" font-family="sans-serif" font-size="11" lengthAdjust="spacing" textLength="114" x="760" y="501.6348">logger: SimpleLogger</text><rect fill="none" height="6" style="stroke:#C82930;stroke-width:1.0;" width="6" x="748" y="507.9551"/><text fill="#000000" font-family="sans-serif" font-size="11" lengthAdjust="spacing" textLength="97" x="760" y="514.5898">input: SimpleInput</text><line style="stroke:#A80036;stroke-width:1.5;" x1="741" x2="929" y1="520.9102" y2="520.9102"/><ellipse cx="751" cy="531.9102" fill="#84BE84" rx="3" ry="3" style="stroke:#038048;stroke-width:1.0;"/><text fill="#000000" font-family="sans-serif" font-size="11" lengthAdjust="spacing" textLength="164" x="760" y="535.5449">accept(estoque: Estoque): void</text><!--MD5=[0c066ffefacf386133ad7b16e5ac2b2d]
class RemoverQuantidade--><rect codeLine="56" fill="#FEFECE" filter="url(#fshez3fz7n0rr)" height="86.8652" id="RemoverQuantidade" style="stroke:#A80036;stroke-width:1.5;" width="190" x="515" y="455"/><ellipse cx="548" cy="471" fill="#ADD1B2" rx="11" ry="11" style="stroke:#A80036;stroke-width:1.0;"/><path d="M550.4731,477.1431 Q549.8921,477.4419 549.2529,477.5913 Q548.6138,477.7407 547.9082,477.7407 Q545.4014,477.7407 544.0815,476.0889 Q542.7617,474.437 542.7617,471.3159 Q542.7617,468.1865 544.0815,466.5347 Q545.4014,464.8828 547.9082,464.8828 Q548.6138,464.8828 549.2612,465.0322 Q549.9087,465.1816 550.4731,465.4805 L550.4731,468.2031 Q549.8423,467.6221 549.2488,467.3523 Q548.6553,467.0825 548.0244,467.0825 Q546.6797,467.0825 545.9949,468.1492 Q545.3101,469.2158 545.3101,471.3159 Q545.3101,473.4077 545.9949,474.4744 Q546.6797,475.541 548.0244,475.541 Q548.6553,475.541 549.2488,475.2712 Q549.8423,475.0015 550.4731,474.4204 Z " fill="#000000"/><text fill="#000000" font-family="sans-serif" font-size="12" lengthAdjust="spacing" textLength="118" x="566" y="475.5352">RemoverQuantidade</text><line style="stroke:#A80036;stroke-width:1.5;" x1="516" x2="704" y1="487" y2="487"/><rect fill="none" height="6" style="stroke:#C82930;stroke-width:1.0;" width="6" x="523" y="495"/><text fill="#000000" font-family="sans-serif" font-size="11" lengthAdjust="spacing" textLength="114" x="535" y="501.6348">logger: SimpleLogger</text><rect fill="none" height="6" style="stroke:#C82930;stroke-width:1.0;" width="6" x="523" y="507.9551"/><text fill="#000000" font-family="sans-serif" font-size="11" lengthAdjust="spacing" textLength="97" x="535" y="514.5898">input: SimpleInput</text><line style="stroke:#A80036;stroke-width:1.5;" x1="516" x2="704" y1="520.9102" y2="520.9102"/><ellipse cx="526" cy="531.9102" fill="#84BE84" rx="3" ry="3" style="stroke:#038048;stroke-width:1.0;"/><text fill="#000000" font-family="sans-serif" font-size="11" lengthAdjust="spacing" textLength="164" x="535" y="535.5449">accept(estoque: Estoque): void</text><!--MD5=[b134ad91523b690fa3ad0d9a3c75c474]
class ListarProdutos--><rect codeLine="63" fill="#FEFECE" filter="url(#fshez3fz7n0rr)" height="73.9102" id="ListarProdutos" style="stroke:#A80036;stroke-width:1.5;" width="190" x="290" y="461.5"/><ellipse cx="339.75" cy="477.5" fill="#ADD1B2" rx="11" ry="11" style="stroke:#A80036;stroke-width:1.0;"/><path d="M342.2231,483.6431 Q341.6421,483.9419 341.0029,484.0913 Q340.3638,484.2407 339.6582,484.2407 Q337.1514,484.2407 335.8315,482.5889 Q334.5117,480.937 334.5117,477.8159 Q334.5117,474.6865 335.8315,473.0347 Q337.1514,471.3828 339.6582,471.3828 Q340.3638,471.3828 341.0112,471.5322 Q341.6587,471.6816 342.2231,471.9805 L342.2231,474.7031 Q341.5923,474.1221 340.9988,473.8523 Q340.4053,473.5825 339.7744,473.5825 Q338.4297,473.5825 337.7449,474.6492 Q337.0601,475.7158 337.0601,477.8159 Q337.0601,479.9077 337.7449,480.9744 Q338.4297,482.041 339.7744,482.041 Q340.4053,482.041 340.9988,481.7712 Q341.5923,481.5015 342.2231,480.9204 Z " fill="#000000"/><text fill="#000000" font-family="sans-serif" font-size="12" lengthAdjust="spacing" textLength="82" x="360.25" y="482.0352">ListarProdutos</text><line style="stroke:#A80036;stroke-width:1.5;" x1="291" x2="479" y1="493.5" y2="493.5"/><rect fill="none" height="6" style="stroke:#C82930;stroke-width:1.0;" width="6" x="298" y="501.5"/><text fill="#000000" font-family="sans-serif" font-size="11" lengthAdjust="spacing" textLength="114" x="310" y="508.1348">logger: SimpleLogger</text><line style="stroke:#A80036;stroke-width:1.5;" x1="291" x2="479" y1="514.4551" y2="514.4551"/><ellipse cx="301" cy="525.4551" fill="#84BE84" rx="3" ry="3" style="stroke:#038048;stroke-width:1.0;"/><text fill="#000000" font-family="sans-serif" font-size="11" lengthAdjust="spacing" textLength="164" x="310" y="529.0898">accept(estoque: Estoque): void</text><!--MD5=[b3496b8b4e1b549c1309102a74d43d75]
class ListarProdutosAbaixoMinimo--><rect codeLine="69" fill="#FEFECE" filter="url(#fshez3fz7n0rr)" height="73.9102" id="ListarProdutosAbaixoMinimo" style="stroke:#A80036;stroke-width:1.5;" width="195" x="59.5" y="461.5"/><ellipse cx="74.5" cy="477.5" fill="#ADD1B2" rx="11" ry="11" style="stroke:#A80036;stroke-width:1.0;"/><path d="M76.9731,483.6431 Q76.3921,483.9419 75.7529,484.0913 Q75.1138,484.2407 74.4082,484.2407 Q71.9014,484.2407 70.5815,482.5889 Q69.2617,480.937 69.2617,477.8159 Q69.2617,474.6865 70.5815,473.0347 Q71.9014,471.3828 74.4082,471.3828 Q75.1138,471.3828 75.7612,471.5322 Q76.4087,471.6816 76.9731,471.9805 L76.9731,474.7031 Q76.3423,474.1221 75.7488,473.8523 Q75.1553,473.5825 74.5244,473.5825 Q73.1797,473.5825 72.4949,474.6492 Q71.8101,475.7158 71.8101,477.8159 Q71.8101,479.9077 72.4949,480.9744 Q73.1797,482.041 74.5244,482.041 Q75.1553,482.041 75.7488,481.7712 Q76.3423,481.5015 76.9731,480.9204 Z " fill="#000000"/><text fill="#000000" font-family="sans-serif" font-size="12" lengthAdjust="spacing" textLength="163" x="88.5" y="482.0352">ListarProdutosAbaixoMinimo</text><line style="stroke:#A80036;stroke-width:1.5;" x1="60.5" x2="253.5" y1="493.5" y2="493.5"/><rect fill="none" height="6" style="stroke:#C82930;stroke-width:1.0;" width="6" x="67.5" y="501.5"/><text fill="#000000" font-family="sans-serif" font-size="11" lengthAdjust="spacing" textLength="114" x="79.5" y="508.1348">logger: SimpleLogger</text><line style="stroke:#A80036;stroke-width:1.5;" x1="60.5" x2="253.5" y1="514.4551" y2="514.4551"/><ellipse cx="70.5" cy="525.4551" fill="#84BE84" rx="3" ry="3" style="stroke:#038048;stroke-width:1.0;"/><text fill="#000000" font-family="sans-serif" font-size="11" lengthAdjust="spacing" textLength="164" x="79.5" y="529.0898">accept(estoque: Estoque): void</text><!--MD5=[df457111095510ce13215b59182cab45]
class Sair--><rect codeLine="75" fill="#FEFECE" filter="url(#fshez3fz7n0rr)" height="73.9102" id="Sair" style="stroke:#A80036;stroke-width:1.5;" width="190" x="1190" y="461.5"/><ellipse cx="1270.25" cy="477.5" fill="#ADD1B2" rx="11" ry="11" style="stroke:#A80036;stroke-width:1.0;"/><path d="M1272.7231,483.6431 Q1272.1421,483.9419 1271.5029,484.0913 Q1270.8638,484.2407 1270.1582,484.2407 Q1267.6514,484.2407 1266.3315,482.5889 Q1265.0117,480.937 1265.0117,477.8159 Q1265.0117,474.6865 1266.3315,473.0347 Q1267.6514,471.3828 1270.1582,471.3828 Q1270.8638,471.3828 1271.5112,471.5322 Q1272.1587,471.6816 1272.7231,471.9805 L1272.7231,474.7031 Q1272.0923,474.1221 1271.4988,473.8523 Q1270.9053,473.5825 1270.2744,473.5825 Q1268.9297,473.5825 1268.2449,474.6492 Q1267.5601,475.7158 1267.5601,477.8159 Q1267.5601,479.9077 1268.2449,480.9744 Q1268.9297,482.041 1270.2744,482.041 Q1270.9053,482.041 1271.4988,481.7712 Q1272.0923,481.5015 1272.7231,480.9204 Z " fill="#000000"/><text fill="#000000" font-family="sans-serif" font-size="12" lengthAdjust="spacing" textLength="21" x="1290.75" y="482.0352">Sair</text><line style="stroke:#A80036;stroke-width:1.5;" x1="1191" x2="1379" y1="493.5" y2="493.5"/><rect fill="none" height="6" style="stroke:#C82930;stroke-width:1.0;" width="6" x="1198" y="501.5"/><text fill="#000000" font-family="sans-serif" font-size="11" lengthAdjust="spacing" textLength="27" x="1210" y="508.1348">ui: Ui</text><line style="stroke:#A80036;stroke-width:1.5;" x1="1191" x2="1379" y1="514.4551" y2="514.4551"/><ellipse cx="1201" cy="525.4551" fill="#84BE84" rx="3" ry="3" style="stroke:#038048;stroke-width:1.0;"/><text fill="#000000" font-family="sans-serif" font-size="11" lengthAdjust="spacing" textLength="164" x="1210" y="529.0898">accept(estoque: Estoque): void</text><!--MD5=[d4dacc50d49878ba7c621dfc80a2e1ce]
class Produto--><rect codeLine="2" fill="#FEFECE" filter="url(#fshez3fz7n0rr)" height="112.7754" id="Produto" style="stroke:#A80036;stroke-width:1.5;" width="239" x="357.5" y="7"/><ellipse cx="450.25" cy="23" fill="#ADD1B2" rx="11" ry="11" style="stroke:#A80036;stroke-width:1.0;"/><path d="M452.7231,29.1431 Q452.1421,29.4419 451.5029,29.5913 Q450.8638,29.7407 450.1582,29.7407 Q447.6514,29.7407 446.3315,28.0889 Q445.0117,26.437 445.0117,23.3159 Q445.0117,20.1865 446.3315,18.5347 Q447.6514,16.8828 450.1582,16.8828 Q450.8638,16.8828 451.5112,17.0322 Q452.1587,17.1816 452.7231,17.4805 L452.7231,20.2031 Q452.0923,19.6221 451.4988,19.3523 Q450.9053,19.0825 450.2744,19.0825 Q448.9297,19.0825 448.2449,20.1492 Q447.5601,21.2158 447.5601,23.3159 Q447.5601,25.4077 448.2449,26.4744 Q448.9297,27.541 450.2744,27.541 Q450.9053,27.541 451.4988,27.2712 Q452.0923,27.0015 452.7231,26.4204 Z " fill="#000000"/><text fill="#000000" font-family="sans-serif" font-size="12" lengthAdjust="spacing" textLength="45" x="470.75" y="27.5352">Produto</text><line style="stroke:#A80036;stroke-width:1.5;" x1="358.5" x2="595.5" y1="39" y2="39"/><rect fill="none" height="6" style="stroke:#C82930;stroke-width:1.0;" width="6" x="365.5" y="47"/><text fill="#000000" font-family="sans-serif" font-size="11" lengthAdjust="spacing" textLength="75" x="377.5" y="53.6348">codigo: String</text><rect fill="none" height="6" style="stroke:#C82930;stroke-width:1.0;" width="6" x="365.5" y="59.9551"/><text fill="#000000" font-family="sans-serif" font-size="11" lengthAdjust="spacing" textLength="68" x="377.5" y="66.5898">nome: String</text><rect fill="none" height="6" style="stroke:#C82930;stroke-width:1.0;" width="6" x="365.5" y="72.9102"/><text fill="#000000" font-family="sans-serif" font-size="11" lengthAdjust="spacing" textLength="80" x="377.5" y="79.5449">quantidade: int</text><rect fill="none" height="6" style="stroke:#C82930;stroke-width:1.0;" width="6" x="365.5" y="85.8652"/><text fill="#000000" font-family="sans-serif" font-size="11" lengthAdjust="spacing" textLength="118" x="377.5" y="92.5">quantidadeMinima: int</text><line style="stroke:#A80036;stroke-width:1.5;" x1="358.5" x2="595.5" y1="98.8203" y2="98.8203"/><ellipse cx="368.5" cy="109.8203" fill="#84BE84" rx="3" ry="3" style="stroke:#038048;stroke-width:1.0;"/><text fill="#000000" font-family="sans-serif" font-size="11" lengthAdjust="spacing" textLength="213" x="377.5" y="113.4551">alterarQuantidade(novaQuantidade: int)</text><!--MD5=[d1377ef569372d0878800e24aaeebcac]
class Estoque--><rect codeLine="11" fill="#FEFECE" filter="url(#fshez3fz7n0rr)" height="112.7754" id="Estoque" style="stroke:#A80036;stroke-width:1.5;" width="406" x="632" y="7"/><ellipse cx="807.75" cy="23" fill="#ADD1B2" rx="11" ry="11" style="stroke:#A80036;stroke-width:1.0;"/><path d="M810.2231,29.1431 Q809.6421,29.4419 809.0029,29.5913 Q808.3638,29.7407 807.6582,29.7407 Q805.1514,29.7407 803.8315,28.0889 Q802.5117,26.437 802.5117,23.3159 Q802.5117,20.1865 803.8315,18.5347 Q805.1514,16.8828 807.6582,16.8828 Q808.3638,16.8828 809.0112,17.0322 Q809.6587,17.1816 810.2231,17.4805 L810.2231,20.2031 Q809.5923,19.6221 808.9988,19.3523 Q808.4053,19.0825 807.7744,19.0825 Q806.4297,19.0825 805.7449,20.1492 Q805.0601,21.2158 805.0601,23.3159 Q805.0601,25.4077 805.7449,26.4744 Q806.4297,27.541 807.7744,27.541 Q808.4053,27.541 808.9988,27.2712 Q809.5923,27.0015 810.2231,26.4204 Z " fill="#000000"/><text fill="#000000" font-family="sans-serif" font-size="12" lengthAdjust="spacing" textLength="46" x="828.25" y="27.5352">Estoque</text><line style="stroke:#A80036;stroke-width:1.5;" x1="633" x2="1037" y1="39" y2="39"/><rect fill="none" height="6" style="stroke:#C82930;stroke-width:1.0;" width="6" x="640" y="47"/><text fill="#000000" font-family="sans-serif" font-size="11" lengthAdjust="spacing" textLength="136" x="652" y="53.6348">produtos: List&lt;Produto&gt;</text><line style="stroke:#A80036;stroke-width:1.5;" x1="633" x2="1037" y1="59.9551" y2="59.9551"/><ellipse cx="643" cy="70.9551" fill="#84BE84" rx="3" ry="3" style="stroke:#038048;stroke-width:1.0;"/><text fill="#000000" font-family="sans-serif" font-size="11" lengthAdjust="spacing" textLength="223" x="652" y="74.5898">adicionarProduto(produto: Produto): void</text><ellipse cx="643" cy="83.9102" fill="#84BE84" rx="3" ry="3" style="stroke:#038048;stroke-width:1.0;"/><text fill="#000000" font-family="sans-serif" font-size="11" lengthAdjust="spacing" textLength="380" x="652" y="87.5449">alterarQuantidadeDeProduto(codigo: String, novaQuantidade: int): void</text><ellipse cx="643" cy="96.8652" fill="#84BE84" rx="3" ry="3" style="stroke:#038048;stroke-width:1.0;"/><text fill="#000000" font-family="sans-serif" font-size="11" lengthAdjust="spacing" textLength="170" x="652" y="100.5">listarProdutos(): List&lt;Produto&gt;</text><ellipse cx="643" cy="109.8203" fill="#84BE84" rx="3" ry="3" style="stroke:#038048;stroke-width:1.0;"/><text fill="#000000" font-family="sans-serif" font-size="11" lengthAdjust="spacing" textLength="247" x="652" y="113.4551">listarProdutosAbaixoMinimo(): List&lt;Produto&gt;</text><!--MD5=[67ea9f8eb7ab97465d83c225b092f5fe]
class Consumer--><rect codeLine="19" fill="#FEFECE" filter="url(#fshez3fz7n0rr)" height="60.9551" id="Consumer" style="stroke:#A80036;stroke-width:1.5;" width="190" x="740" y="193"/><ellipse cx="795.75" cy="209" fill="#B4A7E5" rx="11" ry="11" style="stroke:#A80036;stroke-width:1.0;"/><path d="M792.1777,205.2651 L792.1777,203.1069 L799.5571,203.1069 L799.5571,205.2651 L797.0918,205.2651 L797.0918,213.3418 L799.5571,213.3418 L799.5571,215.5 L792.1777,215.5 L792.1777,213.3418 L794.6431,213.3418 L794.6431,205.2651 Z " fill="#000000"/><text fill="#000000" font-family="sans-serif" font-size="12" font-style="italic" lengthAdjust="spacing" textLength="58" x="816.25" y="213.5352">Consumer</text><rect fill="#FFFFFF" height="16.1328" style="stroke:#000000;stroke-width:1.0;stroke-dasharray:2.0,2.0;" width="10" x="923" y="190"/><text fill="#000000" font-family="sans-serif" font-size="12" font-style="italic" lengthAdjust="spacing" textLength="8" x="924" y="202.6016">T</text><line style="stroke:#A80036;stroke-width:1.5;" x1="741" x2="929" y1="225" y2="225"/><line style="stroke:#A80036;stroke-width:1.5;" x1="741" x2="929" y1="233" y2="233"/><ellipse cx="751" cy="244" fill="#84BE84" rx="3" ry="3" style="stroke:#038048;stroke-width:1.0;"/><text fill="#000000" font-family="sans-serif" font-size="11" lengthAdjust="spacing" textLength="164" x="760" y="247.6348">accept(estoque: Estoque): void</text><!--MD5=[2c16c8c5b6d001d95b2e9f7d64876974]
class ItemDeMenu--><rect codeLine="23" fill="#FEFECE" filter="url(#fshez3fz7n0rr)" height="60.9551" id="ItemDeMenu" style="stroke:#A80036;stroke-width:1.5;" width="120" x="775" y="327"/><ellipse cx="791.8" cy="343" fill="#B4A7E5" rx="11" ry="11" style="stroke:#A80036;stroke-width:1.0;"/><path d="M788.2277,339.2651 L788.2277,337.1069 L795.6071,337.1069 L795.6071,339.2651 L793.1418,339.2651 L793.1418,347.3418 L795.6071,347.3418 L795.6071,349.5 L788.2277,349.5 L788.2277,347.3418 L790.6931,347.3418 L790.6931,339.2651 Z " fill="#000000"/><text fill="#000000" font-family="sans-serif" font-size="12" font-style="italic" lengthAdjust="spacing" textLength="72" x="806.2" y="347.5352">ItemDeMenu</text><rect fill="#FFFFFF" height="16.1328" style="stroke:#000000;stroke-width:1.0;stroke-dasharray:2.0,2.0;" width="10" x="888" y="324"/><text fill="#000000" font-family="sans-serif" font-size="12" font-style="italic" lengthAdjust="spacing" textLength="8" x="889" y="336.6016">T</text><line style="stroke:#A80036;stroke-width:1.5;" x1="776" x2="894" y1="359" y2="359"/><line style="stroke:#A80036;stroke-width:1.5;" x1="776" x2="894" y1="367" y2="367"/><ellipse cx="786" cy="378" fill="#84BE84" rx="3" ry="3" style="stroke:#038048;stroke-width:1.0;"/><text fill="#000000" font-family="sans-serif" font-size="11" lengthAdjust="spacing" textLength="94" x="795" y="381.6348">getNome(): String</text><!--MD5=[56c17820b5ec61b985b118caeb6340b1]
class Ui--><rect codeLine="82" fill="#FEFECE" filter="url(#fshez3fz7n0rr)" height="86.8652" id="Ui" style="stroke:#A80036;stroke-width:1.5;" width="193" x="1104.5" y="180"/><ellipse cx="1191.25" cy="196" fill="#ADD1B2" rx="11" ry="11" style="stroke:#A80036;stroke-width:1.0;"/><path d="M1193.7231,202.1431 Q1193.1421,202.4419 1192.5029,202.5913 Q1191.8638,202.7407 1191.1582,202.7407 Q1188.6514,202.7407 1187.3315,201.0889 Q1186.0117,199.437 1186.0117,196.3159 Q1186.0117,193.1865 1187.3315,191.5347 Q1188.6514,189.8828 1191.1582,189.8828 Q1191.8638,189.8828 1192.5112,190.0322 Q1193.1587,190.1816 1193.7231,190.4805 L1193.7231,193.2031 Q1193.0923,192.6221 1192.4988,192.3523 Q1191.9053,192.0825 1191.2744,192.0825 Q1189.9297,192.0825 1189.2449,193.1492 Q1188.5601,194.2158 1188.5601,196.3159 Q1188.5601,198.4077 1189.2449,199.4744 Q1189.9297,200.541 1191.2744,200.541 Q1191.9053,200.541 1192.4988,200.2712 Q1193.0923,200.0015 1193.7231,199.4204 Z " fill="#000000"/><text fill="#000000" font-family="sans-serif" font-size="12" lengthAdjust="spacing" textLength="11" x="1211.75" y="200.5352">Ui</text><line style="stroke:#A80036;stroke-width:1.5;" x1="1105.5" x2="1296.5" y1="212" y2="212"/><rect fill="none" height="6" style="stroke:#C82930;stroke-width:1.0;" width="6" x="1112.5" y="220"/><text fill="#000000" font-family="sans-serif" font-size="11" lengthAdjust="spacing" textLength="167" x="1124.5" y="226.6348">acoes : ItemDeMenu&lt;Estoque&gt;</text><line style="stroke:#A80036;stroke-width:1.5;" x1="1105.5" x2="1296.5" y1="232.9551" y2="232.9551"/><ellipse cx="1115.5" cy="243.9551" fill="#84BE84" rx="3" ry="3" style="stroke:#038048;stroke-width:1.0;"/><text fill="#000000" font-family="sans-serif" font-size="11" lengthAdjust="spacing" textLength="87" x="1124.5" y="247.5898">executar() : void</text><ellipse cx="1115.5" cy="256.9102" fill="#84BE84" rx="3" ry="3" style="stroke:#038048;stroke-width:1.0;"/><text fill="#000000" font-family="sans-serif" font-size="11" lengthAdjust="spacing" textLength="57" x="1124.5" y="260.5449">sair(): void</text><!--MD5=[18826ddc68954886090dcda6a3a893a2]
class Bootstrap--><rect codeLine="89" fill="#FEFECE" filter="url(#fshez3fz7n0rr)" height="60.9551" id="Bootstrap" style="stroke:#A80036;stroke-width:1.5;" width="87" x="1157.5" y="33"/><ellipse cx="1172.5" cy="49" fill="#ADD1B2" rx="11" ry="11" style="stroke:#A80036;stroke-width:1.0;"/><path d="M1174.9731,55.1431 Q1174.3921,55.4419 1173.7529,55.5913 Q1173.1138,55.7407 1172.4082,55.7407 Q1169.9014,55.7407 1168.5815,54.0889 Q1167.2617,52.437 1167.2617,49.3159 Q1167.2617,46.1865 1168.5815,44.5347 Q1169.9014,42.8828 1172.4082,42.8828 Q1173.1138,42.8828 1173.7612,43.0322 Q1174.4087,43.1816 1174.9731,43.4805 L1174.9731,46.2031 Q1174.3423,45.6221 1173.7488,45.3523 Q1173.1553,45.0825 1172.5244,45.0825 Q1171.1797,45.0825 1170.4949,46.1492 Q1169.8101,47.2158 1169.8101,49.3159 Q1169.8101,51.4077 1170.4949,52.4744 Q1171.1797,53.541 1172.5244,53.541 Q1173.1553,53.541 1173.7488,53.2712 Q1174.3423,53.0015 1174.9731,52.4204 Z " fill="#000000"/><text fill="#000000" font-family="sans-serif" font-size="12" lengthAdjust="spacing" textLength="55" x="1186.5" y="53.5352">Bootstrap</text><line style="stroke:#A80036;stroke-width:1.5;" x1="1158.5" x2="1243.5" y1="65" y2="65"/><line style="stroke:#A80036;stroke-width:1.5;" x1="1158.5" x2="1243.5" y1="73" y2="73"/><ellipse cx="1168.5" cy="84" fill="#84BE84" rx="3" ry="3" style="stroke:#038048;stroke-width:1.0;"/><text fill="#000000" font-family="sans-serif" font-size="11" lengthAdjust="spacing" text-decoration="underline" textLength="60" x="1177.5" y="87.6348">main():void</text><!--MD5=[51daa5e855023e74c558497e81ab7374]
reverse link Consumer to ItemDeMenu--><path d="M835,274.23 C835,292 835,311.45 835,326.98 " fill="none" id="Consumer-backto-ItemDeMenu" style="stroke:#A80036;stroke-width:1.0;"/><polygon fill="none" points="828,274.12,835,254.12,842,274.12,828,274.12" style="stroke:#A80036;stroke-width:1.0;"/><!--MD5=[99d5866db086671cef03bda79e35ec05]
reverse link ItemDeMenu to AdicionarProduto--><path d="M914.04,380.02 C925.78,384.55 937.47,389.85 948,396 C974.97,411.74 1001.07,434.78 1021.27,454.93 " fill="none" id="ItemDeMenu-backto-AdicionarProduto" style="stroke:#A80036;stroke-width:1.0;stroke-dasharray:7.0,7.0;"/><polygon fill="none" points="911.61,386.58,895.07,373.34,916.26,373.38,911.61,386.58" style="stroke:#A80036;stroke-width:1.0;"/><!--MD5=[5d4d61b663120f4ea932688eb739a427]
reverse link ItemDeMenu to AdicionarQuantidade--><path d="M835,408.52 C835,423.67 835,440.18 835,454.81 " fill="none" id="ItemDeMenu-backto-AdicionarQuantidade" style="stroke:#A80036;stroke-width:1.0;stroke-dasharray:7.0,7.0;"/><polygon fill="none" points="828,408.32,835,388.32,842,408.32,828,408.32" style="stroke:#A80036;stroke-width:1.0;"/><!--MD5=[3c9c1821cccaac8134bad3a6b555d253]
reverse link ItemDeMenu to RemoverQuantidade--><path d="M755.88,380.43 C744.51,384.88 733.22,390.05 723,396 C695.88,411.8 669.56,434.84 649.15,454.98 " fill="none" id="ItemDeMenu-backto-RemoverQuantidade" style="stroke:#A80036;stroke-width:1.0;stroke-dasharray:7.0,7.0;"/><polygon fill="none" points="753.72,373.77,774.91,373.64,758.43,386.96,753.72,373.77" style="stroke:#A80036;stroke-width:1.0;"/><!--MD5=[0bea12316a2f276bb7aa2159f503c1d6]
reverse link ItemDeMenu to ListarProdutos--><path d="M754.89,361.79 C670.07,366.26 542.42,376.09 498,396 C465.27,410.67 435.43,438.4 414.64,461.17 " fill="none" id="ItemDeMenu-backto-ListarProdutos" style="stroke:#A80036;stroke-width:1.0;stroke-dasharray:7.0,7.0;"/><polygon fill="none" points="754.6,354.79,774.93,360.79,755.3,368.78,754.6,354.79" style="stroke:#A80036;stroke-width:1.0;"/><!--MD5=[3c973b4e41d67ef0267c72e886781853]
reverse link ItemDeMenu to ListarProdutosAbaixoMinimo--><path d="M754.48,360.99 C609.46,365.9 315.33,377.94 272,396 C238.2,410.08 207.53,438.32 186.38,461.44 " fill="none" id="ItemDeMenu-backto-ListarProdutosAbaixoMinimo" style="stroke:#A80036;stroke-width:1.0;stroke-dasharray:7.0,7.0;"/><polygon fill="none" points="754.53,353.99,774.75,360.32,754.99,367.98,754.53,353.99" style="stroke:#A80036;stroke-width:1.0;"/><!--MD5=[d71709ff8da3f387c7e24b901ca6e7ac]
reverse link ItemDeMenu to Sair--><path d="M915.37,361.73 C1000.45,366.15 1128.49,375.94 1173,396 C1205.54,410.66 1235.11,438.39 1255.69,461.17 " fill="none" id="ItemDeMenu-backto-Sair" style="stroke:#A80036;stroke-width:1.0;stroke-dasharray:7.0,7.0;"/><polygon fill="none" points="914.9,368.72,895.27,360.74,915.58,354.73,914.9,368.72" style="stroke:#A80036;stroke-width:1.0;"/><!--MD5=[a4d4b9a9cb4d843dfa5e6140e79ce883]
link Bootstrap to Ui--><path codeLine="94" d="M1201,94.22 C1201,118.35 1201,152.71 1201,179.79 " fill="none" id="Bootstrap-Ui" style="stroke:#A80036;stroke-width:1.0;stroke-dasharray:7.0,7.0;"/><!--MD5=[7e0bb9c78f38907a8366362ce5f5ce46]
link Ui to ItemDeMenu--><path codeLine="95" d="M1104.36,259.35 C1039.78,282.65 956.58,312.65 899.85,333.11 " fill="none" id="Ui-to-ItemDeMenu" style="stroke:#A80036;stroke-width:1.0;"/><polygon fill="#A80036" points="895.13,334.81,904.9539,335.5103,899.8319,333.1093,902.2328,327.9873,895.13,334.81" style="stroke:#A80036;stroke-width:1.0;"/><!--MD5=[764c25a24799d60fe777a4331bea6597]
link Sair to Ui--><path codeLine="96" d="M1273.85,461.25 C1258.85,412.52 1232.17,325.81 1215.6,271.94 " fill="none" id="Sair-to-Ui" style="stroke:#A80036;stroke-width:1.0;"/><polygon fill="#A80036" points="1214.12,267.16,1212.9416,276.9381,1215.5894,271.9392,1220.5883,274.587,1214.12,267.16" style="stroke:#A80036;stroke-width:1.0;"/><!--MD5=[003028bef78b5236effd17f9ca57284a]
link Estoque to Consumer--><path codeLine="97" d="M835,120.2 C835,144.73 835,172.54 835,192.96 " fill="none" id="Estoque-Consumer" style="stroke:#A80036;stroke-width:1.0;stroke-dasharray:7.0,7.0;"/><!--MD5=[45b38803421477f482b93907cbeba594]
link acoes to helper--><path d="M24,566.2656 C24,566.6041 24,566.9431 24,567.2827 C24,569.9989 24,572.746 24,575.5136 C24,581.0489 24,586.6664 24,592.2838 C24,595.0924 24,597.901 24,600.6993 C24,602.0985 24,603.495 24,604.8877 C24,605.2359 24,605.5838 24,605.9315 " fill="none" id="acoes-helper" style="stroke:#A80036;stroke-width:1.0;stroke-dasharray:7.0,7.0;"/><!--MD5=[e67fc4a309e0568a280508c3ef2cadcc]
reverse link Produto to Estoque--><path codeLine="99" d="M601.82,63.5 C611.87,63.5 621.91,63.5 631.96,63.5 " fill="none" id="Produto-backto-Estoque" style="stroke:#A80036;stroke-width:1.0;"/><polygon fill="#A80036" points="596.57,63.5,605.57,67.5,601.57,63.5,605.57,59.5,596.57,63.5" style="stroke:#A80036;stroke-width:1.0;"/><!--MD5=[37a46c28df609bf7b84408b1bea87044]
@startuml controle-de-estoque

class Produto {
  - codigo: String
  - nome: String
  - quantidade: int
  - quantidadeMinima: int

  + alterarQuantidade(novaQuantidade: int)
}

class Estoque {
  - produtos: List<Produto>
  + adicionarProduto(produto: Produto): void
  + alterarQuantidadeDeProduto(codigo: String, novaQuantidade: int): void
  + listarProdutos(): List<Produto>
  + listarProdutosAbaixoMinimo(): List<Produto>
}

interface Consumer<T> {
  + accept(estoque: Estoque): void
}

interface ItemDeMenu<T> extends Consumer {
  + getNome(): String
}

package helper {
  class SimpleLogger {
    + imprimirLinha(texto: String): void
    + imprimir(texto: String): void
  }

  class SimpleInput {
    + lerLinha(): String
    + lerInteiro(): int
  }
}

package acoes {

  class AdicionarProduto implements ItemDeMenu {
    - logger: SimpleLogger
    - input: SimpleInput

    + accept(estoque: Estoque): void
  }

  class AdicionarQuantidade implements ItemDeMenu {
    - logger: SimpleLogger
    - input: SimpleInput

    + accept(estoque: Estoque): void
  }


  class RemoverQuantidade implements ItemDeMenu {
    - logger: SimpleLogger
    - input: SimpleInput

    + accept(estoque: Estoque): void
  }

  class ListarProdutos implements ItemDeMenu {
    - logger: SimpleLogger

    + accept(estoque: Estoque): void
  }
  
  class ListarProdutosAbaixoMinimo implements ItemDeMenu {
    - logger: SimpleLogger

    + accept(estoque: Estoque): void
  }

  class Sair implements ItemDeMenu {
    - ui: Ui
    + accept(estoque: Estoque): void
  }

}

class Ui {
  - acoes : ItemDeMenu<Estoque>

  + executar() : void
  + sair(): void
}

class Bootstrap {
  + {static} main():void
}


Bootstrap .. Ui
Ui - -> ItemDeMenu
Sair - -> Ui
Consumer .up. Estoque
acoes .up. helper
Estoque -left-> Produto

@enduml

PlantUML version 1.2022.0(Tue Jan 11 13:16:42 BRT 2022)
(GPL source distribution)
Java Runtime: OpenJDK Runtime Environment
JVM: OpenJDK 64-Bit Server VM
Default Encoding: UTF-8
Language: en
Country: BR
--></g></svg>